<svg width="20" height="20" viewBox="0 0 20 20" fill="none" xmlns="http://www.w3.org/2000/svg">
<path d="M3.33334 11.7595V8.98175C3.33334 5.39845 6.3143 2.50033 10 2.50033C13.6857 2.50033 16.6667 5.39845 16.6667 8.98175V11.7595C16.6667 15.4633 14.7619 19.167 10 19.167" stroke="#080A52" stroke-width="1.25" stroke-linecap="round" stroke-linejoin="round"/>
<path d="M16.6667 12.0833V8.75C16.6667 8.51852 16.7901 8.33333 16.9444 8.33333C17.7109 8.33333 18.3333 9.26698 18.3333 10.4167C18.3333 11.5664 17.7109 12.5 16.9444 12.5C16.7901 12.5 16.6667 12.3148 16.6667 12.0833Z" stroke="#080A52" stroke-width="1.25" stroke-miterlimit="10" stroke-linecap="round" stroke-linejoin="round"/>
<path d="M3.33334 12.0833L3.33334 8.75C3.33334 8.51852 3.20993 8.33333 3.05561 8.33333C2.28914 8.33333 1.66668 9.26698 1.66668 10.4167C1.66668 11.5664 2.28914 12.5 3.05561 12.5C3.20993 12.5 3.33334 12.3148 3.33334 12.0833Z" stroke="#080A52" stroke-width="1.25" stroke-miterlimit="10" stroke-linecap="round" stroke-linejoin="round"/>
<path d="M7.5 11.667C7.92079 12.6481 8.8818 13.3337 10 13.3337C11.1182 13.3337 12.0792 12.6481 12.5 11.667" stroke="#080A52" stroke-width="1.25" stroke-miterlimit="10" stroke-linecap="round" stroke-linejoin="round"/>
</svg>
