<svg width="96" height="96" viewBox="0 0 96 96" fill="none" xmlns="http://www.w3.org/2000/svg">
<path d="M48 96C74.5097 96 96 74.5097 96 48C96 21.4903 74.5097 0 48 0C21.4903 0 0 21.4903 0 48C0 74.5097 21.4903 96 48 96Z" fill="#E6E7EE"/>
<path d="M48 57C52.9706 57 57 52.9706 57 48C57 43.0294 52.9706 39 48 39C43.0294 39 39 43.0294 39 48C39 52.9706 43.0294 57 48 57Z" stroke="#B2B3CB" stroke-width="2" stroke-linecap="round" stroke-dasharray="4 4"/>
<path d="M48 52C50.2091 52 52 50.2091 52 48C52 45.7909 50.2091 44 48 44C45.7909 44 44 45.7909 44 48C44 50.2091 45.7909 52 48 52Z" fill="white" stroke="#080A52" stroke-width="2" stroke-linecap="round"/>
<path d="M48 38V36" stroke="#B2B3CB" stroke-width="2" stroke-linecap="round"/>
<path d="M48 60V58" stroke="#B2B3CB" stroke-width="2" stroke-linecap="round"/>
<path d="M60 48H58" stroke="#B2B3CB" stroke-width="2" stroke-linecap="round"/>
<path d="M38 48H36" stroke="#B2B3CB" stroke-width="2" stroke-linecap="round"/>
<path d="M32 32C34.2091 32 36 30.2091 36 28C36 25.7909 34.2091 24 32 24C29.7909 24 28 25.7909 28 28C28 30.2091 29.7909 32 32 32Z" fill="#080A52" stroke="#080A52" stroke-width="1.5" stroke-linecap="round" stroke-linejoin="round"/>
<path d="M64 72C66.2091 72 68 70.2091 68 68C68 65.7909 66.2091 64 64 64C61.7909 64 60 65.7909 60 68C60 70.2091 61.7909 72 64 72Z" fill="#080A52" stroke="#080A52" stroke-width="1.5" stroke-linecap="round" stroke-linejoin="round"/>
</svg>
