<svg width="24" height="24" viewBox="0 0 24 24" fill="none" xmlns="http://www.w3.org/2000/svg">
<path d="M4 14.111V10.7777C4 6.47775 7.57714 3 12 3C16.4229 3 20 6.47775 20 10.7777V14.111C20 18.5556 17.7143 23 12 23" stroke="#636363" stroke-width="1.5" stroke-linecap="round" stroke-linejoin="round"/>
<path d="M20 14.5V10.5C20 10.2222 20.1481 10 20.3333 10C21.253 10 22 11.1204 22 12.5C22 13.8796 21.253 15 20.3333 15C20.1481 15 20 14.7778 20 14.5Z" stroke="#636363" stroke-width="1.5" stroke-miterlimit="10" stroke-linecap="round" stroke-linejoin="round"/>
<path d="M4 14.5L4 10.5C4 10.2222 3.8519 10 3.66672 10C2.74696 10 2 11.1204 2 12.5C2 13.8796 2.74696 15 3.66672 15C3.8519 15 4 14.7778 4 14.5Z" stroke="#636363" stroke-width="1.5" stroke-miterlimit="10" stroke-linecap="round" stroke-linejoin="round"/>
<path d="M9 14C9.50495 15.1773 10.6582 16 12 16C13.3418 16 14.495 15.1773 15 14" stroke="#636363" stroke-width="1.5" stroke-miterlimit="10" stroke-linecap="round" stroke-linejoin="round"/>
</svg>
