<svg width="37" height="36" viewBox="0 0 37 36" fill="none" xmlns="http://www.w3.org/2000/svg">
<path d="M0.666748 18C0.666748 8.05888 8.72562 0 18.6667 0C28.6079 0 36.6667 8.05888 36.6667 18C36.6667 27.9411 28.6079 36 18.6667 36C8.72562 36 0.666748 27.9411 0.666748 18Z" fill="#E6F7F2"/>
<path d="M27.0002 18.0003C27.0002 22.6003 23.2668 26.3337 18.6668 26.3337C14.0668 26.3337 10.3335 22.6003 10.3335 18.0003C10.3335 13.4003 14.0668 9.66699 18.6668 9.66699C23.2668 9.66699 27.0002 13.4003 27.0002 18.0003Z" stroke="#00AB7A" stroke-width="1.5" stroke-linecap="round" stroke-linejoin="round"/>
<path d="M21.7584 20.6505L19.1751 19.1088C18.7251 18.8421 18.3584 18.2005 18.3584 17.6755V14.2588" stroke="#00AB7A" stroke-width="1.5" stroke-linecap="round" stroke-linejoin="round"/>
</svg>
