<svg width="36" height="36" viewBox="0 0 36 36" fill="none" xmlns="http://www.w3.org/2000/svg">
<path d="M0 18C0 8.05887 8.05887 0 18 0V0C27.9411 0 36 8.05887 36 18V18C36 27.9411 27.9411 36 18 36V36C8.05887 36 0 27.9411 0 18V18Z" fill="#F2CDFF"/>
<path d="M14.6666 26.3333H21.3333C24.6833 26.3333 25.2833 24.9917 25.4583 23.3583L26.0833 16.6917C26.3083 14.6583 25.7249 13 22.1666 13H13.8333C10.2749 13 9.6916 14.6583 9.9166 16.6917L10.5416 23.3583C10.7166 24.9917 11.3166 26.3333 14.6666 26.3333Z" stroke="#D14EFF" stroke-width="1.5" stroke-miterlimit="10" stroke-linecap="round" stroke-linejoin="round"/>
<path d="M14.6667 13.0003V12.3337C14.6667 10.8587 14.6667 9.66699 17.3334 9.66699H18.6667C21.3334 9.66699 21.3334 10.8587 21.3334 12.3337V13.0003" stroke="#D14EFF" stroke-width="1.5" stroke-miterlimit="10" stroke-linecap="round" stroke-linejoin="round"/>
<path d="M19.6666 18.8333V19.6667C19.6666 19.675 19.6666 19.675 19.6666 19.6833C19.6666 20.5917 19.6583 21.3333 17.9999 21.3333C16.3499 21.3333 16.3333 20.6 16.3333 19.6917V18.8333C16.3333 18 16.3333 18 17.1666 18H18.8333C19.6666 18 19.6666 18 19.6666 18.8333Z" stroke="#D14EFF" stroke-width="1.5" stroke-miterlimit="10" stroke-linecap="round" stroke-linejoin="round"/>
<path d="M26.0417 17.167C24.1167 18.567 21.9167 19.4003 19.6667 19.6837" stroke="#D14EFF" stroke-width="1.5" stroke-miterlimit="10" stroke-linecap="round" stroke-linejoin="round"/>
<path d="M10.1833 17.3916C12.0583 18.6749 14.175 19.4499 16.3333 19.6916" stroke="#D14EFF" stroke-width="1.5" stroke-miterlimit="10" stroke-linecap="round" stroke-linejoin="round"/>
</svg>
