<svg width="84" height="84" viewBox="0 0 84 84" fill="none" xmlns="http://www.w3.org/2000/svg">
<rect x="0.6" y="0.6" width="82.8" height="82.8" rx="11.4" fill="white"/>
<path d="M35.2048 46.6568V42.8552H31.7104V41.0504H35.2048V37.2488H37.144V41.0504H40.6576V42.8552H37.144V46.6568H35.2048ZM41.638 48.5V48.0392L46.822 42.5672C48.2172 41.0952 48.9148 39.796 48.9148 38.6696C48.9148 38.0168 48.7356 37.5048 48.3772 37.1336C48.0188 36.7624 47.5132 36.5768 46.8604 36.5768C45.4396 36.5768 44.6204 37.4856 44.4028 39.3032H42.0604C42.15 37.8056 42.6236 36.6472 43.4812 35.828C44.3388 34.996 45.4908 34.58 46.9372 34.58C48.3452 34.58 49.4524 34.9512 50.2588 35.6936C51.0652 36.4232 51.4684 37.4024 51.4684 38.6312C51.4684 40.18 50.5724 41.8184 48.7804 43.5464L45.7276 46.5224H51.5644V48.5H41.638Z" fill="#1A1A1A"/>
<rect x="0.6" y="0.6" width="82.8" height="82.8" rx="11.4" stroke="#E8E8E8" stroke-width="1.2"/>
</svg>
