<svg width="96" height="99" viewBox="0 0 96 99" fill="none" xmlns="http://www.w3.org/2000/svg">
<path d="M48 96.5C74.5097 96.5 96 75.0097 96 48.5C96 21.9903 74.5097 0.5 48 0.5C21.4903 0.5 0 21.9903 0 48.5C0 75.0097 21.4903 96.5 48 96.5Z" fill="#E6E7EE"/>
<g filter="url(#filter0_d_9512_128676)">
<rect x="19.5" y="29.375" width="57" height="67.5" rx="7.20176" fill="white"/>
</g>
<path d="M27 47.875C26.4477 47.875 26 48.3227 26 48.875C26 49.4273 26.4477 49.875 27 49.875V47.875ZM55.5 49.875C56.0523 49.875 56.5 49.4273 56.5 48.875C56.5 48.3227 56.0523 47.875 55.5 47.875V49.875ZM27 49.875H55.5V47.875H27V49.875Z" fill="#E6E7EE"/>
<path d="M27 38.875C26.4477 38.875 26 39.3227 26 39.875C26 40.4273 26.4477 40.875 27 40.875V38.875ZM41.25 40.875C41.8023 40.875 42.25 40.4273 42.25 39.875C42.25 39.3227 41.8023 38.875 41.25 38.875V40.875ZM27 40.875H41.25V38.875H27V40.875Z" fill="#B2B3CB"/>
<path d="M27 67.375C26.4477 67.375 26 67.8227 26 68.375C26 68.9273 26.4477 69.375 27 69.375V67.375ZM55.5 69.375C56.0523 69.375 56.5 68.9273 56.5 68.375C56.5 67.8227 56.0523 67.375 55.5 67.375V69.375ZM27 69.375H55.5V67.375H27V69.375Z" fill="#E6E7EE"/>
<path d="M27 58.375C26.4477 58.375 26 58.8227 26 59.375C26 59.9273 26.4477 60.375 27 60.375V58.375ZM41.25 60.375C41.8023 60.375 42.25 59.9273 42.25 59.375C42.25 58.8227 41.8023 58.375 41.25 58.375V60.375ZM27 60.375H41.25V58.375H27V60.375Z" fill="#B2B3CB"/>
<path d="M27 86.875C26.4477 86.875 26 87.3227 26 87.875C26 88.4273 26.4477 88.875 27 88.875V86.875ZM55.5 88.875C56.0523 88.875 56.5 88.4273 56.5 87.875C56.5 87.3227 56.0523 86.875 55.5 86.875V88.875ZM27 88.875H55.5V86.875H27V88.875Z" fill="#E6E7EE"/>
<path d="M27 77.875C26.4477 77.875 26 78.3227 26 78.875C26 79.4273 26.4477 79.875 27 79.875V77.875ZM41.25 79.875C41.8023 79.875 42.25 79.4273 42.25 78.875C42.25 78.3227 41.8023 77.875 41.25 77.875V79.875ZM27 79.875H41.25V77.875H27V79.875Z" fill="#B2B3CB"/>
<defs>
<filter id="filter0_d_9512_128676" x="18.2997" y="28.7749" width="59.4006" height="69.9006" filterUnits="userSpaceOnUse" color-interpolation-filters="sRGB">
<feFlood flood-opacity="0" result="BackgroundImageFix"/>
<feColorMatrix in="SourceAlpha" type="matrix" values="0 0 0 0 0 0 0 0 0 0 0 0 0 0 0 0 0 0 127 0" result="hardAlpha"/>
<feOffset dy="0.600147"/>
<feGaussianBlur stdDeviation="0.600147"/>
<feColorMatrix type="matrix" values="0 0 0 0 0.101961 0 0 0 0 0.101961 0 0 0 0 0.101961 0 0 0 0.04 0"/>
<feBlend mode="normal" in2="BackgroundImageFix" result="effect1_dropShadow_9512_128676"/>
<feBlend mode="normal" in="SourceGraphic" in2="effect1_dropShadow_9512_128676" result="shape"/>
</filter>
</defs>
</svg>
