<svg width="96" height="100" viewBox="0 0 96 100" fill="none" xmlns="http://www.w3.org/2000/svg">
<path d="M48 96C74.5097 96 96 74.5097 96 48C96 21.4903 74.5097 0 48 0C21.4903 0 0 21.4903 0 48C0 74.5097 21.4903 96 48 96Z" fill="#E6E7EE"/>
<g filter="url(#filter0_d_9853_127496)">
<rect x="20" y="50" width="56" height="46" rx="6" fill="white"/>
</g>
<path d="M30 67C29.4477 67 29 67.4477 29 68C29 68.5523 29.4477 69 30 69V67ZM62 69C62.5523 69 63 68.5523 63 68C63 67.4477 62.5523 67 62 67V69ZM30 69H62V67H30V69Z" fill="#E6E7EE"/>
<path d="M30 59C29.4477 59 29 59.4477 29 60C29 60.5523 29.4477 61 30 61V59ZM44 61C44.5523 61 45 60.5523 45 60C45 59.4477 44.5523 59 44 59V61ZM30 61H44V59H30V61Z" fill="#B2B3CB"/>
<path d="M30 85C29.4477 85 29 85.4477 29 86C29 86.5523 29.4477 87 30 87V85ZM62 87C62.5523 87 63 86.5523 63 86C63 85.4477 62.5523 85 62 85V87ZM30 87H62V85H30V87Z" fill="#E6E7EE"/>
<path d="M30 77C29.4477 77 29 77.4477 29 78C29 78.5523 29.4477 79 30 79V77ZM44 79C44.5523 79 45 78.5523 45 78C45 77.4477 44.5523 77 44 77V79ZM30 79H44V77H30V79Z" fill="#B2B3CB"/>
<g filter="url(#filter1_d_9853_127496)">
<rect x="20" y="14" width="56" height="28" rx="6" fill="#080A52"/>
</g>
<path d="M52.4446 25.8701H43.5557" stroke="white" stroke-width="2" stroke-miterlimit="10" stroke-linecap="round" stroke-linejoin="round"/>
<path d="M43.5557 21.1665C43.0034 21.1665 42.5557 21.6142 42.5557 22.1665C42.5557 22.7188 43.0034 23.1665 43.5557 23.1665V21.1665ZM48.3713 36.1725C48.7428 36.5812 49.3752 36.6113 49.7839 36.2398C50.1926 35.8683 50.2227 35.2358 49.8512 34.8272L48.3713 36.1725ZM52.4446 23.1665C52.9968 23.1665 53.4446 22.7188 53.4446 22.1665C53.4446 21.6142 52.9968 21.1665 52.4446 21.1665V23.1665ZM43.7817 29.3845L43.7442 28.3852L43.7817 29.3845ZM43.7077 29.556L42.9678 30.2287L43.7077 29.556ZM47.0001 26.0554C47.0001 26.5748 46.7307 27.1162 46.1539 27.5697C45.5757 28.0243 44.7299 28.3482 43.7442 28.3852L43.8192 30.3838C45.1831 30.3325 46.4464 29.8839 47.3901 29.142C48.335 28.399 49.0001 27.3201 49.0001 26.0554H47.0001ZM43.5557 23.1665C44.5025 23.1665 45.3781 23.563 46.0202 24.1555C46.6757 24.7604 47.0001 25.4826 47.0001 26.0554H49.0001C49.0001 24.7873 48.3295 23.565 47.3765 22.6856C46.4101 21.794 45.0634 21.1665 43.5557 21.1665V23.1665ZM42.9678 30.2287L48.3713 36.1725L49.8512 34.8272L44.4477 28.8833L42.9678 30.2287ZM43.5557 23.1665H52.4446V21.1665H43.5557V23.1665ZM43.7442 28.3852C42.845 28.419 42.3123 29.5076 42.9678 30.2287L44.4477 28.8833C44.9863 29.4759 44.5449 30.3565 43.8192 30.3838L43.7442 28.3852Z" fill="white"/>
<defs>
<filter id="filter0_d_9853_127496" x="16" y="46" width="64" height="54" filterUnits="userSpaceOnUse" color-interpolation-filters="sRGB">
<feFlood flood-opacity="0" result="BackgroundImageFix"/>
<feColorMatrix in="SourceAlpha" type="matrix" values="0 0 0 0 0 0 0 0 0 0 0 0 0 0 0 0 0 0 127 0" result="hardAlpha"/>
<feOffset/>
<feGaussianBlur stdDeviation="2"/>
<feColorMatrix type="matrix" values="0 0 0 0 0.101961 0 0 0 0 0.101961 0 0 0 0 0.101961 0 0 0 0.08 0"/>
<feBlend mode="normal" in2="BackgroundImageFix" result="effect1_dropShadow_9853_127496"/>
<feBlend mode="normal" in="SourceGraphic" in2="effect1_dropShadow_9853_127496" result="shape"/>
</filter>
<filter id="filter1_d_9853_127496" x="16" y="10" width="64" height="36" filterUnits="userSpaceOnUse" color-interpolation-filters="sRGB">
<feFlood flood-opacity="0" result="BackgroundImageFix"/>
<feColorMatrix in="SourceAlpha" type="matrix" values="0 0 0 0 0 0 0 0 0 0 0 0 0 0 0 0 0 0 127 0" result="hardAlpha"/>
<feOffset/>
<feGaussianBlur stdDeviation="2"/>
<feColorMatrix type="matrix" values="0 0 0 0 0.101961 0 0 0 0 0.101961 0 0 0 0 0.101961 0 0 0 0.08 0"/>
<feBlend mode="normal" in2="BackgroundImageFix" result="effect1_dropShadow_9853_127496"/>
<feBlend mode="normal" in="SourceGraphic" in2="effect1_dropShadow_9853_127496" result="shape"/>
</filter>
</defs>
</svg>
