<svg width="96" height="96" viewBox="0 0 96 96" fill="none" xmlns="http://www.w3.org/2000/svg">
<path d="M48 96C74.5097 96 96 74.5097 96 48C96 21.4903 74.5097 0 48 0C21.4903 0 0 21.4903 0 48C0 74.5097 21.4903 96 48 96Z" fill="#E6E7EE"/>
<g filter="url(#filter0_d_9723_128570)">
<path d="M33.5261 73.348C34.3755 73.348 35.0475 73.0493 35.5421 72.452C36.0368 71.8453 36.2841 71.038 36.2841 70.03V69.918C36.2841 68.9287 36.0368 68.1353 35.5421 67.538C35.0475 66.9407 34.3661 66.642 33.4981 66.642C32.6301 66.642 31.9488 66.9407 31.4541 67.538C30.9595 68.126 30.7121 68.924 30.7121 69.932V70.044C30.7121 71.052 30.9735 71.8547 31.4961 72.452C32.0188 73.0493 32.6955 73.348 33.5261 73.348ZM37.2221 73.712C36.2795 74.6733 35.0335 75.154 33.4841 75.154C31.9348 75.154 30.6888 74.678 29.7461 73.726C28.8128 72.7647 28.3461 71.542 28.3461 70.058V69.946C28.3461 68.462 28.8315 67.244 29.8021 66.292C30.7728 65.3307 32.0048 64.85 33.4981 64.85C35.0101 64.85 36.2468 65.3167 37.2081 66.25C38.1695 67.1833 38.6501 68.3967 38.6501 69.89V70.002C38.6501 71.5047 38.1741 72.7413 37.2221 73.712ZM42.1978 73.026C42.5152 73.418 42.9585 73.614 43.5278 73.614C44.0972 73.614 44.5358 73.418 44.8438 73.026C45.1612 72.634 45.3198 72.088 45.3198 71.388V71.29C45.3198 70.59 45.1612 70.044 44.8438 69.652C44.5358 69.2507 44.0972 69.05 43.5278 69.05C42.9678 69.05 42.5292 69.246 42.2118 69.638C41.8945 70.0207 41.7358 70.562 41.7358 71.262V71.374C41.7358 72.074 41.8898 72.6247 42.1978 73.026ZM43.5138 75.154C42.4032 75.154 41.4838 74.8133 40.7558 74.132C40.0278 73.4413 39.6638 72.536 39.6638 71.416V71.304C39.6638 70.1747 40.0278 69.26 40.7558 68.56C41.4838 67.86 42.4078 67.51 43.5278 67.51C44.6478 67.51 45.5672 67.8553 46.2858 68.546C47.0138 69.2273 47.3778 70.1327 47.3778 71.262V71.374C47.3778 72.5127 47.0138 73.4273 46.2858 74.118C45.5578 74.8087 44.6338 75.154 43.5138 75.154ZM48.7388 77.492V67.678H50.7688V68.826C50.9834 68.4527 51.2961 68.14 51.7068 67.888C52.1268 67.636 52.5934 67.51 53.1068 67.51C54.0401 67.51 54.8054 67.8413 55.4028 68.504C56.0001 69.1667 56.2988 70.086 56.2988 71.262V71.374C56.2988 72.55 56.0001 73.474 55.4028 74.146C54.8054 74.818 54.0401 75.154 53.1068 75.154C52.5654 75.154 52.0894 75.0373 51.6788 74.804C51.2681 74.5613 50.9648 74.2533 50.7688 73.88V77.492H48.7388ZM52.5048 73.572C53.0648 73.572 53.4941 73.3853 53.7928 73.012C54.0914 72.6387 54.2408 72.0973 54.2408 71.388V71.276C54.2408 70.5573 54.0821 70.0113 53.7648 69.638C53.4474 69.2553 53.0228 69.064 52.4908 69.064C51.9401 69.064 51.5014 69.2553 51.1748 69.638C50.8574 70.0113 50.6988 70.5573 50.6988 71.276V71.388C50.6988 72.1067 50.8574 72.6527 51.1748 73.026C51.4921 73.39 51.9354 73.572 52.5048 73.572ZM60.3128 75.154C59.3235 75.154 58.5535 74.944 58.0028 74.524C57.4522 74.104 57.1582 73.4973 57.1208 72.704H59.0108C59.0575 73.0493 59.1788 73.3107 59.3748 73.488C59.5708 73.656 59.8788 73.74 60.2988 73.74C61.0642 73.74 61.4468 73.474 61.4468 72.942C61.4468 72.6993 61.3348 72.5127 61.1108 72.382C60.8868 72.2513 60.5042 72.1487 59.9628 72.074C58.9735 71.9247 58.2735 71.682 57.8628 71.346C57.4615 71.01 57.2608 70.492 57.2608 69.792C57.2608 69.064 57.5408 68.504 58.1008 68.112C58.6702 67.7107 59.3562 67.51 60.1588 67.51C62.0068 67.51 63.0148 68.266 63.1828 69.778H61.3208C61.2088 69.19 60.8262 68.896 60.1728 68.896C59.8462 68.896 59.5895 68.966 59.4028 69.106C59.2255 69.246 59.1368 69.428 59.1368 69.652C59.1368 69.8853 59.2348 70.058 59.4308 70.17C59.6362 70.282 60.0095 70.3753 60.5508 70.45C61.5402 70.59 62.2588 70.8233 62.7068 71.15C63.1642 71.4767 63.3928 72.0087 63.3928 72.746C63.3928 73.53 63.1222 74.1273 62.5808 74.538C62.0488 74.9487 61.2928 75.154 60.3128 75.154ZM66.8922 74.776C66.6495 75.0093 66.3508 75.126 65.9962 75.126C65.6415 75.126 65.3382 75.0093 65.0862 74.776C64.8435 74.5427 64.7222 74.258 64.7222 73.922C64.7222 73.5767 64.8435 73.2873 65.0862 73.054C65.3382 72.8207 65.6415 72.704 65.9962 72.704C66.3508 72.704 66.6495 72.8207 66.8922 73.054C67.1442 73.2873 67.2702 73.5767 67.2702 73.922C67.2702 74.258 67.1442 74.5427 66.8922 74.776ZM65.1842 71.878L64.8762 64.99H67.1442L66.8362 71.878H65.1842Z" fill="#080A52"/>
</g>
<g filter="url(#filter1_d_9723_128570)">
<g filter="url(#filter2_d_9723_128570)">
<path d="M47.9999 54.0001C57.9411 54.0001 65.9999 45.9413 65.9999 36.0001C65.9999 26.059 57.9411 18.0001 47.9999 18.0001C38.0588 18.0001 29.9999 26.059 29.9999 36.0001C29.9999 45.9413 38.0588 54.0001 47.9999 54.0001Z" fill="white"/>
</g>
<path d="M42 44.9999C43.0099 43.8226 45.3163 42.9999 48 42.9999C50.6837 42.9999 52.9901 43.8226 54 44.9999" stroke="#B2B3CB" stroke-width="2" stroke-linecap="round"/>
<circle cx="41.5518" cy="34.5709" r="2.50958" fill="#E6E7EE"/>
<circle cx="53.5977" cy="34.5709" r="2.50958" fill="#E6E7EE"/>
<path d="M57.1111 29.0498L51.0881 30.0536" stroke="#B2B3CB" stroke-width="2" stroke-linecap="round"/>
<path d="M39.0421 29.0498L45.0651 30.0536" stroke="#B2B3CB" stroke-width="2" stroke-linecap="round"/>
</g>
<defs>
<filter id="filter0_d_9723_128570" x="27.1458" y="64.2498" width="41.3247" height="15.0426" filterUnits="userSpaceOnUse" color-interpolation-filters="sRGB">
<feFlood flood-opacity="0" result="BackgroundImageFix"/>
<feColorMatrix in="SourceAlpha" type="matrix" values="0 0 0 0 0 0 0 0 0 0 0 0 0 0 0 0 0 0 127 0" result="hardAlpha"/>
<feOffset dy="0.600147"/>
<feGaussianBlur stdDeviation="0.600147"/>
<feColorMatrix type="matrix" values="0 0 0 0 0.101961 0 0 0 0 0.101961 0 0 0 0 0.101961 0 0 0 0.04 0"/>
<feBlend mode="normal" in2="BackgroundImageFix" result="effect1_dropShadow_9723_128570"/>
<feBlend mode="normal" in="SourceGraphic" in2="effect1_dropShadow_9723_128570" result="shape"/>
</filter>
<filter id="filter1_d_9723_128570" x="26" y="15" width="44" height="44" filterUnits="userSpaceOnUse" color-interpolation-filters="sRGB">
<feFlood flood-opacity="0" result="BackgroundImageFix"/>
<feColorMatrix in="SourceAlpha" type="matrix" values="0 0 0 0 0 0 0 0 0 0 0 0 0 0 0 0 0 0 127 0" result="hardAlpha"/>
<feOffset dy="1"/>
<feGaussianBlur stdDeviation="1"/>
<feColorMatrix type="matrix" values="0 0 0 0 0.101961 0 0 0 0 0.101961 0 0 0 0 0.101961 0 0 0 0.04 0"/>
<feBlend mode="normal" in2="BackgroundImageFix" result="effect1_dropShadow_9723_128570"/>
<feBlend mode="normal" in="SourceGraphic" in2="effect1_dropShadow_9723_128570" result="shape"/>
</filter>
<filter id="filter2_d_9723_128570" x="28.7996" y="17.4" width="38.4006" height="38.4006" filterUnits="userSpaceOnUse" color-interpolation-filters="sRGB">
<feFlood flood-opacity="0" result="BackgroundImageFix"/>
<feColorMatrix in="SourceAlpha" type="matrix" values="0 0 0 0 0 0 0 0 0 0 0 0 0 0 0 0 0 0 127 0" result="hardAlpha"/>
<feOffset dy="0.600147"/>
<feGaussianBlur stdDeviation="0.600147"/>
<feColorMatrix type="matrix" values="0 0 0 0 0.101961 0 0 0 0 0.101961 0 0 0 0 0.101961 0 0 0 0.04 0"/>
<feBlend mode="normal" in2="BackgroundImageFix" result="effect1_dropShadow_9723_128570"/>
<feBlend mode="normal" in="SourceGraphic" in2="effect1_dropShadow_9723_128570" result="shape"/>
</filter>
</defs>
</svg>
