<svg width="37" height="36" viewBox="0 0 37 36" fill="none" xmlns="http://www.w3.org/2000/svg">
<path d="M0.333496 18C0.333496 8.05888 8.39237 0 18.3335 0C28.2746 0 36.3335 8.05888 36.3335 18C36.3335 27.9411 28.2746 36 18.3335 36C8.39237 36 0.333496 27.9411 0.333496 18Z" fill="#FFF2E6"/>
<path d="M18.3335 27C23.3041 27 27.3335 22.9706 27.3335 18C27.3335 13.0294 23.3041 9 18.3335 9C13.3629 9 9.3335 13.0294 9.3335 18C9.3335 22.9706 13.3629 27 18.3335 27Z" stroke="#F28500" stroke-width="1.5" stroke-linecap="round" stroke-linejoin="round"/>
<path d="M14.3335 20C15.0068 21.4716 16.5444 22.5 18.3335 22.5C20.1226 22.5 21.6602 21.4716 22.3335 20" stroke="#F28500" stroke-width="1.5" stroke-miterlimit="10" stroke-linecap="round" stroke-linejoin="round"/>
<circle cx="15.0835" cy="16.25" r="1.25" fill="#F28500"/>
<circle cx="21.5835" cy="16.25" r="1.25" fill="#F28500"/>
</svg>
