<svg width="260" height="258" viewBox="0 0 260 258" fill="none" xmlns="http://www.w3.org/2000/svg">
<g clip-path="url(#clip0_12512_188727)">
<path d="M229.428 61.5004C230.556 60.817 231.757 60.2988 232.999 59.9514L233.734 56.4204L239.702 56.3179L240.562 59.8204C241.815 60.1279 243.034 60.6006 244.184 61.2442L247.203 59.268L251.497 63.414L249.629 66.4951C250.312 67.6227 250.83 68.8244 251.178 70.0659L254.709 70.8006L254.811 76.7691L251.309 77.6291C251.001 78.882 250.528 80.1008 249.885 81.2512L251.861 84.2696L247.715 88.5637L244.628 86.6957C243.501 87.3791 242.299 87.8974 241.057 88.2448L240.323 91.7758L234.354 91.8783L233.494 88.3758C232.241 88.0683 231.023 87.5899 229.872 86.952L226.854 88.9282L222.56 84.7822L224.428 81.6954C223.744 80.5678 223.226 79.3661 222.879 78.1245L219.348 77.3899L219.245 71.4214L222.748 70.5614C223.055 69.3085 223.534 68.0897 224.171 66.9393L222.195 63.9209L226.341 59.6267L229.428 61.4947V61.5004ZM232.612 69.4509C230.157 71.9966 230.225 76.0515 232.771 78.5061C235.317 80.9607 239.372 80.8924 241.826 78.3467C244.281 75.8009 244.213 71.746 241.667 69.2914C239.121 66.8368 235.066 66.9051 232.612 69.4509Z" fill="#F6F6F6"/>
<path d="M23.0822 119.979C24.4433 119.159 25.8899 118.532 27.3877 118.111L28.2761 113.851L35.4748 113.726L36.5113 117.951C38.0205 118.322 39.4899 118.897 40.8795 119.671L44.5187 117.285L49.6955 122.285L47.4403 126.004C48.2604 127.365 48.8868 128.812 49.3083 130.31L53.5682 131.198L53.6935 138.397L49.4677 139.433C49.0976 140.943 48.5223 142.412 47.7478 143.802L50.1341 147.441L45.1337 152.618L41.4148 150.362C40.0537 151.182 38.6071 151.809 37.1093 152.23L36.2209 156.49L29.0222 156.616L27.9857 152.39C26.4765 152.02 25.0071 151.444 23.6175 150.67L19.9783 153.056L14.8015 148.056L17.0567 144.337C16.2366 142.976 15.6102 141.529 15.1887 140.031L10.9288 139.143L10.8035 131.944L15.0293 130.908C15.3994 129.399 15.9746 127.929 16.7492 126.54L14.3629 122.9L19.3633 117.724L23.0822 119.979ZM26.9207 129.569C23.9592 132.639 24.0447 137.526 27.1143 140.487C30.184 143.449 35.0704 143.363 38.0319 140.293C40.9934 137.224 40.908 132.337 37.8383 129.376C34.7686 126.414 29.8822 126.5 26.9207 129.569Z" fill="#F6F6F6"/>
<path d="M70.6122 14.2078L4.33643 26.1924L13.8514 78.8106L80.1272 66.826L70.6122 14.2078Z" fill="white"/>
<path d="M70.6166 14.2131L4.34082 26.1978L6.83078 39.9674L73.1066 27.9828L70.6166 14.2131Z" fill="#F6F6F6"/>
<path d="M21.2993 49.5243C21.2993 49.5243 21.2253 49.2681 21.1284 48.8124C21.0259 48.3056 20.8892 47.662 20.7298 46.8761C20.3938 45.2188 19.9325 42.8781 19.4085 40.0818L19.6192 40.2299C16.8514 40.7367 13.6052 41.3347 10.1482 41.9726C10.1084 42.0238 10.4671 41.5113 10.3191 41.7277V41.7676L10.3305 41.8074L10.3475 41.8872L10.376 42.0466L10.433 42.3712L10.5469 43.0148C10.6209 43.4419 10.7006 43.8634 10.7747 44.2848C10.9228 45.122 11.0708 45.9364 11.2132 46.7337C11.4923 48.3227 11.7599 49.8262 11.9991 51.2101L11.7884 51.062C14.5961 50.5722 16.9482 50.1907 18.6169 49.923C19.4142 49.7977 20.0634 49.6952 20.5703 49.6155C21.0259 49.5471 21.2822 49.513 21.2936 49.5243C21.3107 49.5357 21.0886 49.587 20.6557 49.6838C20.1603 49.7863 19.5281 49.9173 18.7593 50.0768C17.1134 50.4071 14.7271 50.8798 11.8454 51.4208L11.6688 51.455L11.6346 51.2727C11.3784 49.8888 11.0993 48.391 10.8032 46.8078C10.6551 46.0104 10.507 45.196 10.3532 44.3589C10.2792 43.9431 10.1995 43.516 10.1254 43.0945L10.0115 42.451L9.95458 42.1264L9.92611 41.9669L9.90902 41.8872V41.8473L9.89763 41.8245V41.8131C9.74386 42.0238 10.1027 41.5056 10.0685 41.5568C13.5311 40.9418 16.7774 40.3666 19.5509 39.8711L19.7331 39.8369L19.7616 40.0135C20.2628 42.9009 20.6557 45.2985 20.9234 46.9558C21.043 47.7361 21.1455 48.3682 21.2196 48.8694C21.2822 49.3079 21.3107 49.53 21.2936 49.5186L21.2993 49.5243Z" fill="#F6F6F6"/>
<path d="M33.7036 47.2807C33.7036 47.2807 33.6296 47.0244 33.5327 46.5688C33.4302 46.0619 33.2935 45.4184 33.1341 44.6325C32.7981 42.9752 32.3368 40.6345 31.8128 37.8382L32.0235 37.9862L22.5525 39.7289C22.5126 39.7802 22.8714 39.2676 22.7234 39.484V39.5239L22.7348 39.5638L22.7518 39.6435L22.7803 39.803L22.8373 40.1276L22.9512 40.7711C23.0252 41.1983 23.1049 41.6197 23.179 42.0412C23.3271 42.8784 23.4751 43.6928 23.6175 44.4901C23.8966 46.079 24.1642 47.5825 24.4034 48.9664L24.1927 48.8184C27.0004 48.3286 29.3525 47.947 31.0212 47.6793C31.8185 47.5541 32.4677 47.4515 32.9746 47.3718C33.4302 47.3035 33.6865 47.2693 33.6979 47.2807C33.715 47.2921 33.4929 47.3433 33.06 47.4402C32.5646 47.5427 31.9324 47.6737 31.1636 47.8331C29.5177 48.1634 27.1314 48.6361 24.2497 49.1772L24.0731 49.2113L24.0389 49.0291C23.7827 47.6452 23.5036 46.1474 23.2075 44.5641C23.0594 43.7668 22.9113 42.9524 22.7575 42.1152C22.6835 41.6995 22.6038 41.2723 22.5297 40.8509L22.4158 40.2073L22.3589 39.8827L22.3304 39.7232L22.3133 39.6435V39.6036L22.3019 39.5809V39.5695C22.1482 39.7802 22.507 39.2619 22.4728 39.3132C25.9354 38.6981 29.1817 38.1229 31.9552 37.6274L32.1374 37.5933L32.1659 37.7698C32.6671 40.6572 33.06 43.0549 33.3277 44.7122C33.4473 45.4924 33.5498 46.1246 33.6239 46.6257C33.6865 47.0643 33.715 47.2864 33.6979 47.275L33.7036 47.2807Z" fill="#F6F6F6"/>
<path d="M46.1074 45.0361C46.1074 45.0361 46.0334 44.7798 45.9365 44.3242C45.834 43.8173 45.6973 43.1738 45.5379 42.3878C45.2019 40.7305 44.7406 38.3898 44.2166 35.5935L44.4273 35.7416C41.6595 36.2485 38.4133 36.8465 34.9563 37.4843C34.9165 37.5356 35.2752 37.023 35.1272 37.2394V37.2793L35.1386 37.3192L35.1557 37.3989L35.1841 37.5583L35.2411 37.883L35.355 38.5265C35.429 38.9537 35.5088 39.3751 35.5828 39.7965C35.7309 40.6337 35.8789 41.4481 36.0213 42.2454C36.3004 43.8344 36.568 45.3379 36.8072 46.7218L36.5965 46.5737C39.4042 46.084 41.7563 45.7024 43.425 45.4347C44.2223 45.3094 44.8716 45.2069 45.3784 45.1272C45.834 45.0588 46.0903 45.0247 46.1017 45.0361C46.1188 45.0475 45.8967 45.0987 45.4638 45.1955C44.9684 45.298 44.3362 45.429 43.5674 45.5885C41.9215 45.9188 39.5352 46.3915 36.6535 46.9325L36.4769 46.9667L36.4428 46.7845C36.1865 45.4005 35.9074 43.9027 35.6113 42.3195C35.4632 41.5222 35.3151 40.7078 35.1613 39.8706C35.0873 39.4548 35.0076 39.0277 34.9335 38.6062L34.8196 37.9627L34.7627 37.6381L34.7342 37.4786L34.7171 37.3989V37.359L34.7057 37.3362V37.3248C34.552 37.5356 34.9108 37.0173 34.8766 37.0686C38.3392 36.4535 41.5855 35.8783 44.359 35.3828L44.5412 35.3486L44.5697 35.5252C45.0709 38.4126 45.4638 40.8103 45.7315 42.4676C45.8511 43.2478 45.9536 43.88 46.0277 44.3811C46.0903 44.8196 46.1188 45.0418 46.1017 45.0304L46.1074 45.0361Z" fill="#F6F6F6"/>
<path d="M58.5173 42.7924C58.5173 42.7924 58.4433 42.5361 58.3464 42.0805C58.2439 41.5736 58.1073 40.9301 57.9478 40.1442C57.6118 38.4869 57.1505 36.1462 56.6265 33.3499L56.8372 33.4979C54.0694 34.0048 50.8232 34.6028 47.3662 35.2407C47.3264 35.2919 47.6852 34.7794 47.5371 34.9958V35.0356L47.5485 35.0755L47.5656 35.1552L47.594 35.3147L47.651 35.6393L47.7649 36.2829C47.8389 36.71 47.9187 37.1314 47.9927 37.5529C48.1408 38.3901 48.2888 39.2045 48.4312 40.0018C48.7103 41.5907 48.978 43.0942 49.2171 44.4782L49.0064 44.3301C51.8141 43.8403 54.1662 43.4587 55.8349 43.1911C56.6322 43.0658 57.2815 42.9633 57.7883 42.8835C58.2439 42.8152 58.5002 42.781 58.5116 42.7924C58.5287 42.8038 58.3066 42.8551 57.8738 42.9519C57.3783 43.0544 56.7461 43.1854 55.9773 43.3448C54.3314 43.6752 51.9451 44.1478 49.0634 44.6889L48.8868 44.7231L48.8527 44.5408C48.5964 43.1569 48.3173 41.6591 48.0212 40.0758C47.8731 39.2785 47.725 38.4641 47.5713 37.6269C47.4972 37.2112 47.4175 36.784 47.3434 36.3626L47.2295 35.719L47.1726 35.3944L47.1441 35.235L47.127 35.1552V35.1154L47.1156 35.0926V35.0812C46.9619 35.2919 47.3207 34.7737 47.2865 34.8249C50.7491 34.2098 53.9954 33.6346 56.7689 33.1391L56.9511 33.105L56.9796 33.2815C57.4808 36.169 57.8738 38.5666 58.1414 40.2239C58.261 41.0041 58.3635 41.6363 58.4376 42.1375C58.5002 42.576 58.5287 42.7981 58.5116 42.7867L58.5173 42.7924Z" fill="#F6F6F6"/>
<path d="M70.9211 40.5492C70.9211 40.5492 70.8471 40.293 70.7503 39.8374C70.6478 39.3305 70.5111 38.6869 70.3516 37.901C70.0156 36.2437 69.5543 33.903 69.0303 31.1067L69.2411 31.2548C66.4732 31.7616 63.227 32.3596 59.77 32.9975C59.7302 33.0487 60.089 32.5362 59.9409 32.7526V32.7925L59.9523 32.8323L59.9694 32.9121L59.9978 33.0715L60.0548 33.3962L60.1687 34.0397C60.2427 34.4668 60.3225 34.8883 60.3965 35.3097C60.5446 36.1469 60.6927 36.9613 60.835 37.7586C61.1141 39.3476 61.3818 40.8511 61.621 42.235L61.4102 42.0869C64.2179 41.5971 66.57 41.2156 68.2387 40.9479C69.036 40.8226 69.6853 40.7201 70.1921 40.6404C70.6477 40.572 70.904 40.5379 70.9154 40.5492C70.9325 40.5606 70.7104 40.6119 70.2776 40.7087C69.7821 40.8112 69.1499 40.9422 68.3811 41.1017C66.7352 41.432 64.3489 41.9047 61.4672 42.4457L61.2906 42.4799L61.2565 42.2977C61.0002 40.9137 60.7211 39.4159 60.425 37.8327C60.2769 37.0353 60.1288 36.2209 59.9751 35.3838C59.901 34.968 59.8213 34.5409 59.7473 34.1194L59.6334 33.4759L59.5764 33.1513L59.5479 32.9918L59.5308 32.9121V32.8722L59.5195 32.8494V32.838C59.3657 33.0487 59.7245 32.5305 59.6903 32.5817C63.153 31.9667 66.3992 31.3915 69.1727 30.896L69.355 30.8618L69.3834 31.0384C69.8846 33.9258 70.2776 36.3235 70.5452 37.9807C70.6648 38.761 70.7673 39.3931 70.8414 39.8943C70.904 40.3328 70.9325 40.5549 70.9154 40.5435L70.9211 40.5492Z" fill="#F6F6F6"/>
<path d="M23.5034 61.7123C23.5034 61.7123 23.4294 61.456 23.3325 61.0004C23.23 60.4936 23.0933 59.85 22.9339 59.0641C22.5979 57.4068 22.1366 55.0661 21.6126 52.2698L21.8233 52.4179C19.0555 52.9247 15.8093 53.5227 12.3523 54.1606C12.3125 54.2118 12.6712 53.6993 12.5232 53.9157V53.9556L12.5346 53.9954L12.5516 54.0752L12.5801 54.2346L12.6371 54.5592L12.751 55.2028C12.825 55.6299 12.9047 56.0514 12.9788 56.4728C13.1269 57.31 13.2749 58.1244 13.4173 58.9217C13.6964 60.5107 13.964 62.0142 14.2032 63.3981L13.9925 63.25C16.8002 62.7602 19.1523 62.3787 20.821 62.111C21.6183 61.9857 22.2675 61.8832 22.7744 61.8035C23.23 61.7351 23.4863 61.7009 23.4977 61.7123C23.5148 61.7237 23.2927 61.775 22.8598 61.8718C22.3644 61.9743 21.7322 62.1053 20.9634 62.2648C19.3175 62.5951 16.9312 63.0678 14.0495 63.6088L13.8729 63.643L13.8387 63.4607C13.5825 62.0768 13.3034 60.579 13.0073 58.9957C12.8592 58.1984 12.7111 57.384 12.5573 56.5468C12.4833 56.1311 12.4036 55.704 12.3295 55.2825L12.2156 54.639L12.1587 54.3143L12.1302 54.1549L12.1131 54.0752V54.0353L12.1017 54.0125V54.0011C11.948 54.2118 12.3068 53.6936 12.2726 53.7448C15.7352 53.1298 18.9815 52.5545 21.755 52.0591L21.9372 52.0249L21.9657 52.2015C22.4669 55.0889 22.8598 57.4865 23.1275 59.1438C23.2471 59.9241 23.3496 60.5562 23.4237 61.0574C23.4863 61.4959 23.5148 61.718 23.4977 61.7066L23.5034 61.7123Z" fill="#F6F6F6"/>
<path d="M35.9074 59.4677C35.9074 59.4677 35.8334 59.2114 35.7366 58.7558C35.6341 58.2489 35.4974 57.6054 35.3379 56.8195C35.0019 55.1622 34.5406 52.8215 34.0167 50.0252L34.2274 50.1732C31.4595 50.6801 28.2133 51.2781 24.7564 51.9159C24.7165 51.9672 25.0753 51.4546 24.9272 51.6711V51.7109L24.9386 51.7508L24.9557 51.8305L24.9842 51.99L25.0411 52.3146L25.155 52.9582C25.2291 53.3853 25.3088 53.8067 25.3828 54.2282C25.5309 55.0654 25.679 55.8798 25.8214 56.6771C26.1004 58.266 26.3681 59.7695 26.6073 61.1535L26.3966 61.0054C29.2043 60.5156 31.5564 60.134 33.225 59.8664C34.0224 59.7411 34.6716 59.6386 35.1785 59.5588C35.6341 59.4905 35.8904 59.4563 35.9018 59.4677C35.9188 59.4791 35.6967 59.5303 35.2639 59.6272C34.7684 59.7297 34.1363 59.8607 33.3674 60.0201C31.7215 60.3504 29.3353 60.8231 26.4535 61.3642L26.277 61.3984L26.2428 61.2161C25.9865 59.8322 25.7075 58.3344 25.4113 56.7511C25.2632 55.9538 25.1152 55.1394 24.9614 54.3022C24.8874 53.8865 24.8076 53.4593 24.7336 53.0379L24.6197 52.3943L24.5627 52.0697L24.5343 51.9103L24.5172 51.8305V51.7907L24.5058 51.7679V51.7565C24.352 51.9672 24.7108 51.449 24.6766 51.5002C28.1393 50.8851 31.3855 50.3099 34.159 49.8144L34.3413 49.7803L34.3698 49.9568C34.8709 52.8443 35.2639 55.2419 35.5316 56.8992C35.6512 57.6794 35.7537 58.3116 35.8277 58.8128C35.8904 59.2513 35.9188 59.4734 35.9018 59.462L35.9074 59.4677Z" fill="#F6F6F6"/>
<path d="M48.3115 57.2245C48.3115 57.2245 48.2375 56.9683 48.1406 56.5126C48.0381 56.0058 47.9015 55.3622 47.742 54.5763C47.406 52.919 46.9447 50.5783 46.4207 47.782L46.6314 47.9301C43.8636 48.4369 40.6174 49.0349 37.1604 49.6728C37.1206 49.724 37.4794 49.2115 37.3313 49.4279V49.4678L37.3427 49.5076L37.3598 49.5874L37.3882 49.7468L37.4452 50.0714L37.5591 50.715C37.6331 51.1421 37.7129 51.5636 37.7869 51.985C37.935 52.8222 38.083 53.6366 38.2254 54.4339C38.5045 56.0229 38.7721 57.5264 39.0113 58.9103L38.8006 58.7622C41.6083 58.2724 43.9604 57.8909 45.6291 57.6232C46.4264 57.4979 47.0757 57.3954 47.5825 57.3157C48.0381 57.2473 48.2944 57.2131 48.3058 57.2245C48.3229 57.2359 48.1008 57.2872 47.6679 57.384C47.1725 57.4865 46.5403 57.6175 45.7715 57.777C44.1256 58.1073 41.7393 58.58 38.8576 59.121L38.681 59.1552L38.6469 58.9729C38.3906 57.589 38.1115 56.0912 37.8154 54.508C37.6673 53.7106 37.5192 52.8962 37.3654 52.059C37.2914 51.6433 37.2117 51.2162 37.1376 50.7947L37.0237 50.1512L36.9668 49.8266L36.9383 49.6671L36.9212 49.5874V49.5475L36.9098 49.5247V49.5133C36.7561 49.724 37.1149 49.2058 37.0807 49.257C40.5433 48.642 43.7896 48.0668 46.5631 47.5713L46.7453 47.5371L46.7738 47.7137C47.275 50.6011 47.6679 52.9987 47.9356 54.656C48.0552 55.4363 48.1577 56.0684 48.2318 56.5696C48.2944 57.0081 48.3229 57.2302 48.3058 57.2188L48.3115 57.2245Z" fill="#F6F6F6"/>
<path d="M60.7214 54.9799C60.7214 54.9799 60.6474 54.7236 60.5506 54.268C60.448 53.7611 60.3114 53.1176 60.1519 52.3317C59.8159 50.6744 59.3546 48.3337 58.8306 45.5374L59.0413 45.6854C56.2735 46.1923 53.0273 46.7903 49.5703 47.4282C49.5305 47.4794 49.8893 46.9669 49.7412 47.1833V47.2231L49.7526 47.263L49.7697 47.3427L49.7981 47.5022L49.8551 47.8268L49.969 48.4704C50.043 48.8975 50.1228 49.3189 50.1968 49.7404C50.3449 50.5776 50.493 51.392 50.6353 52.1893C50.9144 53.7782 51.1821 55.2817 51.4213 56.6657L51.2105 56.5176C54.0182 56.0278 56.3703 55.6462 58.039 55.3786C58.8363 55.2533 59.4856 55.1508 59.9924 55.071C60.448 55.0027 60.7043 54.9685 60.7157 54.9799C60.7328 54.9913 60.5107 55.0426 60.0779 55.1394C59.5824 55.2419 58.9502 55.3729 58.1814 55.5323C56.5355 55.8627 54.1492 56.3353 51.2675 56.8764L51.0909 56.9106L51.0568 56.7283C50.8005 55.3444 50.5214 53.8466 50.2253 52.2633C50.0772 51.466 49.9291 50.6516 49.7754 49.8144C49.7013 49.3987 49.6216 48.9715 49.5476 48.5501L49.4337 47.9065L49.3767 47.5819L49.3482 47.4225L49.3311 47.3427V47.3029L49.3197 47.2801V47.2687C49.166 47.4794 49.5248 46.9612 49.4906 47.0124C52.9532 46.3973 56.1995 45.8221 58.973 45.3266L59.1553 45.2925L59.1837 45.469C59.6849 48.3565 60.0779 50.7541 60.3455 52.4114C60.4651 53.1916 60.5676 53.8238 60.6417 54.325C60.7043 54.7635 60.7328 54.9856 60.7157 54.9742L60.7214 54.9799Z" fill="#F6F6F6"/>
<path d="M73.125 52.7363C73.125 52.7363 73.0509 52.48 72.9541 52.0244C72.8516 51.5175 72.7149 50.8739 72.5555 50.088C72.2194 48.4307 71.7581 46.09 71.2342 43.2937L71.4449 43.4418C68.6771 43.9487 65.4308 44.5466 61.9739 45.1845C61.934 45.2358 62.2928 44.7232 62.1448 44.9396V44.9795L62.1561 45.0193L62.1732 45.0991L62.2017 45.2585L62.2587 45.5832L62.3726 46.2267C62.4466 46.6539 62.5263 47.0753 62.6004 47.4967C62.7484 48.3339 62.8965 49.1483 63.0389 49.9456C63.318 51.5346 63.5856 53.0381 63.8248 54.422L63.6141 54.2739C66.4218 53.7842 68.7739 53.4026 70.4426 53.1349C71.2399 53.0096 71.8891 52.9071 72.396 52.8274C72.8516 52.759 73.1079 52.7249 73.1193 52.7363C73.1364 52.7476 72.9143 52.7989 72.4814 52.8957C71.9859 52.9982 71.3538 53.1292 70.5849 53.2887C68.9391 53.619 66.5528 54.0917 63.6711 54.6327L63.4945 54.6669L63.4603 54.4847C63.2041 53.1007 62.925 51.6029 62.6288 50.0197C62.4808 49.2224 62.3327 48.408 62.1789 47.5708C62.1049 47.155 62.0252 46.7279 61.9511 46.3064L61.8372 45.6629L61.7803 45.3383L61.7518 45.1788L61.7347 45.0991V45.0592L61.7233 45.0364V45.025C61.5695 45.2358 61.9283 44.7175 61.8942 44.7688C65.3568 44.1537 68.603 43.5785 71.3766 43.083L71.5588 43.0488L71.5873 43.2254C72.0885 46.1128 72.4814 48.5105 72.7491 50.1677C72.8687 50.948 72.9712 51.5801 73.0452 52.0813C73.1079 52.5198 73.1364 52.742 73.1193 52.7306L73.125 52.7363Z" fill="#F6F6F6"/>
<path d="M23.8454 63.6105L14.3687 65.3242L16.0823 74.801L25.5591 73.0873L23.8454 63.6105Z" fill="#F6F6F6"/>
<path d="M37.9636 70.8412C37.9636 70.8412 37.8896 70.585 37.7927 70.1293C37.6902 69.6225 37.5536 68.9789 37.3941 68.193C37.0581 66.5357 36.5968 64.195 36.0728 61.3987L36.2835 61.5468C33.5157 62.0536 30.2695 62.6516 26.8125 63.2895C26.7727 63.3407 27.1315 62.8282 26.9834 63.0446V63.0845L26.9948 63.1243L27.0119 63.2041L27.0403 63.3635L27.0973 63.6881L27.2112 64.3317C27.2852 64.7588 27.365 65.1803 27.439 65.6017C27.5871 66.4389 27.7351 67.2533 27.8775 68.0506C28.1566 69.6396 28.4242 71.1431 28.6634 72.527L28.4527 72.3789C31.2604 71.8891 33.6125 71.5076 35.2812 71.2399C36.0785 71.1146 36.7278 71.0121 37.2346 70.9324C37.6902 70.864 37.9465 70.8298 37.9579 70.8412C37.975 70.8526 37.7529 70.9039 37.32 71.0007C36.8246 71.1032 36.1924 71.2342 35.4236 71.3937C33.7777 71.724 31.3914 72.1967 28.5097 72.7377L28.3331 72.7719L28.299 72.5896C28.0427 71.2057 27.7636 69.7079 27.4675 68.1247C27.3194 67.3273 27.1713 66.5129 27.0175 65.6757C26.9435 65.26 26.8638 64.8329 26.7897 64.4114L26.6758 63.7679L26.6189 63.4433L26.5904 63.2838L26.5733 63.2041V63.1642L26.5619 63.1414V63.13C26.4082 63.3407 26.767 62.8225 26.7328 62.8737C30.1954 62.2587 33.4417 61.6835 36.2152 61.188L36.3974 61.1538L36.4259 61.3304C36.9271 64.2178 37.32 66.6154 37.5877 68.2727C37.7073 69.053 37.8098 69.6851 37.8839 70.1863C37.9465 70.6248 37.975 70.8469 37.9579 70.8355L37.9636 70.8412Z" fill="#F6F6F6"/>
<path d="M50.3674 68.5971C50.3674 68.5971 50.2934 68.3408 50.1966 67.8852C50.094 67.3783 49.9574 66.7348 49.7979 65.9489C49.4619 64.2916 49.0006 61.9509 48.4766 59.1546L48.6873 59.3026C45.9195 59.8095 42.6733 60.4075 39.2163 61.0453C39.1765 61.0966 39.5353 60.584 39.3872 60.8005V60.8403L39.3986 60.8802L39.4157 60.9599L39.4441 61.1194L39.5011 61.444L39.615 62.0876C39.689 62.5147 39.7688 62.9361 39.8428 63.3576C39.9909 64.1948 40.1389 65.0092 40.2813 65.8065C40.5604 67.3954 40.8281 68.8989 41.0673 70.2829L40.8565 70.1348C43.6642 69.645 46.0163 69.2634 47.685 68.9958C48.4823 68.8705 49.1316 68.7679 49.6384 68.6882C50.094 68.6199 50.3503 68.5857 50.3617 68.5971C50.3731 68.6085 50.1567 68.6597 49.7239 68.7566C49.2284 68.8591 48.5962 68.9901 47.8274 69.1495C46.1815 69.4798 43.7952 69.9525 40.9135 70.4936L40.7369 70.5277L40.7028 70.3455C40.4465 68.9616 40.1674 67.4638 39.8713 65.8805C39.7232 65.0832 39.5751 64.2688 39.4214 63.4316C39.3473 63.0159 39.2676 62.5887 39.1936 62.1673L39.0797 61.5237L39.0227 61.1991L38.9942 61.0397L38.9771 60.9599V60.9201L38.9657 60.8973V60.8859C38.812 61.0966 39.1708 60.5783 39.1366 60.6296C42.5992 60.0145 45.8455 59.4393 48.619 58.9438L48.8012 58.9097L48.8297 59.0862C49.3309 61.9737 49.7239 64.3713 49.9915 66.0286C50.1111 66.8088 50.2136 67.441 50.2877 67.9422C50.3503 68.3807 50.3788 68.6028 50.3617 68.5914L50.3674 68.5971Z" fill="#F6F6F6"/>
<path d="M62.7771 66.3593C62.7771 66.3593 62.703 66.103 62.6062 65.6474C62.5037 65.1405 62.367 64.497 62.2076 63.7111C61.8716 62.0538 61.4102 59.7131 60.8863 56.9168L61.097 57.0648C58.3292 57.5717 55.0829 58.1697 51.626 58.8076C51.5861 58.8588 51.9449 58.3462 51.7969 58.5627V58.6025L51.8082 58.6424L51.8253 58.7221L51.8538 58.8816L51.9108 59.2062L52.0247 59.8498C52.0987 60.2769 52.1784 60.6983 52.2525 61.1198C52.4005 61.957 52.5486 62.7714 52.691 63.5687C52.97 65.1576 53.2377 66.6611 53.4769 68.0451L53.2662 67.897C56.0739 67.4072 58.426 67.0256 60.0947 66.758C60.892 66.6327 61.5412 66.5302 62.0481 66.4504C62.5037 66.3821 62.76 66.3479 62.7714 66.3593C62.7885 66.3707 62.5664 66.4219 62.1335 66.5188C61.638 66.6213 61.0059 66.7523 60.237 66.9117C58.5911 67.242 56.2049 67.7147 53.3231 68.2558L53.1466 68.29L53.1124 68.1077C52.8562 66.7238 52.5771 65.226 52.2809 63.6427C52.1329 62.8454 51.9848 62.031 51.831 61.1938C51.757 60.7781 51.6773 60.3509 51.6032 59.9295L51.4893 59.2859L51.4324 58.9613L51.4039 58.8019L51.3868 58.7221V58.6823L51.3754 58.6595V58.6481C51.2216 58.8588 51.5804 58.3406 51.5463 58.3918C55.0089 57.7767 58.2551 57.2015 61.0287 56.706L61.2109 56.6719L61.2394 56.8484C61.7406 59.7359 62.1335 62.1335 62.4012 63.7908C62.5208 64.571 62.6233 65.2032 62.6973 65.7044C62.76 66.1429 62.7885 66.365 62.7714 66.3536L62.7771 66.3593Z" fill="#F6F6F6"/>
<path d="M75.1809 64.1152C75.1809 64.1152 75.1069 63.8589 75.01 63.4033C74.9075 62.8964 74.7708 62.2529 74.6114 61.4669C74.2754 59.8096 73.8141 57.4689 73.2901 54.6726L73.5008 54.8207C70.733 55.3276 67.4868 55.9256 64.0298 56.5634C63.9899 56.6147 64.3487 56.1021 64.2007 56.3185V56.3584L64.2121 56.3983L64.2291 56.478L64.2576 56.6374L64.3146 56.9621L64.4285 57.6056C64.5025 58.0328 64.5822 58.4542 64.6563 58.8756C64.8043 59.7128 64.9524 60.5272 65.0948 61.3245C65.3739 62.9135 65.6415 64.417 65.8807 65.8009L65.67 65.6528C68.4777 65.1631 70.8298 64.7815 72.4985 64.5138C73.2958 64.3885 73.945 64.286 74.4519 64.2063C74.9075 64.1379 75.1638 64.1038 75.1752 64.1152C75.1923 64.1265 74.9702 64.1778 74.5373 64.2746C74.0419 64.3771 73.4097 64.5081 72.6409 64.6676C70.995 64.9979 68.6087 65.4706 65.727 66.0116L65.5504 66.0458L65.5162 65.8636C65.26 64.4796 64.9809 62.9818 64.6848 61.3986C64.5367 60.6013 64.3886 59.7869 64.2348 58.9497C64.1608 58.5339 64.0811 58.1068 64.007 57.6853L63.8931 57.0418L63.8362 56.7172L63.8077 56.5577L63.7906 56.478V56.4381L63.7792 56.4153V56.4039C63.6255 56.6147 63.9842 56.0964 63.9501 56.1477C67.4127 55.5326 70.6589 54.9574 73.4325 54.4619L73.6147 54.4277L73.6432 54.6043C74.1444 57.4917 74.5373 59.8894 74.805 61.5467C74.9246 62.3269 75.0271 62.959 75.1011 63.4602C75.1638 63.8987 75.1923 64.1209 75.1752 64.1095L75.1809 64.1152Z" fill="#F6F6F6"/>
<path d="M18 19.242L16.7166 19.4741C16.2617 19.5564 15.9595 19.9919 16.0418 20.4469L17.3157 27.4914C17.3979 27.9464 17.8335 28.2485 18.2884 28.1663L19.5718 27.9342C20.0268 27.8519 20.3289 27.4164 20.2467 26.9614L18.9728 19.9169C18.8905 19.4619 18.455 19.1597 18 19.242Z" fill="#F6F6F6"/>
<path d="M37.0396 15.8001L35.7562 16.0322C35.3012 16.1145 34.9991 16.55 35.0813 17.005L36.3552 24.0495C36.4375 24.5045 36.873 24.8066 37.328 24.7244L38.6114 24.4923C39.0664 24.41 39.3685 23.9745 39.2862 23.5195L38.0124 16.475C37.9301 16.02 37.4946 15.7178 37.0396 15.8001Z" fill="#F6F6F6"/>
<path d="M56.0847 12.3593L54.8013 12.5916C54.3464 12.674 54.0443 13.1095 54.1267 13.5645L55.4017 20.6088C55.4841 21.0638 55.9197 21.3659 56.3747 21.2835L57.658 21.0512C58.113 20.9689 58.415 20.5333 58.3327 20.0783L57.0576 13.034C56.9752 12.579 56.5396 12.277 56.0847 12.3593Z" fill="#F6F6F6"/>
<path d="M80.3011 67.7662C80.3011 67.7662 80.2271 67.4245 80.1018 66.7752C79.9765 66.1146 79.7999 65.1578 79.5664 63.9106C79.0994 61.399 78.4217 57.7313 77.556 53.0613C75.8418 43.7156 73.3929 30.3548 70.4428 14.2433L70.6478 14.3856C51.7001 17.8255 28.9025 21.9602 4.38494 26.4024L4.55579 26.1575C8.04691 45.5153 11.3444 63.7966 14.2204 79.7146L14.004 79.5608C33.6864 76.0412 50.2422 73.0797 61.883 71.001C67.7092 69.9702 72.3051 69.1558 75.4545 68.5977C77.0207 68.3243 78.2281 68.1136 79.0596 67.9712C79.4639 67.9028 79.7715 67.8516 79.9936 67.8117C80.2043 67.7776 80.3182 67.7662 80.3182 67.7662C80.3182 67.7662 80.2214 67.7889 80.022 67.8288C79.8056 67.8687 79.5038 67.9256 79.1165 68.0054C78.2964 68.1591 77.1061 68.3812 75.557 68.6717C72.419 69.2526 67.8458 70.0955 62.0425 71.1662C50.3789 73.2961 33.8003 76.3316 14.0781 79.9367L13.8901 79.9708L13.8559 79.7829C10.9685 63.865 7.65964 45.5836 4.15144 26.2315L4.11157 26.0265L4.3166 25.9866C28.8399 21.5615 51.6375 17.4553 70.5909 14.0382L70.7617 14.0098L70.7902 14.1806C73.6777 30.3491 76.0696 43.7612 77.744 53.141C78.5698 57.8054 79.2133 61.4616 79.6575 63.9675C79.874 65.2034 80.0391 66.1487 80.153 66.8037C80.2612 67.4415 80.3068 67.7662 80.3068 67.7662H80.3011Z" fill="#F6F6F6"/>
<path d="M191.425 18.2238C193.219 17.1417 195.127 16.3216 197.091 15.7578L198.259 10.1481L207.736 9.98291L209.102 15.5471C211.09 16.0368 213.026 16.7886 214.854 17.808L219.644 14.67L226.467 21.2536L223.5 26.1514C224.582 27.9454 225.402 29.8532 225.96 31.8181L231.57 32.9856L231.735 42.4623L226.171 43.8291C225.681 45.8167 224.929 47.7531 223.91 49.5812L227.048 54.3708L220.464 61.1936L215.566 58.2264C213.772 59.3085 211.865 60.1286 209.9 60.6867L208.732 66.2964L199.255 66.4616L197.889 60.8974C195.901 60.4077 193.965 59.6559 192.137 58.6365L187.347 61.7745L180.524 55.1909L183.491 50.2931C182.409 48.4991 181.589 46.5912 181.025 44.6264L175.416 43.4589L175.25 33.9822L180.815 32.6154C181.304 30.6278 182.056 28.6914 183.076 26.8633L179.938 22.0737L186.521 15.2509L191.419 18.2181L191.425 18.2238ZM196.476 30.8499C192.575 34.8934 192.689 41.3289 196.727 45.2301C200.765 49.1313 207.206 49.0174 211.107 44.9795C215.008 40.936 214.894 34.5005 210.856 30.5993C206.819 26.6981 200.377 26.812 196.476 30.8499Z" fill="#F6F6F6"/>
<path d="M141.9 14.8926H130.897V32.0577H141.9V14.8926Z" fill="#1A1A1A"/>
<path d="M147.794 20.0235H125.134V1.52002C133.067 -0.43341 140.641 -0.553008 147.794 1.52002V20.0235Z" fill="#FF4E5B"/>
<path d="M148.062 1.6002C148.062 1.6002 147.777 1.77106 147.225 2.01595C146.678 2.26654 145.864 2.57407 144.839 2.893C143.813 3.22332 142.566 3.51947 141.165 3.76436C139.758 3.98647 138.198 4.14024 136.558 4.15732C134.912 4.15732 133.351 4.02064 131.945 3.80992C130.538 3.58211 129.291 3.29166 128.26 2.97273C127.229 2.6595 126.415 2.36335 125.868 2.11846C125.316 1.87927 125.019 1.73689 125.031 1.71411C125.059 1.64577 126.284 2.15833 128.34 2.71076C129.365 2.99551 130.612 3.25179 132.002 3.45682C133.397 3.64476 134.94 3.77005 136.563 3.77005C138.187 3.75297 139.73 3.61059 141.12 3.41126C142.509 3.18915 143.751 2.92148 144.776 2.63102C146.826 2.06151 148.045 1.53186 148.073 1.6002H148.062Z" fill="#1A1A1A"/>
<path d="M132.622 19.9726C132.514 19.9726 132.429 16.4188 132.429 12.0393C132.429 7.65972 132.514 4.10596 132.622 4.10596C132.731 4.10596 132.816 7.65972 132.816 12.0393C132.816 16.4188 132.731 19.9726 132.622 19.9726Z" fill="#1A1A1A"/>
<path d="M136.934 20.0805C136.825 20.0805 136.74 16.5096 136.74 12.113C136.74 7.71636 136.825 4.14551 136.934 4.14551C137.042 4.14551 137.127 7.71066 137.127 12.113C137.127 16.5153 137.042 20.0805 136.934 20.0805Z" fill="#1A1A1A"/>
<path d="M141.245 20.0126C141.137 20.0126 141.051 16.4418 141.051 12.0451C141.051 7.64849 141.137 4.07764 141.245 4.07764C141.353 4.07764 141.439 7.64279 141.439 12.0451C141.439 16.4475 141.353 20.0126 141.245 20.0126Z" fill="#1A1A1A"/>
<path d="M144.833 20.0123C144.725 20.0123 144.639 16.1567 144.639 11.3955C144.639 6.63442 144.725 2.77881 144.833 2.77881C144.941 2.77881 145.027 6.63442 145.027 11.3955C145.027 16.1567 144.941 20.0123 144.833 20.0123Z" fill="#1A1A1A"/>
<path d="M128.545 19.8985C128.437 19.8985 128.351 16.0429 128.351 11.2818C128.351 6.52065 128.437 2.66504 128.545 2.66504C128.653 2.66504 128.738 6.52065 128.738 11.2818C128.738 16.0429 128.653 19.8985 128.545 19.8985Z" fill="#1A1A1A"/>
<path d="M204.54 42.7281L199.044 36.9761L190.068 45.5537L195.565 51.3057L204.54 42.7281Z" fill="#1A1A1A"/>
<path d="M204.798 48.3796L193.476 36.5337L203.152 27.2905C208.135 30.4627 211.985 34.3639 214.474 39.1364L204.798 48.3796Z" fill="#FF4E5B"/>
<path d="M195.372 38.5153C195.309 38.4469 197.502 36.2258 200.269 33.5491C203.037 30.8724 205.332 28.7595 205.395 28.8222C205.458 28.8905 203.265 31.1116 200.497 33.7883C197.729 36.465 195.434 38.5779 195.372 38.5153Z" fill="#1A1A1A"/>
<path d="M197.53 40.7704C197.502 40.7363 198.065 40.1724 198.999 39.2783C199.939 38.3899 201.243 37.1768 202.701 35.8441C204.125 34.557 205.412 33.3895 206.443 32.4555C206.876 32.0683 207.257 31.7322 207.582 31.4361C207.855 31.1912 207.992 31.0716 208.003 31.0659C208.129 31.1798 205.834 33.4237 202.923 36.0833C201.471 37.4103 200.133 38.6006 199.159 39.4435C198.179 40.2863 197.559 40.7932 197.53 40.759V40.7704Z" fill="#1A1A1A"/>
<path d="M200.4 43.7774C200.372 43.7433 200.942 43.1737 201.893 42.2796C202.844 41.3855 204.171 40.1667 205.646 38.8284C207.092 37.5356 208.408 36.3681 209.45 35.4341C209.894 35.0468 210.282 34.7108 210.618 34.4203C210.902 34.1754 211.033 34.0729 211.062 34.0615C211.119 34.1014 210.549 34.7051 209.609 35.6049C208.67 36.5104 207.349 37.7349 205.868 39.0732C204.393 40.4059 203.037 41.6019 202.046 42.4505C201.055 43.299 200.429 43.8116 200.395 43.7774H200.4Z" fill="#1A1A1A"/>
<path d="M203.088 46.517C203.026 46.4487 205.247 44.2447 208.049 41.585C210.851 38.9254 213.175 36.8239 213.237 36.8922C213.3 36.9606 211.079 39.1646 208.277 41.8242C205.475 44.4839 203.151 46.5854 203.088 46.517Z" fill="#1A1A1A"/>
<path d="M65.9188 41.8843L59.9536 47.1489L68.1689 56.4576L74.1341 51.193L65.9188 41.8843Z" fill="#1A1A1A"/>
<path d="M71.5761 41.8532L59.2917 52.6967L50.4358 42.6619C53.8016 37.8096 57.8509 34.1192 62.7202 31.8184L71.5761 41.8532Z" fill="#FF4E5B"/>
<path d="M61.3478 50.8799C61.2795 50.9426 59.1438 48.6588 56.581 45.7885C54.0182 42.9181 51.9907 40.5375 52.0591 40.4749C52.1274 40.4122 54.2631 42.6903 56.8259 45.5663C59.3887 48.4367 61.4105 50.8173 61.3421 50.8799H61.3478Z" fill="#1A1A1A"/>
<path d="M63.6884 48.8129C63.6543 48.8413 63.1075 48.2547 62.2589 47.2809C61.4047 46.307 60.2486 44.9516 58.9785 43.448C57.7484 41.973 56.6322 40.6403 55.7437 39.5754C55.3735 39.1254 55.0489 38.7325 54.7698 38.3965C54.5363 38.1117 54.4224 37.975 54.4167 37.9579C54.5363 37.8383 56.6891 40.2189 59.2291 43.2316C60.4992 44.7408 61.6325 46.1191 62.4355 47.1271C63.2385 48.1351 63.7226 48.7787 63.6884 48.8072V48.8129Z" fill="#1A1A1A"/>
<path d="M66.8094 46.0623C66.7753 46.0907 66.2285 45.4984 65.3686 44.5132C64.5143 43.5279 63.3468 42.1554 62.0711 40.6234C60.8352 39.1256 59.719 37.7701 58.8306 36.6881C58.4604 36.2268 58.1414 35.8281 57.8624 35.4807C57.6289 35.1845 57.5321 35.0536 57.5264 35.0251C57.5662 34.9738 58.1471 35.5604 59.0071 36.5343C59.8728 37.5082 61.046 38.8807 62.3217 40.407C63.5974 41.939 64.7364 43.3343 65.5451 44.3594C66.3538 45.3845 66.8379 46.0338 66.8037 46.0623H66.8094Z" fill="#1A1A1A"/>
<path d="M69.6456 43.488C69.5773 43.5507 67.4587 41.2385 64.913 38.334C62.3672 35.4294 60.3626 33.0204 60.4309 32.9634C60.4992 32.9065 62.6178 35.2073 65.1636 38.1175C67.7093 41.0221 69.714 43.4311 69.6456 43.488Z" fill="#1A1A1A"/>
<path d="M198.385 178.936C233.799 143.521 233.799 86.1037 198.385 50.6895C162.971 15.2753 105.553 15.2753 70.1391 50.6895C34.725 86.1036 34.725 143.521 70.1391 178.936C105.553 214.35 162.971 214.35 198.385 178.936Z" fill="#FF4E5B"/>
<path d="M193.174 173.724C225.71 141.188 225.71 88.4367 193.174 55.9005C160.638 23.3643 107.886 23.3643 75.35 55.9005C42.8138 88.4367 42.8138 141.188 75.35 173.725C107.886 206.261 160.638 206.261 193.174 173.724Z" fill="white"/>
<path d="M134.262 198.412C88.166 198.412 50.6636 160.91 50.6636 114.813C50.6636 68.7168 88.166 31.2144 134.262 31.2144C180.359 31.2144 217.861 68.7168 217.861 114.813C217.861 160.91 180.359 198.412 134.262 198.412ZM134.262 31.7839C88.4793 31.7839 51.2331 69.0301 51.2331 114.813C51.2331 160.596 88.4793 197.843 134.262 197.843C180.046 197.843 217.292 160.596 217.292 114.813C217.292 69.0301 180.046 31.7839 134.262 31.7839Z" fill="#1A1A1A"/>
<path d="M81.9814 81.5429C85.4498 70.7677 92.5687 63.4779 101.988 57.2019C111.414 50.9259 124.262 48.5795 135.544 49.5305V116.676L81.9814 81.5372V81.5429Z" fill="#FF4E5B"/>
<g opacity="0.8">
<path d="M81.9814 81.5429C85.4498 70.7677 92.5687 63.4779 101.988 57.2019C111.414 50.9259 124.262 48.5795 135.544 49.5305V116.676L81.9814 81.5372V81.5429Z" fill="white"/>
</g>
<path d="M128.334 116.311L90.8545 87.1973L134.741 107.438L136.034 115.126L128.334 116.311Z" fill="#FF4E5B"/>
<g opacity="0.4">
<path d="M90.8545 87.1973L129.991 110.211L134.741 107.438L90.8545 87.1973Z" fill="black"/>
</g>
<path d="M139.013 122.473C142.996 120.84 144.902 116.285 143.268 112.301C141.634 108.318 137.08 106.412 133.096 108.046C129.112 109.68 127.207 114.234 128.841 118.218C130.474 122.202 135.029 124.107 139.013 122.473Z" fill="#FAFAFA"/>
<path d="M136.057 107.455C136.057 107.506 135.362 107.461 134.172 107.774C133.004 108.082 131.29 108.862 129.969 110.622C129.325 111.493 128.773 112.586 128.556 113.845C128.345 115.098 128.391 116.51 128.904 117.849C129.137 118.526 129.496 119.176 129.946 119.774C130.384 120.377 130.931 120.93 131.563 121.38C132.81 122.314 134.411 122.843 136.062 122.86C137.714 122.843 139.314 122.319 140.562 121.385C141.194 120.93 141.74 120.383 142.179 119.779C142.629 119.181 142.982 118.532 143.221 117.854C143.734 116.51 143.779 115.098 143.569 113.845C143.352 112.586 142.8 111.487 142.156 110.622C140.835 108.862 139.121 108.082 137.953 107.774C136.763 107.466 136.062 107.506 136.068 107.455C136.068 107.455 136.763 107.358 137.987 107.626C139.189 107.894 140.972 108.657 142.373 110.451C143.056 111.339 143.643 112.472 143.882 113.782C144.115 115.087 144.081 116.556 143.557 117.968C143.312 118.674 142.948 119.364 142.481 119.99C142.019 120.628 141.45 121.203 140.789 121.681C139.485 122.667 137.799 123.225 136.068 123.242C134.337 123.225 132.651 122.667 131.347 121.681C130.686 121.203 130.117 120.628 129.655 119.99C129.188 119.358 128.818 118.674 128.579 117.968C128.049 116.562 128.021 115.087 128.254 113.782C128.494 112.472 129.08 111.339 129.764 110.451C131.165 108.651 132.947 107.888 134.149 107.626C135.373 107.358 136.074 107.455 136.074 107.455H136.057Z" fill="#1A1A1A"/>
<path d="M136.057 109.448C139.263 109.448 141.86 112.045 141.86 115.252C141.86 118.458 139.263 121.055 136.057 121.055C132.85 121.055 130.253 118.458 130.253 115.252C130.253 112.045 132.85 109.448 136.057 109.448Z" fill="#1A1A1A"/>
<path d="M135.67 112.968C135.67 112.968 134.069 62.7541 136.393 52.1611C136.393 52.1611 140.277 82.6016 135.67 112.968Z" fill="#1A1A1A"/>
<path d="M131.13 191.835H131.028L131.25 185.57H131.426L131.125 191.835H131.13ZM162.391 186.76L160.05 180.951L160.227 180.883L162.476 186.732L162.391 186.766V186.76ZM100.388 183.77L100.291 183.725L103.076 178.115L103.23 178.195L100.382 183.776L100.388 183.77ZM188.953 169.362L184.488 164.971L184.608 164.851L189.038 169.282L188.959 169.362H188.953ZM75.6141 163.911L75.523 163.797L80.381 159.839L80.4607 159.942L75.6198 163.917L75.6141 163.911ZM206.192 142.663L200.321 140.482L200.383 140.316L206.232 142.566L206.192 142.663ZM61.0289 135.686L60.9833 135.527L67.0373 133.921L67.0657 134.029L61.0232 135.692L61.0289 135.686ZM204.791 111.607V111.505L211.039 111.129L211.05 111.305L204.791 111.607ZM204.791 111.493V111.357L211.039 110.981V111.123L204.791 111.499V111.493ZM65.3914 104.904L59.1951 103.964L59.2178 103.822L65.4085 104.767L65.3857 104.904H65.3914ZM197.126 83.3423L197.069 83.2284L202.633 80.3523L202.701 80.4833L197.126 83.3423ZM75.6939 77.6244L70.4259 74.2358L70.4942 74.1276L75.7736 77.4991L75.6939 77.6244ZM178.662 60.7782L178.554 60.6927L182.466 55.8006L182.574 55.886L178.662 60.7782ZM96.185 56.877L92.7508 51.6375L92.8476 51.5748L96.3217 56.7859L96.185 56.877ZM152.612 47.6338L152.493 47.6053L154.065 41.54L154.218 41.5798L152.612 47.6338ZM123.356 46.2669L122.337 40.0877L122.479 40.0649L123.493 46.2499L123.356 46.2726V46.2669Z" fill="#1A1A1A"/>
<path d="M171.554 86.5549C172.363 85.8487 173.645 85.7461 174.556 86.31C176.071 85.8487 177.865 86.5947 178.605 87.99C179.681 87.8135 180.832 88.2463 181.532 89.0778C182.233 89.9093 182.461 91.1224 182.102 92.1532C183.178 92.3924 184.05 93.3662 184.164 94.4654C184.277 95.5646 183.622 96.6979 182.62 97.1535C183.583 97.9451 183.81 99.4942 183.121 100.531C182.432 101.567 180.912 101.955 179.812 101.368L170.9 89.4992C170.461 88.5197 170.734 87.2611 171.549 86.5549H171.554Z" fill="#1A1A1A"/>
<path d="M180.035 101.834C181.669 96.4467 178.89 90.7174 173.651 88.6558L173.132 88.4507C167.392 86.5713 162.591 90.3985 160.871 96.1847L154.338 115.189L154.185 117.843L160.011 126.625L164.971 124.353L167.813 119.034C167.813 119.034 173.537 120.315 175.724 114.95C176.777 112.359 178.52 106.846 180.04 101.834H180.035Z" fill="#FFD7B0"/>
<path d="M167.859 119.046C167.859 119.046 164.334 117.901 161.606 114.199C161.606 114.199 161.378 119.017 166.953 120.646L167.859 119.046Z" fill="#F28500"/>
<path d="M176.51 106.214C176.362 106.624 175.895 106.841 175.462 106.698C175.029 106.556 174.795 106.106 174.943 105.69C175.092 105.275 175.559 105.058 175.991 105.206C176.424 105.349 176.658 105.804 176.515 106.214H176.51Z" fill="#1A1A1A"/>
<path d="M177.791 104.313C177.654 104.375 177.244 103.715 176.413 103.39C175.587 103.054 174.812 103.242 174.761 103.105C174.733 103.043 174.903 102.9 175.245 102.809C175.581 102.718 176.099 102.707 176.612 102.912C177.125 103.117 177.489 103.475 177.66 103.772C177.837 104.068 177.854 104.284 177.785 104.307L177.791 104.313Z" fill="#1A1A1A"/>
<path d="M169.265 103.777C169.117 104.187 168.65 104.404 168.218 104.261C167.785 104.119 167.551 103.669 167.699 103.253C167.847 102.843 168.314 102.621 168.747 102.769C169.18 102.912 169.414 103.361 169.271 103.777H169.265Z" fill="#1A1A1A"/>
<path d="M169.909 101.083C169.772 101.146 169.362 100.485 168.531 100.16C167.705 99.8245 166.93 100.012 166.879 99.8757C166.851 99.8131 167.021 99.6707 167.363 99.5796C167.699 99.4885 168.217 99.4771 168.73 99.6821C169.243 99.8871 169.607 100.246 169.778 100.542C169.954 100.838 169.972 101.055 169.909 101.077V101.083Z" fill="#1A1A1A"/>
<path d="M170.222 108.298C170.239 108.247 170.786 108.361 171.663 108.583C171.885 108.646 172.102 108.68 172.193 108.549C172.301 108.418 172.307 108.15 172.301 107.866C172.301 107.273 172.301 106.658 172.307 106.009C172.341 103.372 172.455 101.242 172.557 101.242C172.665 101.242 172.722 103.384 172.688 106.02C172.677 106.67 172.665 107.285 172.648 107.877C172.631 108.15 172.665 108.475 172.432 108.748C172.312 108.885 172.113 108.936 171.965 108.919C171.811 108.908 171.692 108.862 171.583 108.828C170.723 108.543 170.205 108.344 170.216 108.293L170.222 108.298Z" fill="#1A1A1A"/>
<path d="M170.575 98.623C170.415 98.8224 169.726 98.4237 168.821 98.2073C167.921 97.9681 167.118 97.9795 167.078 97.7346C167.067 97.6207 167.272 97.4555 167.636 97.3473C168.001 97.2391 168.525 97.205 169.066 97.3473C169.607 97.484 170.045 97.7631 170.302 98.0307C170.564 98.2984 170.649 98.5376 170.575 98.6344V98.623Z" fill="#1A1A1A"/>
<path d="M175.877 100.269C176.088 100.126 176.606 100.519 177.301 100.758C177.99 101.026 178.639 101.054 178.707 101.305C178.736 101.425 178.576 101.584 178.258 101.681C177.944 101.778 177.466 101.783 176.987 101.613C176.509 101.436 176.15 101.129 175.974 100.849C175.792 100.57 175.774 100.348 175.871 100.274L175.877 100.269Z" fill="#1A1A1A"/>
<path d="M180.49 99.1581C180.49 99.1581 180.393 95.2228 179.078 93.7933C177.483 92.062 175.78 93.8958 174.112 92.6315C172.437 91.3672 170.917 89.7099 168.428 90.4104C165.7 91.1736 166.247 92.6771 165.176 95.0178C160.836 104.512 157.983 106.556 159.276 101.789C159.418 101.265 158.182 100.32 158.809 98.1273C159.617 95.2798 160.825 91.9082 162.203 90.1997C163.365 88.7645 164.743 87.9957 166.913 87.4091C170.336 86.4751 173.992 87.8647 176.361 89.0834C178.73 90.3022 182.375 95.0178 180.49 99.1581Z" fill="#1A1A1A"/>
<path d="M159.674 101.778C159.971 100.935 159.509 99.9953 158.649 99.7448C157.607 99.4429 156.263 99.5739 155.511 101.681C154.179 105.411 158.199 105.981 158.245 105.878C158.273 105.81 159.128 103.344 159.674 101.778Z" fill="#FFD7B0"/>
<path d="M157.938 104.181C157.938 104.181 157.858 104.204 157.727 104.215C157.602 104.226 157.408 104.192 157.237 104.05C156.895 103.765 156.787 103.019 157.009 102.341C157.123 102 157.305 101.698 157.522 101.476C157.733 101.242 157.977 101.117 158.188 101.151C158.405 101.174 158.501 101.345 158.507 101.464C158.518 101.584 158.467 101.652 158.49 101.664C158.496 101.675 158.593 101.629 158.615 101.464C158.627 101.385 158.615 101.282 158.553 101.179C158.49 101.077 158.37 100.992 158.228 100.957C157.932 100.872 157.579 101.048 157.34 101.293C157.083 101.538 156.867 101.869 156.742 102.256C156.497 103.019 156.633 103.856 157.117 104.209C157.357 104.369 157.602 104.369 157.75 104.323C157.898 104.272 157.949 104.198 157.938 104.187V104.181Z" fill="#F28500"/>
<path d="M162.556 94.6647C162.909 95.1772 163.279 95.7183 163.832 95.9973C164.384 96.2821 165.176 96.2081 165.501 95.6784C165.643 95.4392 165.7 95.1146 165.945 94.9836C166.241 94.8241 166.583 95.0463 166.879 95.2C167.904 95.7354 169.299 95.4107 169.983 94.471C170.097 94.9893 170.74 95.2228 171.258 95.1146C171.777 95.0121 172.215 94.6761 172.682 94.4369C173.149 94.1977 173.736 94.0382 174.197 94.3002C174.453 94.4483 174.647 94.7102 174.932 94.79C175.433 94.938 175.894 94.4654 176.156 94.0097C176.418 93.5598 176.697 93.0188 177.21 92.922C177.682 92.8308 178.121 93.1612 178.542 93.4061C178.964 93.6453 179.579 93.7705 179.864 93.3776C180.012 93.1726 180.012 92.8935 179.961 92.6429C179.744 91.5153 178.651 90.6211 177.5 90.6325C177.62 89.2714 176.851 87.8761 175.644 87.2439C174.431 86.6118 172.847 86.7883 171.805 87.6654C171.304 86.6516 170.29 85.9113 169.168 85.7404C168.052 85.5695 166.862 85.9796 166.081 86.7997C165.278 86.2131 164.117 86.1561 163.262 86.663C162.408 87.1699 161.901 88.2178 162.038 89.203C161.224 89.3226 160.398 89.7555 160.085 90.5129C159.771 91.2704 160.216 92.324 161.03 92.4094C160.5 92.8878 160.426 93.7876 160.87 94.3458C161.315 94.9039 162.209 95.0292 162.795 94.6191" fill="#1A1A1A"/>
<path d="M160.757 92.3068C160.757 92.3068 160.569 92.5916 160.706 93.1041C160.78 93.349 160.95 93.6452 161.269 93.8331C161.577 94.021 162.021 94.1008 162.443 93.9413L162.295 93.8559C162.351 94.2432 162.465 94.6646 162.67 95.0632C162.801 95.3195 162.967 95.5587 163.177 95.7467C163.382 95.9403 163.656 96.0542 163.895 96.1055C164.385 96.2364 164.892 96.1453 165.199 95.9118C165.512 95.6897 165.689 95.4334 165.797 95.2626C165.911 95.086 165.956 94.9835 165.945 94.9778C165.928 94.9664 165.86 95.0576 165.729 95.2113C165.598 95.3651 165.41 95.5929 165.114 95.7808C164.555 96.1738 163.314 95.9973 162.875 94.9607C162.687 94.5906 162.574 94.1919 162.511 93.8217L162.488 93.685L162.363 93.7363C162.015 93.873 161.634 93.8217 161.361 93.6679C161.081 93.5199 160.916 93.275 160.831 93.0529C160.666 92.6029 160.785 92.3011 160.751 92.2954L160.757 92.3068Z" fill="#636363"/>
<path d="M171.036 86.623C171.036 86.623 171.122 86.6857 171.258 86.8224C171.389 86.9534 171.572 87.1869 171.64 87.5343L171.657 87.6197L171.737 87.5741C172.261 87.2495 173.075 86.8793 174.089 86.8338C174.59 86.811 175.137 86.8793 175.667 87.0844C176.19 87.2894 176.68 87.6539 177.05 88.1436C177.335 88.5252 177.535 88.9524 177.631 89.3909C177.722 89.8294 177.711 90.2679 177.597 90.6609L177.563 90.7805L177.688 90.7919C178.303 90.8545 178.822 91.1848 179.146 91.5835C179.477 91.9822 179.602 92.4378 179.63 92.8137C179.67 93.5768 179.391 93.9869 179.431 93.9982C179.437 93.9982 179.511 93.9128 179.596 93.7135C179.676 93.5199 179.773 93.2066 179.761 92.808C179.75 92.415 179.63 91.9138 179.289 91.4753C178.953 91.0425 178.394 90.6723 177.717 90.5869L177.808 90.7235C177.933 90.2964 177.95 89.818 177.859 89.3453C177.757 88.8726 177.546 88.4113 177.238 88.007C176.845 87.4887 176.316 87.09 175.752 86.8793C175.188 86.6629 174.607 86.6003 174.083 86.6344C173.024 86.7028 172.198 87.1128 171.674 87.4716L171.771 87.5115C171.68 87.1356 171.464 86.9021 171.315 86.7768C171.156 86.6515 171.053 86.6173 171.048 86.6287L171.036 86.623Z" fill="#636363"/>
<path d="M170.097 111.442C170.017 111.476 169.692 110.782 168.992 110.201C168.303 109.603 167.562 109.398 167.585 109.312C167.585 109.238 168.422 109.324 169.186 109.973C169.949 110.616 170.177 111.431 170.097 111.442Z" fill="#1A1A1A"/>
<path d="M209.604 139.36C210.236 139.183 216.404 140.191 216.404 140.191C216.404 140.191 216.649 141.541 215.219 141.495C213.796 141.45 209.12 141.074 209.12 141.074L206.113 142.401L205.122 141.968L209.604 139.36Z" fill="#F28500"/>
<path d="M196.955 140.527L205.714 141.359L207.081 141.524C207.081 141.524 210.31 140.356 210.902 140.248C211.495 140.14 216.928 143.079 216.928 143.079C216.928 143.079 217.133 144.337 215.618 144.013C214.103 143.688 212.263 142.76 212.263 142.76C212.263 142.76 207.349 145.055 206.363 145.505C205.384 145.949 199.529 145.915 199.529 145.915L197.462 147.27L196.949 140.533L196.955 140.527Z" fill="#FFD7B0"/>
<path d="M200.4 153.968L203.977 151.701L216.261 147.327C216.261 147.327 217.338 146.347 216.785 145.949C216.227 145.55 203.151 147.521 203.151 147.521L200.406 149.07V153.973L200.4 153.968Z" fill="#FFD7B0"/>
<path d="M165.723 145.243C165.723 145.926 155.044 163.547 152.003 167.949C147.504 174.47 142.993 175.29 142.993 175.29L137.002 170.284L161.651 143.568L168.969 138.232L165.717 145.248L165.723 145.243Z" fill="#636363"/>
<path d="M160.198 153.233C160.198 153.233 169.789 157.561 173.383 158.176C177.609 158.905 200.793 157.27 200.793 157.27L200.355 148.039L166.475 147.27L162.425 146.193L160.198 153.227V153.233Z" fill="#636363"/>
<g opacity="0.3">
<path d="M163.365 145.943C162.665 146.256 162.266 148.107 161.736 148.665C156.121 154.56 152.009 161.212 146.211 166.542C143.711 168.843 140.881 170.808 137.486 170.637L140.949 173.582C143.836 173.525 145.744 172.169 147.92 170.273C150.095 168.376 151.018 165.654 152.698 163.308C156.519 157.96 160.267 151.986 164.088 146.638C163.9 145.892 164.06 145.624 163.365 145.943Z" fill="black"/>
</g>
<path d="M138.483 170.58C138.483 170.58 143.489 170.962 145.38 169.789C147.641 168.388 167.642 142.162 167.642 142.162L167.818 121.676L156.531 110.907L155.363 112.684L131.358 140.077L115.958 154.697L134.422 164.618L138.483 170.586V170.58Z" fill="#F6F6F6"/>
<path d="M163.12 141.552C162.522 142.275 163.479 152.601 150.033 154.041C138.677 155.26 115.002 153.99 107.9 153.569C106.089 153.461 104.603 151.94 104.728 150.135C104.779 149.411 105.081 148.677 105.838 148.056C108.361 145.994 111.004 146.632 112.564 142.412C114.125 138.192 113.413 136.62 116.169 134.946C120.059 132.582 129.587 136.916 129.587 136.916C131.979 133.294 133.243 130.105 136.604 125.782C139.32 122.285 143.011 117.501 145.995 115.81C146.729 115.394 150.67 113.765 151.502 113.634L153.347 113.31L154.577 111.692C156.388 113.538 163.166 119.779 164.362 121.961L165.728 129.928L163.126 141.552H163.12Z" fill="#636363"/>
<g opacity="0.3">
<path d="M194.74 149.651C185.827 149.03 176.561 148.409 165.552 146.103L164.874 147.584C171.224 151.547 175.621 151.695 180.433 152.043C185.251 152.39 189.722 151.644 194.375 151.644C194.375 151.644 194.967 150.71 194.74 149.651Z" fill="black"/>
</g>
<g opacity="0.3">
<path d="M145.505 128.784L141.889 129.012C143.392 133.915 145.818 135.578 149.947 138.614C154.076 141.649 154.737 142.543 159.418 144.639C159.863 144.839 163.399 147.048 163.507 146.57C155.483 141.638 150.847 136.529 145.499 128.778L145.505 128.784Z" fill="black"/>
</g>
<path d="M141.963 125.578C140.647 129.234 143.028 130.908 143.028 130.908C143.028 130.908 162.391 148.495 170.21 149.383C178.03 150.272 198.527 149.184 198.527 149.184V139.639L173.559 136.956C173.559 136.956 163.513 125.116 157.954 119.176" fill="#636363"/>
<path d="M157.954 119.176C157.954 119.176 158.063 119.273 158.256 119.472C158.456 119.683 158.74 119.979 159.11 120.366C159.851 121.164 160.939 122.337 162.305 123.869C165.045 126.921 168.946 131.369 173.65 136.877L173.576 136.837C180.678 137.588 189.209 138.5 198.549 139.491L198.68 139.502V139.633C198.68 142.691 198.68 145.898 198.68 149.178V149.32H198.538C197.114 149.395 195.594 149.463 194.056 149.531C187.717 149.782 181.595 149.947 175.82 149.833C175.097 149.81 174.385 149.787 173.673 149.765C172.961 149.719 172.261 149.696 171.56 149.639C170.86 149.571 170.17 149.537 169.481 149.394C169.145 149.315 168.809 149.224 168.479 149.121C168.16 149.002 167.83 148.905 167.517 148.774C164.999 147.754 162.79 146.376 160.722 145.032C156.61 142.304 153.119 139.542 150.158 137.127C147.202 134.701 144.793 132.594 142.982 130.948H142.988C142.23 130.339 141.849 129.536 141.661 128.835C141.495 128.123 141.501 127.497 141.575 127.013C141.644 126.523 141.746 126.164 141.826 125.925C141.905 125.686 141.951 125.572 141.951 125.572C141.951 125.572 141.923 125.697 141.854 125.936C141.78 126.175 141.695 126.534 141.632 127.018C141.564 127.502 141.569 128.117 141.746 128.807C141.934 129.484 142.321 130.27 143.05 130.845H143.056C144.884 132.474 147.31 134.564 150.272 136.968C153.244 139.365 156.741 142.11 160.848 144.816C162.909 146.148 165.119 147.515 167.602 148.512C167.909 148.643 168.234 148.734 168.547 148.853C168.866 148.95 169.197 149.036 169.521 149.115C170.176 149.252 170.871 149.286 171.56 149.355C172.255 149.412 172.955 149.434 173.662 149.48L175.803 149.543C181.566 149.651 187.683 149.48 194.016 149.229C195.548 149.161 197.074 149.093 198.492 149.024L198.35 149.172C198.35 145.892 198.35 142.686 198.35 139.627L198.481 139.77C189.147 138.756 180.615 137.828 173.514 137.059H173.468L173.439 137.019C168.758 131.495 164.885 127.03 162.174 123.949C160.819 122.422 159.76 121.226 159.025 120.406C158.666 120.008 158.393 119.7 158.199 119.489C158.011 119.279 157.926 119.17 157.926 119.17L157.954 119.176Z" fill="#1A1A1A"/>
<path d="M164.943 147.424C164.943 147.424 164.766 147.743 164.407 148.284C164.026 148.87 163.519 149.645 162.904 150.584C161.645 152.532 159.942 155.254 158.074 158.267C156.206 161.28 154.509 164.002 153.251 165.961C152.624 166.941 152.106 167.727 151.741 168.262C151.377 168.798 151.166 169.094 151.149 169.082C151.132 169.071 151.309 168.758 151.645 168.2C152.009 167.602 152.487 166.81 153.074 165.847C154.316 163.831 155.984 161.115 157.824 158.113C159.697 155.101 161.423 152.396 162.733 150.471C163.382 149.508 163.929 148.739 164.316 148.215C164.704 147.691 164.931 147.412 164.943 147.424Z" fill="#1A1A1A"/>
<path d="M222.93 145.111L199.512 148.694C199.062 148.762 198.646 148.455 198.578 148.005L198.544 147.765C198.476 147.315 198.783 146.894 199.233 146.831L224.058 143.152L223.756 144.348C223.654 144.753 223.329 145.055 222.93 145.111Z" fill="#F6F6F6"/>
<path d="M222.93 145.112C222.93 145.112 223.164 145.095 223.454 144.816C223.597 144.673 223.705 144.457 223.756 144.155C223.825 143.859 223.91 143.523 224.001 143.141L224.069 143.215C219.935 143.882 210.6 145.3 199.757 146.906C199.54 146.946 199.267 146.963 199.108 147.02C198.931 147.088 198.789 147.236 198.726 147.418C198.692 147.509 198.681 147.601 198.692 147.697C198.703 147.788 198.726 147.925 198.737 148.022C198.772 148.204 198.891 148.369 199.051 148.466C199.222 148.563 199.387 148.58 199.609 148.535L200.275 148.432C200.719 148.364 201.158 148.295 201.591 148.233C203.328 147.971 205.008 147.714 206.608 147.475C209.797 146.997 212.679 146.57 215.1 146.205C217.503 145.858 219.451 145.573 220.829 145.374C221.49 145.283 222.008 145.214 222.389 145.163C222.555 145.146 222.686 145.129 222.794 145.117C222.885 145.106 222.93 145.106 222.936 145.112C222.936 145.112 222.891 145.129 222.799 145.146C222.691 145.169 222.56 145.192 222.395 145.22C222.013 145.283 221.501 145.374 220.846 145.488C219.473 145.71 217.526 146.023 215.128 146.41C212.708 146.792 209.832 147.242 206.642 147.743C205.042 147.988 203.368 148.25 201.631 148.517C201.198 148.586 200.759 148.654 200.315 148.722L199.649 148.825C199.432 148.876 199.119 148.859 198.897 148.717C198.669 148.58 198.498 148.341 198.447 148.079C198.424 147.948 198.407 147.863 198.396 147.72C198.384 147.583 198.401 147.447 198.447 147.321C198.538 147.065 198.743 146.849 198.999 146.746C199.279 146.649 199.478 146.661 199.717 146.61C210.566 145.004 219.906 143.654 224.058 143.09L224.149 143.079L224.126 143.164C224.024 143.54 223.933 143.876 223.859 144.172C223.802 144.463 223.671 144.719 223.511 144.855C223.358 144.998 223.204 145.061 223.101 145.089C222.999 145.117 222.942 145.112 222.942 145.112H222.93Z" fill="#1A1A1A"/>
<path d="M222.252 143.38L229.269 119.774C229.406 119.33 229.873 119.085 230.311 119.216L230.516 119.279C230.96 119.415 231.205 119.882 231.074 120.321L223.682 144.519L222.252 143.38Z" fill="#F6F6F6"/>
<path d="M222.252 143.38C222.252 143.38 222.292 143.403 222.355 143.449C222.429 143.505 222.526 143.574 222.634 143.654C222.896 143.853 223.249 144.126 223.71 144.474L223.631 144.502C224.684 140.846 227.589 131.261 230.96 120.138C230.977 119.945 230.909 119.745 230.778 119.609C230.653 119.461 230.453 119.409 230.231 119.347C229.85 119.25 229.445 119.506 229.377 119.928C229.115 120.805 228.859 121.67 228.603 122.519C228.096 124.216 227.606 125.851 227.139 127.411C226.199 130.526 225.351 133.334 224.633 135.703C223.915 138.05 223.329 139.963 222.919 141.307C222.714 141.956 222.554 142.463 222.44 142.839C222.389 142.999 222.344 143.135 222.309 143.238C222.275 143.329 222.258 143.374 222.252 143.38C222.252 143.38 222.252 143.34 222.275 143.249C222.304 143.147 222.338 143.016 222.378 142.856C222.48 142.486 222.623 141.979 222.805 141.336C223.192 139.986 223.745 138.078 224.422 135.726C225.117 133.345 225.943 130.515 226.866 127.383C227.327 125.811 227.817 124.159 228.318 122.451C228.568 121.596 228.83 120.725 229.092 119.842C229.138 119.62 229.292 119.335 229.519 119.199C229.747 119.045 230.038 118.994 230.305 119.062C230.436 119.102 230.522 119.119 230.658 119.17C230.784 119.221 230.903 119.307 230.994 119.404C231.182 119.603 231.285 119.888 231.256 120.167C231.222 120.395 231.154 120.543 231.108 120.725L230.949 121.243C230.841 121.591 230.738 121.932 230.636 122.274C230.425 122.957 230.22 123.635 230.015 124.301C229.605 125.64 229.206 126.938 228.819 128.203C228.044 130.72 227.315 133.072 226.666 135.191C225.351 139.382 224.331 142.651 223.739 144.531L223.716 144.605L223.659 144.553C223.204 144.177 222.85 143.887 222.594 143.671C222.361 143.471 222.247 143.374 222.258 143.374L222.252 143.38Z" fill="#1A1A1A"/>
<path d="M162.898 123.459C162.858 123.481 162.419 122.832 161.662 121.83C160.904 120.822 159.794 119.478 158.473 118.082C157.151 116.681 155.881 115.491 154.959 114.631C154.03 113.777 153.455 113.247 153.484 113.213C153.495 113.196 153.66 113.31 153.939 113.526C154.218 113.743 154.617 114.067 155.101 114.472C156.064 115.292 157.368 116.465 158.695 117.877C160.027 119.284 161.115 120.662 161.838 121.705C162.203 122.223 162.476 122.656 162.653 122.963C162.829 123.271 162.921 123.442 162.903 123.453L162.898 123.459Z" fill="#1A1A1A"/>
<g opacity="0.3">
<path d="M154.509 153.097C152.852 153.535 139.753 152.647 133.175 150.545C128.46 149.036 123.881 147.06 120.743 144.714C116.574 141.598 114.58 138.232 114.58 138.232C113.823 137.8 113.322 140.072 113.02 141.017C112.718 141.957 112.097 144.423 110.355 145.551C108.225 146.935 104.956 147.39 104.665 150.221C104.483 151.998 106.095 153.461 107.877 153.547C113.481 153.82 128.966 154.566 133.09 154.56C138.158 154.56 149.008 154.845 154.503 153.097H154.509Z" fill="black"/>
</g>
<path d="M156.599 152.106C156.599 152.106 156.479 152.22 156.229 152.419C155.967 152.595 155.54 152.806 154.959 152.977C153.791 153.29 152.037 153.416 149.896 153.302C147.754 153.199 145.214 152.874 142.418 152.482C139.616 152.089 136.535 151.565 133.368 150.722C130.208 149.873 127.269 148.757 124.763 147.419C122.252 146.086 120.184 144.542 118.607 143.085C117.029 141.621 115.947 140.248 115.275 139.257C114.939 138.762 114.688 138.369 114.54 138.09C114.381 137.817 114.307 137.668 114.313 137.668C114.324 137.668 114.415 137.799 114.592 138.061C114.757 138.329 115.019 138.711 115.372 139.195C116.072 140.157 117.172 141.501 118.755 142.936C120.332 144.366 122.4 145.875 124.894 147.185C127.389 148.501 130.305 149.6 133.448 150.443C136.598 151.28 139.662 151.809 142.458 152.22C145.254 152.63 147.777 152.977 149.913 153.102C152.043 153.245 153.78 153.154 154.936 152.874C155.511 152.721 155.933 152.538 156.2 152.379C156.457 152.202 156.593 152.106 156.599 152.117V152.106Z" fill="#1A1A1A"/>
<path d="M159.259 148.893C159.196 148.95 158.809 148.625 158.387 148.17C157.966 147.714 157.67 147.298 157.732 147.247C157.795 147.196 158.182 147.515 158.604 147.97C159.025 148.426 159.321 148.842 159.259 148.893Z" fill="#1A1A1A"/>
<path d="M155.477 118.572C155.46 118.624 154.668 118.265 153.307 118.037C151.963 117.809 150.004 117.798 148.034 118.51C146.063 119.227 144.571 120.492 143.688 121.534C142.788 122.576 142.418 123.362 142.373 123.334C142.356 123.328 142.435 123.123 142.612 122.775C142.794 122.428 143.09 121.944 143.529 121.397C144.389 120.304 145.904 118.971 147.937 118.231C149.97 117.49 151.986 117.542 153.347 117.826C154.036 117.969 154.572 118.145 154.936 118.293C155.295 118.441 155.489 118.55 155.477 118.567V118.572Z" fill="#1A1A1A"/>
<path d="M150.169 145.015C150.169 145.015 150.101 145.055 149.953 145.112C149.805 145.157 149.6 145.254 149.315 145.311C148.751 145.471 147.908 145.596 146.86 145.579C145.813 145.568 144.571 145.351 143.255 144.935C141.94 144.514 140.55 143.87 139.183 143.062C137.817 142.247 136.575 141.382 135.447 140.601C134.32 139.821 133.3 139.126 132.418 138.585C131.535 138.044 130.806 137.64 130.288 137.378C129.769 137.116 129.485 136.979 129.49 136.956C129.49 136.945 129.57 136.968 129.712 137.025C129.855 137.082 130.071 137.156 130.333 137.275C130.869 137.503 131.62 137.885 132.52 138.409C134.337 139.434 136.626 141.177 139.326 142.811C140.681 143.608 142.042 144.246 143.335 144.679C144.628 145.106 145.841 145.334 146.866 145.374C148.934 145.471 150.158 144.941 150.169 145.021V145.015Z" fill="#1A1A1A"/>
<path d="M155.477 152.128C155.477 152.128 155.329 152.139 155.044 152.128C154.731 152.111 154.321 152.088 153.803 152.06C153.262 152.031 152.607 151.986 151.844 151.906C151.08 151.826 150.209 151.763 149.252 151.627C148.295 151.502 147.242 151.376 146.126 151.177C145.004 151.006 143.813 150.767 142.56 150.511C140.066 149.964 137.344 149.258 134.553 148.289C131.768 147.31 129.188 146.171 126.916 145.009C125.794 144.394 124.718 143.83 123.761 143.209C123.282 142.908 122.804 142.634 122.366 142.332C121.933 142.031 121.517 141.746 121.118 141.467C120.31 140.931 119.643 140.368 119.034 139.901C118.732 139.661 118.447 139.451 118.197 139.234C117.952 139.018 117.73 138.818 117.525 138.642C117.137 138.294 116.83 138.021 116.596 137.81C116.386 137.617 116.283 137.514 116.289 137.509C116.294 137.503 116.414 137.588 116.636 137.771C116.875 137.97 117.2 138.232 117.599 138.556C117.809 138.733 118.037 138.921 118.288 139.132C118.544 139.337 118.835 139.542 119.136 139.775C119.751 140.225 120.429 140.778 121.238 141.296C121.637 141.564 122.058 141.848 122.491 142.139C122.929 142.429 123.408 142.697 123.886 142.993C124.843 143.602 125.919 144.155 127.036 144.758C129.308 145.909 131.871 147.031 134.644 148.005C137.418 148.967 140.129 149.679 142.612 150.237C143.859 150.499 145.044 150.75 146.16 150.932C147.27 151.143 148.318 151.279 149.275 151.416C150.226 151.564 151.097 151.644 151.855 151.735C152.612 151.832 153.273 151.889 153.808 151.94C154.321 151.991 154.731 152.031 155.044 152.065C155.329 152.1 155.477 152.117 155.471 152.128H155.477Z" fill="#1A1A1A"/>
<path d="M148.569 242.305L147.641 257.739L171.014 257.915C170.894 255.683 158.838 251.11 158.838 251.11L159.202 242.743L148.575 242.311L148.569 242.305Z" fill="#FF4E5B"/>
<path d="M151.616 250.039C151.16 250.159 150.847 250.666 150.95 251.121C151.052 251.577 151.565 251.907 152.02 251.793C152.476 251.679 152.875 251.087 152.721 250.643C152.567 250.199 151.946 249.851 151.531 250.068" fill="#F6F6F6"/>
<path d="M147.641 257.733V255.763L170.102 256.788C170.102 256.788 171.139 257.255 171.008 257.984L147.641 257.733Z" fill="#1A1A1A"/>
<path d="M159.213 250.99C159.213 251.104 158.638 251.15 158.074 251.514C157.499 251.861 157.209 252.357 157.1 252.306C156.998 252.283 157.169 251.599 157.864 251.172C158.553 250.739 159.242 250.882 159.213 250.984V250.99Z" fill="#F6F6F6"/>
<path d="M161.656 252.021C161.679 252.129 161.184 252.323 160.796 252.801C160.392 253.268 160.29 253.792 160.176 253.786C160.067 253.804 159.993 253.137 160.495 252.545C160.984 251.953 161.656 251.913 161.662 252.021H161.656Z" fill="#F6F6F6"/>
<path d="M163.029 254.965C162.926 254.988 162.773 254.418 163.069 253.792C163.365 253.166 163.9 252.926 163.952 253.017C164.014 253.114 163.667 253.445 163.428 253.957C163.177 254.464 163.143 254.948 163.029 254.96V254.965Z" fill="#F6F6F6"/>
<path d="M159.031 248.234C158.979 248.336 158.461 248.177 157.812 248.217C157.168 248.245 156.661 248.456 156.605 248.359C156.542 248.274 157.032 247.858 157.795 247.824C158.558 247.784 159.088 248.148 159.031 248.239V248.234Z" fill="#F6F6F6"/>
<path d="M158.495 245.454C158.495 245.5 158.046 245.568 157.322 245.437C156.963 245.375 156.542 245.249 156.098 245.05C155.876 244.947 155.654 244.828 155.426 244.685C155.318 244.617 155.192 244.543 155.073 244.406C154.947 244.287 154.879 243.985 155.027 243.797C155.147 243.621 155.357 243.541 155.528 243.541C155.699 243.541 155.842 243.575 155.967 243.603C156.229 243.666 156.468 243.757 156.69 243.86C157.134 244.065 157.493 244.327 157.766 244.577C158.308 245.084 158.484 245.511 158.45 245.534C158.399 245.574 158.137 245.209 157.59 244.794C157.317 244.583 156.963 244.372 156.548 244.196C156.337 244.11 156.115 244.036 155.876 243.985C155.631 243.917 155.42 243.917 155.352 244.025C155.329 244.065 155.323 244.082 155.375 244.156C155.426 244.224 155.528 244.287 155.631 244.361C155.836 244.498 156.041 244.617 156.246 244.72C156.65 244.925 157.043 245.067 157.374 245.164C158.04 245.358 158.484 245.392 158.478 245.454H158.495Z" fill="#F6F6F6"/>
<path d="M158.342 245.614C158.302 245.631 158.08 245.221 158.04 244.481C158.023 244.116 158.063 243.672 158.211 243.199C158.285 242.966 158.382 242.726 158.513 242.493C158.649 242.265 158.82 241.958 159.264 241.906C159.498 241.901 159.686 242.083 159.748 242.237C159.822 242.396 159.839 242.533 159.868 242.67C159.908 242.943 159.902 243.211 159.868 243.455C159.788 243.951 159.583 244.367 159.361 244.663C158.9 245.267 158.421 245.397 158.416 245.358C158.376 245.301 158.78 245.084 159.133 244.503C159.31 244.219 159.464 243.843 159.509 243.404C159.532 243.188 159.532 242.96 159.492 242.726C159.458 242.476 159.367 242.277 159.27 242.299C159.156 242.299 158.957 242.482 158.86 242.681C158.74 242.892 158.644 243.102 158.564 243.313C158.416 243.735 158.347 244.139 158.33 244.481C158.29 245.164 158.41 245.597 158.347 245.614H158.342Z" fill="#F6F6F6"/>
<path d="M69.1448 205.441L54.0698 202.018L50.106 225.055C52.3271 225.3 58.7967 214.143 58.7967 214.143L66.992 215.857L69.1391 205.441H69.1448Z" fill="#FF4E5B"/>
<path d="M61.0177 207.195C60.9722 206.728 60.5223 206.335 60.0553 206.358C59.5883 206.386 59.1839 206.836 59.2181 207.303C59.2523 207.77 59.7762 208.26 60.2432 208.18C60.7045 208.1 61.1544 207.542 61.0064 207.098" fill="#F6F6F6"/>
<path d="M54.0696 202.023L56.0173 202.337L51.3587 224.343C51.3587 224.343 50.7322 225.288 50.0317 225.043L54.0696 202.023Z" fill="#1A1A1A"/>
<path d="M58.8478 214.536C58.7339 214.513 58.7795 213.944 58.5175 213.329C58.2669 212.708 57.8284 212.338 57.8911 212.241C57.9309 212.138 58.5745 212.423 58.882 213.175C59.2009 213.921 58.9447 214.582 58.8478 214.536Z" fill="#F6F6F6"/>
<path d="M57.4352 216.78C57.3213 216.785 57.2131 216.267 56.803 215.8C56.4044 215.322 55.9089 215.139 55.9317 215.025C55.9317 214.917 56.6037 214.951 57.1049 215.538C57.606 216.119 57.5434 216.791 57.4352 216.774V216.78Z" fill="#F6F6F6"/>
<path d="M54.3086 217.657C54.3029 217.548 54.8895 217.492 55.4591 217.884C56.0286 218.277 56.1823 218.847 56.0798 218.881C55.9773 218.927 55.7039 218.528 55.2369 218.215C54.7756 217.884 54.3086 217.771 54.3143 217.657H54.3086Z" fill="#F6F6F6"/>
<path d="M61.5985 214.803C61.5017 214.741 61.7466 214.251 61.8149 213.607C61.8947 212.964 61.7637 212.434 61.8719 212.394C61.963 212.343 62.299 212.896 62.2079 213.653C62.1225 214.41 61.6783 214.877 61.5985 214.803Z" fill="#F6F6F6"/>
<path d="M64.4232 214.724C64.3776 214.718 64.3833 214.262 64.6282 213.573C64.7478 213.232 64.9358 212.833 65.2091 212.429C65.3458 212.229 65.4996 212.024 65.6761 211.825C65.7616 211.728 65.8527 211.614 66.0065 211.523C66.1431 211.421 66.4564 211.398 66.6158 211.574C66.7753 211.722 66.8152 211.945 66.7867 212.11C66.7639 212.281 66.707 212.412 66.65 212.531C66.5418 212.776 66.4165 213.004 66.2798 213.209C66.0065 213.613 65.6875 213.926 65.3971 214.154C64.8105 214.604 64.3606 214.712 64.3435 214.673C64.315 214.616 64.7137 214.416 65.2148 213.944C65.4654 213.71 65.7331 213.397 65.9723 213.015C66.0919 212.822 66.2001 212.611 66.2912 212.389C66.3994 212.155 66.4336 211.95 66.3368 211.865C66.2969 211.836 66.2855 211.831 66.2058 211.865C66.1317 211.905 66.052 211.996 65.9609 212.087C65.7957 212.269 65.642 212.451 65.5053 212.634C65.2376 213.004 65.0326 213.363 64.8845 213.676C64.5884 214.302 64.4802 214.735 64.4232 214.718V214.724Z" fill="#F6F6F6"/>
<path d="M64.2866 214.547C64.2752 214.502 64.7194 214.348 65.4541 214.433C65.8186 214.479 66.2514 214.587 66.6899 214.809C66.9064 214.917 67.1285 215.054 67.3392 215.225C67.5442 215.402 67.8176 215.618 67.7948 216.062C67.7663 216.29 67.5556 216.449 67.3904 216.489C67.2196 216.541 67.0829 216.529 66.9462 216.535C66.6672 216.535 66.4052 216.478 66.1717 216.404C65.6933 216.244 65.3231 215.977 65.0668 215.709C64.5486 215.157 64.4916 214.661 64.5315 214.661C64.5941 214.633 64.7422 215.066 65.2605 215.504C65.511 215.72 65.8584 215.937 66.2799 216.056C66.4906 216.113 66.7184 216.153 66.9519 216.148C67.2025 216.153 67.4189 216.096 67.4075 216C67.4303 215.886 67.2765 215.658 67.1 215.533C66.912 215.379 66.7184 215.248 66.5248 215.14C66.1318 214.923 65.7445 214.792 65.4142 214.718C64.7422 214.57 64.3037 214.616 64.298 214.553L64.2866 214.547Z" fill="#F6F6F6"/>
<path d="M113.675 156.61C112.844 157.943 104.193 162.499 104.404 176.042L98.7596 205.662L65.0216 202.501L61.895 216.044L104.717 223.106C104.717 223.106 110.759 224.564 114.302 217.48C117.844 210.395 127.321 184.579 127.531 183.952C127.742 183.326 133.574 168.114 133.574 168.114L113.675 156.599V156.61Z" fill="#1A1A1A"/>
<path d="M107.422 166.703C107.348 167.107 105.109 175.684 113.954 182.074C122.799 188.469 148.649 204.928 148.649 204.928L149.326 207.651L147.014 247.813L161.662 248.097C161.662 248.097 165.928 208.607 166.059 204.524C166.195 200.44 165.74 194.854 160.517 190.343C155.346 185.872 133.135 166.703 133.135 166.703C133.135 166.703 114.706 156.503 114.888 156.611C115.07 156.719 108.509 160.717 107.422 166.703Z" fill="#1A1A1A"/>
<path d="M113.675 156.61L115.64 153.985C115.64 153.985 124.199 157.47 129.752 161.491C133.283 164.048 138.454 167.477 137.993 171.11L113.68 156.61H113.675Z" fill="#1A1A1A"/>
<path d="M148.643 204.934C148.643 204.934 148.592 204.911 148.495 204.854C148.387 204.786 148.244 204.706 148.074 204.598C147.686 204.359 147.145 204.017 146.462 203.59C145.049 202.69 143.039 201.414 140.567 199.837C135.601 196.647 128.739 192.245 121.244 187.256C119.364 186.009 117.599 184.699 115.845 183.509C114.108 182.29 112.439 181.071 111.038 179.693C109.626 178.332 108.487 176.794 107.855 175.148C107.211 173.508 107.029 171.862 107.017 170.381C107.029 167.397 107.872 165.068 108.629 163.604C109.016 162.869 109.381 162.34 109.654 161.998C109.785 161.839 109.888 161.713 109.967 161.617C110.041 161.531 110.076 161.491 110.081 161.491C110.081 161.491 110.053 161.542 109.99 161.634C109.916 161.736 109.819 161.867 109.7 162.032C109.449 162.385 109.102 162.921 108.732 163.655C108.014 165.119 107.211 167.431 107.228 170.376C107.251 171.834 107.444 173.457 108.082 175.051C108.709 176.652 109.831 178.155 111.232 179.488C112.621 180.843 114.279 182.045 116.016 183.258C117.775 184.448 119.541 185.758 121.415 187C128.904 191.989 135.755 196.419 140.687 199.654C143.142 201.266 145.135 202.57 146.53 203.487C147.202 203.937 147.732 204.29 148.113 204.541C148.279 204.655 148.415 204.746 148.523 204.82C148.615 204.882 148.66 204.917 148.654 204.922L148.643 204.934Z" fill="#636363"/>
<path d="M149.998 181.253C149.998 181.253 149.907 181.202 149.748 181.077C149.566 180.929 149.338 180.746 149.059 180.519C148.438 180 147.589 179.288 146.564 178.428C144.446 176.617 141.57 174.163 138.397 171.446C135.305 168.61 132.178 166.463 129.878 164.96C128.733 164.208 127.787 163.61 127.144 163.2C126.842 163.006 126.597 162.852 126.398 162.721C126.227 162.613 126.142 162.55 126.147 162.539C126.147 162.528 126.25 162.573 126.426 162.67C126.603 162.767 126.865 162.909 127.201 163.097C127.867 163.479 128.83 164.043 129.991 164.777C132.315 166.235 135.493 168.382 138.591 171.224C141.741 173.964 144.594 176.441 146.695 178.269C147.698 179.157 148.523 179.892 149.133 180.427C149.395 180.667 149.611 180.866 149.788 181.025C149.936 181.162 150.01 181.242 150.004 181.248L149.998 181.253Z" fill="#636363"/>
<path d="M103.902 214.137C103.834 214.183 102.598 212.366 101.151 210.088C99.6991 207.804 98.5772 205.919 98.6455 205.879C98.7139 205.833 99.9497 207.65 101.402 209.928C102.854 212.212 103.976 214.097 103.908 214.137H103.902Z" fill="#636363"/>
<path d="M106.322 211.517C106.271 211.58 104.716 210.395 102.848 208.875C100.98 207.348 99.5111 206.061 99.5623 205.998C99.6136 205.936 101.168 207.12 103.036 208.641C104.904 210.167 106.374 211.454 106.322 211.517Z" fill="#636363"/>
<path d="M155.802 202.325C155.825 202.411 154.11 202.889 152.026 203.555C149.936 204.216 148.261 204.814 148.233 204.734C148.216 204.695 148.62 204.501 149.287 204.227C149.953 203.954 150.887 203.607 151.935 203.271C152.983 202.935 153.945 202.678 154.651 202.519C155.352 202.359 155.796 202.285 155.807 202.325H155.802Z" fill="#636363"/>
<path d="M156.724 207.132C156.724 207.217 155.107 207.263 153.125 207.388C151.137 207.513 149.531 207.673 149.52 207.587C149.508 207.508 151.109 207.217 153.108 207.092C155.107 206.961 156.73 207.052 156.73 207.132H156.724Z" fill="#636363"/>
<path d="M58.2212 246.285C64.1384 240.186 70.7733 236.849 79.2419 236.114C77.2429 232.999 73.6892 226.922 71.6902 223.807C61.046 223.864 52.7823 229.866 47.1897 238.808C51.125 241.644 54.2915 243.449 58.2269 246.285H58.2212Z" fill="#F6F6F6"/>
<path d="M58.2212 246.285C58.2212 246.285 58.1586 246.251 58.0276 246.166C57.8852 246.069 57.6916 245.938 57.4467 245.773C56.9284 245.425 56.188 244.93 55.2427 244.298C53.3291 243.016 50.4758 241.291 47.1157 238.899L47.0303 238.842L47.0872 238.756C48.0554 237.236 49.1773 235.624 50.5214 234.024C51.8825 232.435 53.4658 230.852 55.3053 229.411C57.1448 227.97 59.252 226.683 61.587 225.703C63.922 224.724 66.4849 224.063 69.1445 223.807C69.5659 223.75 69.9931 223.727 70.4145 223.716C70.8359 223.698 71.2574 223.681 71.6788 223.664H71.7585L71.8041 223.733C74.5549 228.089 76.9867 232.321 79.3445 236.046L79.4641 236.233L79.242 236.251C75.7394 236.564 72.5445 237.31 69.8621 238.392C67.1626 239.44 64.9813 240.784 63.2728 241.991C61.5643 243.21 60.3227 244.326 59.4855 245.089L58.5344 245.989C58.4376 246.08 58.3579 246.154 58.2952 246.217C58.244 246.268 58.2155 246.291 58.2155 246.285C58.2155 246.285 58.244 246.251 58.2952 246.194L58.5287 245.949C58.7338 245.739 59.0242 245.42 59.4343 245.027C60.2544 244.241 61.4788 243.108 63.1874 241.86C64.8902 240.624 67.0771 239.258 69.788 238.181C72.4818 237.071 75.6996 236.302 79.2249 235.977L79.1223 236.182C76.7418 232.458 74.3043 228.226 71.5592 223.886L71.6845 223.955C71.2688 223.972 70.853 223.989 70.4316 224.006C70.0101 224.017 69.5944 224.04 69.173 224.097C66.5361 224.353 64.0075 225.003 61.6952 225.971C59.383 226.933 57.2986 228.203 55.4705 229.627C53.6423 231.045 52.0648 232.611 50.7036 234.183C49.3596 235.772 48.2376 237.367 47.2638 238.87L47.2353 238.722C50.567 241.126 53.4031 242.885 55.2996 244.195C56.2507 244.845 56.9797 245.363 57.4751 245.722C57.703 245.892 57.8852 246.029 58.0219 246.132C58.1472 246.228 58.2098 246.28 58.2098 246.285H58.2212Z" fill="#1A1A1A"/>
<path d="M52.0707 236.501C52.122 236.439 53.8362 237.663 55.9093 239.235C57.9823 240.813 59.6168 242.139 59.5655 242.208C59.5143 242.27 57.8001 241.046 55.727 239.468C53.6597 237.891 52.0195 236.564 52.0707 236.496V236.501Z" fill="#1A1A1A"/>
<path d="M54.2518 233.739C54.3087 233.676 55.909 235.049 57.834 236.803C59.7589 238.557 61.2682 240.026 61.2169 240.089C61.1599 240.152 59.5596 238.779 57.6347 237.025C55.7154 235.271 54.2005 233.802 54.2518 233.739Z" fill="#1A1A1A"/>
<path d="M57.5038 231.153C57.538 231.125 57.8911 231.506 58.4663 232.127C59.0358 232.748 59.8331 233.597 60.7216 234.531C61.61 235.465 62.4016 236.325 62.9427 236.979C63.4837 237.634 63.7799 238.062 63.7514 238.09C63.7172 238.119 63.3641 237.737 62.7832 237.122C62.1226 236.433 61.3537 235.63 60.5052 234.741C59.6167 233.807 58.8365 232.93 58.3068 232.275C57.7715 231.615 57.4754 231.188 57.5038 231.165V231.153Z" fill="#1A1A1A"/>
<path d="M66.502 237.088C66.4735 237.111 66.109 236.74 65.568 236.091C65.0326 235.442 64.3264 234.514 63.6145 233.443C62.8969 232.372 62.3046 231.376 61.8775 230.652C61.4561 229.923 61.2055 229.468 61.2454 229.445C61.3251 229.394 62.4527 231.142 63.8651 233.278C64.577 234.343 65.2433 235.282 65.7388 235.96C66.2343 236.638 66.5418 237.054 66.5077 237.082L66.502 237.088Z" fill="#1A1A1A"/>
<path d="M69.0594 236.011C69.0252 236.034 68.7234 235.664 68.2849 235.026C67.8463 234.394 67.2711 233.488 66.6959 232.463C66.1207 231.432 65.6537 230.476 65.3405 229.764C65.0272 229.058 64.8678 228.608 64.9076 228.591C64.9874 228.556 65.8075 230.271 66.9579 232.315C68.1026 234.36 69.1334 235.96 69.0651 236.011H69.0594Z" fill="#1A1A1A"/>
<path d="M72.4818 234.907C72.4476 234.929 72.1458 234.548 71.6901 233.904C71.2345 233.261 70.6365 232.355 70.0101 231.324C69.3836 230.299 68.854 229.348 68.4895 228.648C68.125 227.947 67.9257 227.503 67.9598 227.486C67.994 227.463 68.2617 227.873 68.6717 228.545C69.1387 229.314 69.6741 230.197 70.2664 231.171C70.8587 232.139 71.3997 233.016 71.8667 233.79C72.2767 234.462 72.5159 234.884 72.4818 234.907Z" fill="#1A1A1A"/>
<path d="M104.996 174.259C95.7239 174.458 88.0184 171.964 80.8767 166.047C80.0395 169.999 78.143 177.443 77.3115 181.395C85.6207 189.511 96.6408 191.185 107.843 188.531C106.96 183.314 105.884 179.481 105.001 174.265L104.996 174.259Z" fill="#FAFAFA"/>
<path d="M104.996 174.259C104.996 174.259 105.018 174.339 105.052 174.504C105.087 174.686 105.138 174.937 105.201 175.25C105.337 175.916 105.531 176.867 105.776 178.086C106.277 180.546 107.171 184.077 107.946 188.508L107.963 188.611L107.86 188.633C105.947 189.072 103.839 189.465 101.567 189.676C99.2947 189.864 96.8515 189.881 94.3172 189.585C91.7885 189.288 89.1631 188.679 86.6002 187.648C84.0374 186.623 81.543 185.171 79.2763 183.331C78.9004 183.052 78.5587 182.745 78.217 182.426C77.8753 182.113 77.5336 181.805 77.1976 181.497L77.1406 181.446L77.1577 181.366C78.3594 175.876 79.7205 170.722 80.74 166.024L80.7855 165.807L80.9564 165.95C83.9178 168.393 86.9761 170.261 89.8863 171.474C92.7852 172.727 95.5074 173.359 97.7684 173.729C100.029 174.088 101.846 174.174 103.082 174.225C103.691 174.236 104.17 174.242 104.511 174.253C104.66 174.253 104.779 174.259 104.87 174.265C104.95 174.265 104.99 174.265 104.99 174.27C104.99 174.27 104.944 174.276 104.859 174.282C104.762 174.282 104.642 174.287 104.489 174.293C104.164 174.293 103.697 174.322 103.082 174.316C101.84 174.293 100.018 174.236 97.7399 173.894C95.4676 173.547 92.7282 172.932 89.7952 171.685C86.8508 170.477 83.7698 168.609 80.7798 166.16L80.9962 166.086C79.9882 170.802 78.6384 175.956 77.4425 181.435L77.4026 181.298C77.7386 181.606 78.0746 181.908 78.4106 182.215C78.7467 182.528 79.0884 182.836 79.4585 183.109C81.7024 184.932 84.1684 186.367 86.7028 187.386C89.2371 188.411 91.8341 189.021 94.3399 189.323C96.8515 189.619 99.2719 189.613 101.533 189.436C103.794 189.231 105.89 188.856 107.798 188.428L107.718 188.554C106.972 184.134 106.112 180.592 105.645 178.12C105.4 176.884 105.235 175.922 105.127 175.267C105.081 174.954 105.041 174.709 105.018 174.527C104.996 174.356 104.984 174.265 104.984 174.265L104.996 174.259Z" fill="#1A1A1A"/>
<path d="M102.268 186.572C102.188 186.583 101.795 184.311 101.396 181.503C100.998 178.69 100.741 176.406 100.821 176.395C100.901 176.383 101.294 178.65 101.693 181.463C102.091 184.277 102.347 186.56 102.268 186.572Z" fill="#1A1A1A"/>
<path d="M98.4576 187.044C98.3779 187.044 98.1899 184.755 98.0419 181.919C97.8938 179.083 97.8369 176.782 97.9223 176.776C98.002 176.776 98.1899 179.066 98.338 181.902C98.4861 184.738 98.543 187.039 98.4576 187.044Z" fill="#1A1A1A"/>
<path d="M93.9469 186.566C93.9013 186.566 93.9241 185.991 93.9583 185.074C93.9925 184.157 94.0266 182.887 94.0494 181.48C94.0722 180.074 94.1177 178.798 94.1975 177.881C94.2772 176.958 94.3683 176.394 94.4082 176.4C94.4538 176.4 94.431 176.975 94.4082 177.892C94.3911 178.917 94.3683 180.136 94.3456 181.486C94.3228 182.893 94.2544 184.168 94.1633 185.085C94.0722 186.002 93.9811 186.572 93.9412 186.566H93.9469Z" fill="#1A1A1A"/>
<path d="M91.5094 175.056C91.5492 175.056 91.5436 175.631 91.4638 176.543C91.3841 177.46 91.2132 178.718 90.9456 180.096C90.6836 181.475 90.3817 182.705 90.1596 183.593C89.9318 184.482 89.7781 185.028 89.7382 185.017C89.6983 185.011 89.7838 184.447 89.9546 183.548C90.1539 182.545 90.3931 181.355 90.6551 180.039C90.9228 178.667 91.1221 177.425 91.2531 176.52C91.3841 175.614 91.4638 175.05 91.5094 175.056Z" fill="#1A1A1A"/>
<path d="M88.7019 173.929C88.7417 173.934 88.6848 174.452 88.5367 175.284C88.3886 176.115 88.1437 177.254 87.802 178.496C87.4603 179.738 87.0901 180.842 86.794 181.628C86.4978 182.414 86.2757 182.893 86.2416 182.876C86.2017 182.858 86.3498 182.363 86.5947 181.56C86.8396 180.757 87.1756 179.646 87.5173 178.416C87.859 177.18 88.1324 176.058 88.3317 175.244C88.531 174.43 88.6563 173.923 88.7019 173.929Z" fill="#1A1A1A"/>
<path d="M85.1935 172.163C85.2333 172.169 85.1707 172.698 85.0283 173.547C84.8859 174.395 84.6524 175.557 84.3563 176.833C84.0544 178.109 83.7412 179.253 83.4906 180.079C83.24 180.899 83.0578 181.4 83.0179 181.389C82.9781 181.378 83.092 180.859 83.2856 180.022C83.5077 179.083 83.7754 177.983 84.0658 176.765C84.3506 175.546 84.6069 174.447 84.8233 173.501C85.0169 172.664 85.1536 172.152 85.1935 172.157V172.163Z" fill="#1A1A1A"/>
<path d="M119.57 222.645C114.541 229.638 108.39 233.961 100.012 235.954C102.478 238.779 106.943 244.343 109.409 247.168C120.065 245.534 127.463 238.289 131.74 228.499C127.378 226.244 123.932 224.9 119.57 222.645Z" fill="#F6F6F6"/>
<path d="M119.569 222.645C119.569 222.645 119.638 222.673 119.78 222.736C119.94 222.81 120.15 222.912 120.418 223.043C120.987 223.317 121.802 223.704 122.844 224.2C124.951 225.196 128.067 226.506 131.785 228.403L131.877 228.448L131.837 228.545C131.096 230.214 130.208 231.99 129.097 233.802C127.97 235.596 126.62 237.418 124.985 239.132C123.357 240.846 121.437 242.452 119.239 243.779C117.046 245.106 114.575 246.149 111.944 246.804C111.528 246.923 111.106 247.009 110.685 247.083C110.264 247.162 109.842 247.242 109.426 247.322L109.347 247.339L109.29 247.276C105.884 243.318 102.826 239.434 99.9041 236.057L99.7617 235.886L99.9781 235.835C103.446 235.003 106.533 233.779 109.062 232.292C111.613 230.84 113.595 229.171 115.133 227.708C116.665 226.233 117.741 224.934 118.47 224.04C118.818 223.596 119.091 223.243 119.29 222.998C119.376 222.89 119.444 222.804 119.501 222.736C119.547 222.679 119.569 222.65 119.575 222.656C119.575 222.656 119.552 222.696 119.507 222.759C119.455 222.833 119.393 222.924 119.307 223.038C119.131 223.283 118.886 223.641 118.539 224.097C117.832 225.008 116.773 226.324 115.247 227.827C113.72 229.319 111.733 231.011 109.176 232.492C106.641 234.001 103.532 235.248 100.041 236.102L100.109 235.88C103.048 239.257 106.117 243.136 109.512 247.083L109.375 247.031C109.791 246.952 110.201 246.872 110.622 246.792C111.038 246.718 111.46 246.633 111.87 246.513C114.472 245.87 116.915 244.839 119.085 243.529C121.261 242.219 123.163 240.636 124.78 238.944C126.404 237.247 127.748 235.447 128.881 233.671C129.992 231.882 130.88 230.117 131.632 228.46L131.683 228.602C127.987 226.688 124.883 225.344 122.787 224.313C121.734 223.807 120.931 223.391 120.384 223.106C120.128 222.969 119.928 222.855 119.774 222.776C119.638 222.696 119.564 222.656 119.564 222.65L119.569 222.645Z" fill="#1A1A1A"/>
<path d="M127.184 231.54C127.144 231.614 125.242 230.641 122.935 229.365C120.629 228.089 118.789 227.001 118.829 226.927C118.869 226.853 120.771 227.827 123.084 229.103C125.39 230.373 127.23 231.466 127.19 231.535L127.184 231.54Z" fill="#1A1A1A"/>
<path d="M125.413 234.627C125.367 234.696 123.556 233.557 121.369 232.082C119.182 230.607 117.445 229.359 117.491 229.291C117.536 229.223 119.347 230.362 121.534 231.837C123.721 233.312 125.458 234.559 125.413 234.627Z" fill="#1A1A1A"/>
<path d="M122.537 237.703C122.508 237.737 122.093 237.401 121.432 236.865C120.766 236.33 119.843 235.595 118.818 234.792C117.787 233.989 116.864 233.243 116.232 232.668C115.594 232.093 115.23 231.706 115.258 231.677C115.287 231.643 115.703 231.979 116.369 232.509C117.132 233.101 118.021 233.796 119.006 234.559C120.037 235.362 120.942 236.125 121.574 236.706C122.206 237.287 122.571 237.674 122.542 237.703H122.537Z" fill="#1A1A1A"/>
<path d="M112.639 233.09C112.661 233.061 113.088 233.38 113.721 233.95C114.359 234.519 115.196 235.345 116.073 236.313C116.95 237.276 117.696 238.187 118.225 238.853C118.755 239.519 119.074 239.941 119.04 239.969C118.966 240.032 117.576 238.443 115.851 236.512C114.985 235.55 114.171 234.707 113.573 234.103C112.975 233.5 112.604 233.124 112.633 233.095L112.639 233.09Z" fill="#1A1A1A"/>
<path d="M110.235 234.547C110.264 234.519 110.622 234.849 111.158 235.419C111.693 235.988 112.399 236.808 113.134 237.754C113.863 238.699 114.478 239.593 114.894 240.254C115.309 240.915 115.537 241.347 115.503 241.365C115.429 241.41 114.353 239.81 112.9 237.93C111.454 236.051 110.178 234.599 110.241 234.542L110.235 234.547Z" fill="#1A1A1A"/>
<path d="M106.966 236.165C106.994 236.137 107.359 236.478 107.906 237.053C108.458 237.629 109.193 238.454 109.973 239.388C110.753 240.322 111.425 241.199 111.892 241.843C112.359 242.487 112.627 242.902 112.598 242.931C112.564 242.954 112.24 242.583 111.727 241.974C111.146 241.274 110.48 240.471 109.745 239.582C109.005 238.699 108.333 237.896 107.752 237.196C107.245 236.581 106.937 236.193 106.966 236.165Z" fill="#1A1A1A"/>
<path d="M179.254 222.941C186.294 217.997 193.515 215.936 202.069 216.807C200.674 213.333 198.288 206.624 196.892 203.144C186.305 201.185 176.948 205.587 169.698 213.418C173.07 216.978 175.883 219.375 179.254 222.935V222.941Z" fill="#FAFAFA"/>
<path d="M179.254 222.941C179.254 222.941 179.198 222.895 179.084 222.781C178.958 222.656 178.793 222.491 178.582 222.28C178.133 221.836 177.489 221.204 176.669 220.395C175.006 218.761 172.5 216.5 169.613 213.493L169.539 213.419L169.607 213.344C170.854 212.018 172.272 210.628 173.912 209.29C175.564 207.968 177.438 206.693 179.539 205.611C181.641 204.528 183.976 203.646 186.482 203.116C188.987 202.581 191.658 202.41 194.352 202.66C194.785 202.683 195.212 202.74 195.634 202.808C196.055 202.871 196.482 202.934 196.898 202.996L196.978 203.008L197.006 203.088C198.92 207.934 200.531 212.604 202.172 216.75L202.251 216.955L202.029 216.932C198.487 216.579 195.172 216.722 192.302 217.291C189.42 217.827 187 218.743 185.069 219.621C183.139 220.509 181.698 221.38 180.718 221.984C180.24 222.292 179.87 222.531 179.602 222.702L179.317 222.878C179.254 222.918 179.22 222.935 179.22 222.929C179.22 222.929 179.254 222.901 179.317 222.855C179.391 222.804 179.482 222.736 179.596 222.656C179.841 222.485 180.194 222.223 180.667 221.91C181.635 221.284 183.065 220.389 184.995 219.472C186.926 218.567 189.352 217.622 192.251 217.069C195.138 216.477 198.481 216.323 202.052 216.665L201.915 216.847C200.258 212.695 198.635 208.031 196.727 203.19L196.835 203.281C196.42 203.219 196.004 203.156 195.582 203.093C195.161 203.025 194.74 202.968 194.312 202.945C191.647 202.7 189.005 202.865 186.527 203.389C184.044 203.908 181.732 204.779 179.647 205.844C177.563 206.909 175.701 208.168 174.049 209.472C172.415 210.799 170.997 212.166 169.744 213.481V213.333C172.603 216.352 175.086 218.635 176.726 220.298C177.552 221.124 178.178 221.779 178.6 222.229C178.793 222.445 178.947 222.616 179.067 222.741C179.175 222.861 179.226 222.924 179.226 222.929L179.254 222.941Z" fill="#1A1A1A"/>
<path d="M174.994 212.052C175.057 211.995 176.532 213.538 178.292 215.497C180.052 217.456 181.43 219.091 181.367 219.142C181.304 219.199 179.829 217.656 178.07 215.697C176.31 213.738 174.932 212.109 174.994 212.052Z" fill="#1A1A1A"/>
<path d="M177.683 209.717C177.751 209.666 179.084 211.334 180.661 213.442C182.239 215.549 183.469 217.297 183.401 217.343C183.338 217.394 182 215.725 180.422 213.618C178.844 211.511 177.614 209.763 177.683 209.717Z" fill="#1A1A1A"/>
<path d="M181.402 207.763C181.441 207.74 181.721 208.19 182.17 208.914C182.62 209.637 183.253 210.634 183.959 211.727C184.665 212.821 185.291 213.829 185.701 214.58C186.117 215.332 186.334 215.816 186.299 215.833C186.26 215.856 185.981 215.406 185.525 214.689C185.001 213.88 184.392 212.934 183.714 211.887C183.008 210.793 182.398 209.774 181.994 209.016C181.59 208.259 181.373 207.775 181.407 207.758L181.402 207.763Z" fill="#1A1A1A"/>
<path d="M189.227 215.366C189.192 215.383 188.902 214.945 188.486 214.199C188.076 213.453 187.552 212.394 187.045 211.198C186.538 210.002 186.134 208.897 185.849 208.094C185.565 207.291 185.405 206.789 185.445 206.772C185.536 206.738 186.322 208.692 187.319 211.078C187.82 212.268 188.31 213.333 188.674 214.102C189.039 214.871 189.266 215.344 189.227 215.366Z" fill="#1A1A1A"/>
<path d="M191.972 214.78C191.937 214.797 191.704 214.37 191.391 213.652C191.072 212.94 190.673 211.932 190.297 210.799C189.921 209.666 189.637 208.623 189.46 207.86C189.283 207.097 189.209 206.619 189.249 206.613C189.335 206.596 189.825 208.458 190.582 210.708C191.328 212.957 192.057 214.746 191.977 214.78H191.972Z" fill="#1A1A1A"/>
<path d="M195.582 214.33C195.548 214.347 195.315 213.908 194.984 213.185C194.654 212.462 194.233 211.442 193.8 210.303C193.373 209.164 193.025 208.122 192.792 207.359C192.564 206.596 192.444 206.117 192.484 206.106C192.524 206.095 192.706 206.55 192.991 207.296C193.31 208.15 193.674 209.124 194.079 210.206C194.483 211.283 194.853 212.257 195.178 213.111C195.457 213.857 195.616 214.324 195.582 214.335V214.33Z" fill="#1A1A1A"/>
<path d="M119.712 214.273C122.702 216.494 126.871 216.551 130.402 215.361C133.933 214.177 136.985 211.916 140.004 209.734C143.022 207.547 146.149 205.366 149.737 204.375L141.359 187.586C141.359 187.586 133.329 190.741 127.964 196.823C123.624 201.744 113.743 199.506 113.743 199.506L119.706 214.268L119.712 214.273Z" fill="#FAFAFA"/>
<path d="M119.712 214.273C119.712 214.273 119.666 214.193 119.592 214.022C119.513 213.84 119.41 213.59 119.273 213.271C118.989 212.587 118.584 211.608 118.06 210.349C117.012 207.786 115.503 204.102 113.647 199.551L113.573 199.363L113.772 199.403C115.771 199.802 118.015 199.99 120.378 199.836C121.557 199.739 122.764 199.534 123.96 199.164C125.151 198.782 126.301 198.173 127.275 197.302C127.748 196.863 128.209 196.368 128.676 195.866C129.149 195.371 129.65 194.898 130.162 194.426C131.199 193.491 132.321 192.62 133.5 191.777C135.875 190.126 138.477 188.639 141.308 187.449L141.433 187.398L141.496 187.523C141.837 188.212 142.213 188.952 142.584 189.699C145.152 194.847 147.612 199.79 149.868 204.312L149.942 204.466L149.776 204.512C147.436 205.161 145.351 206.288 143.461 207.496C141.57 208.709 139.856 210.007 138.198 211.181C136.541 212.354 134.935 213.402 133.346 214.21C131.763 215.019 130.208 215.606 128.744 215.896C127.286 216.209 125.931 216.249 124.769 216.147C123.607 216.039 122.633 215.777 121.876 215.486C121.113 215.201 120.583 214.871 120.224 214.643C120.059 214.524 119.934 214.433 119.837 214.364C119.752 214.302 119.712 214.267 119.712 214.267C119.74 214.227 120.395 214.843 121.91 215.401C122.662 215.68 123.63 215.919 124.781 216.016C125.931 216.101 127.269 216.044 128.71 215.725C130.157 215.423 131.689 214.837 133.255 214.022C134.821 213.208 136.416 212.16 138.067 210.981C139.719 209.808 141.427 208.498 143.33 207.274C145.226 206.055 147.333 204.905 149.708 204.238L149.623 204.438C147.362 199.916 144.896 194.978 142.322 189.83C141.951 189.083 141.581 188.343 141.234 187.654L141.422 187.728C138.625 188.901 136.028 190.388 133.671 192.022C132.503 192.854 131.387 193.719 130.356 194.642C129.849 195.109 129.348 195.576 128.881 196.066C128.42 196.561 127.964 197.051 127.463 197.512C126.455 198.412 125.259 199.033 124.046 199.42C122.827 199.796 121.597 199.995 120.401 200.092C118.003 200.235 115.759 200.041 113.726 199.625L113.852 199.477C115.674 204.039 117.143 207.729 118.168 210.292C118.67 211.562 119.057 212.553 119.33 213.242C119.456 213.573 119.552 213.829 119.626 214.017C119.689 214.193 119.718 214.284 119.718 214.284L119.712 214.273Z" fill="#1A1A1A"/>
<path d="M124.763 213.208C124.689 213.242 123.573 210.828 122.274 207.826C120.976 204.819 119.985 202.359 120.059 202.325C120.133 202.291 121.249 204.7 122.548 207.707C123.846 210.714 124.837 213.174 124.763 213.208Z" fill="#1A1A1A"/>
<path d="M128.391 212.816C128.317 212.855 127.059 210.572 125.578 207.713C124.097 204.859 122.958 202.513 123.026 202.473C123.1 202.433 124.359 204.717 125.84 207.576C127.32 210.429 128.46 212.776 128.391 212.816Z" fill="#1A1A1A"/>
<path d="M131.085 211.733C131.045 211.75 130.755 211.18 130.293 210.258C129.832 209.335 129.183 208.06 128.442 206.67C127.696 205.28 126.996 204.039 126.483 203.139C125.971 202.239 125.658 201.681 125.692 201.658C125.726 201.635 126.102 202.154 126.66 203.031C127.218 203.902 127.953 205.132 128.699 206.528C129.445 207.923 130.06 209.216 130.476 210.161C130.891 211.112 131.114 211.71 131.079 211.727L131.085 211.733Z" fill="#1A1A1A"/>
<path d="M133.893 209.318C133.858 209.341 133.522 208.829 132.998 207.992C132.417 207.075 131.711 205.97 130.931 204.745C130.128 203.532 129.405 202.439 128.807 201.533C128.26 200.713 127.924 200.201 127.958 200.178C127.992 200.155 128.385 200.622 128.978 201.414C129.57 202.205 130.362 203.322 131.182 204.586C132.002 205.85 132.702 207.023 133.181 207.889C133.659 208.755 133.932 209.301 133.898 209.324L133.893 209.318Z" fill="#1A1A1A"/>
<path d="M136.603 207.308C136.569 207.331 136.171 206.858 135.556 206.066C134.94 205.275 134.126 204.153 133.26 202.894C132.395 201.63 131.654 200.462 131.136 199.602C130.618 198.742 130.327 198.196 130.362 198.173C130.396 198.15 130.755 198.657 131.313 199.488C131.928 200.4 132.674 201.505 133.505 202.723C134.343 203.936 135.1 205.035 135.726 205.941C136.296 206.767 136.638 207.279 136.603 207.308Z" fill="#1A1A1A"/>
<path d="M138.853 205.246C138.819 205.269 138.42 204.796 137.805 204.005C137.19 203.213 136.376 202.091 135.51 200.833C134.644 199.568 133.904 198.401 133.386 197.541C132.867 196.681 132.577 196.134 132.611 196.111C132.645 196.089 133.004 196.595 133.562 197.427C134.177 198.338 134.923 199.443 135.755 200.662C136.592 201.875 137.349 202.974 137.976 203.88C138.545 204.705 138.887 205.218 138.853 205.246Z" fill="#1A1A1A"/>
<path d="M141.319 203.555C141.251 203.6 139.776 201.624 138.016 199.136C136.256 196.647 134.889 194.591 134.958 194.545C135.026 194.5 136.501 196.476 138.261 198.965C140.015 201.453 141.387 203.509 141.319 203.555Z" fill="#1A1A1A"/>
<path d="M143.427 202.74C143.392 202.757 143.056 202.182 142.567 201.22C142.048 200.177 141.405 198.885 140.693 197.455C139.958 195.992 139.263 194.682 138.717 193.759C138.176 192.831 137.794 192.29 137.834 192.261C137.862 192.238 138.307 192.745 138.893 193.651C139.491 194.551 140.22 195.855 140.955 197.324C141.69 198.794 142.31 200.149 142.755 201.129C143.199 202.108 143.466 202.718 143.427 202.74Z" fill="#1A1A1A"/>
<path d="M30.9814 197.199C33.9714 199.42 38.1402 199.477 41.6712 198.287C45.2022 197.102 48.2548 194.841 51.2732 192.66C54.2916 190.473 57.4183 188.292 61.0062 187.301L52.6287 170.511C52.6287 170.511 44.5985 173.667 39.2337 179.749C34.894 184.67 25.0129 182.431 25.0129 182.431L30.9757 197.193L30.9814 197.199Z" fill="#FAFAFA"/>
<path d="M30.9814 197.199C30.9814 197.199 30.9358 197.119 30.8618 196.948C30.7821 196.766 30.6796 196.516 30.5429 196.197C30.2581 195.513 29.8538 194.534 29.3298 193.275C28.2819 190.712 26.7727 187.028 24.9161 182.477L24.842 182.289L25.0414 182.329C27.0404 182.728 29.2842 182.916 31.6477 182.762C32.8266 182.659 34.034 182.46 35.23 182.09C36.4203 181.708 37.5707 181.099 38.5445 180.228C39.0172 179.789 39.4785 179.294 39.9455 178.792C40.4182 178.297 40.9194 177.824 41.432 177.352C42.4685 176.418 43.5904 175.546 44.7693 174.703C47.1442 173.052 49.7469 171.565 52.5774 170.375L52.7026 170.324L52.7653 170.449C53.107 171.138 53.4829 171.879 53.8531 172.625C56.4216 177.773 58.8819 182.716 61.1371 187.238L61.2112 187.392L61.046 187.438C58.7053 188.087 56.6209 189.215 54.7301 190.422C52.8393 191.635 51.1251 192.933 49.4678 194.107C47.8105 195.28 46.2045 196.328 44.6156 197.136C43.0323 197.945 41.4775 198.532 40.0139 198.822C38.5559 199.135 37.2005 199.175 36.0387 199.073C34.8769 198.965 33.903 198.703 33.1455 198.412C32.3824 198.127 31.8528 197.797 31.494 197.569C31.3288 197.45 31.2035 197.359 31.1067 197.29C31.0213 197.228 30.9814 197.193 30.9814 197.193C31.0099 197.154 31.6648 197.769 33.1797 198.327C33.9315 198.606 34.8997 198.845 36.0501 198.942C37.2005 199.027 38.5388 198.97 39.9797 198.651C41.4263 198.35 42.9583 197.763 44.5244 196.948C46.0906 196.134 47.6852 195.086 49.3368 193.907C50.9884 192.734 52.697 191.424 54.5991 190.2C56.4956 188.981 58.6028 187.831 60.9777 187.164L60.8923 187.364C58.6313 182.842 56.1653 177.904 53.5911 172.756C53.2209 172.01 52.8507 171.269 52.5033 170.58L52.6913 170.654C49.8949 171.827 47.298 173.314 44.9402 174.948C43.7727 175.78 42.6564 176.645 41.6256 177.568C41.1187 178.035 40.6176 178.502 40.1506 178.992C39.6893 179.487 39.2337 179.977 38.7325 180.438C37.7244 181.338 36.5285 181.959 35.3154 182.346C34.0966 182.722 32.8665 182.921 31.6705 183.018C29.2729 183.161 27.029 182.967 24.9958 182.551L25.1211 182.403C26.9379 186.965 28.4129 190.65 29.438 193.218C29.9392 194.488 30.3265 195.479 30.5998 196.168C30.7251 196.499 30.8219 196.755 30.896 196.943C30.9586 197.119 30.9871 197.21 30.9871 197.21L30.9814 197.199Z" fill="#1A1A1A"/>
<path d="M36.033 196.128C35.959 196.162 34.8427 193.748 33.5443 190.746C32.2458 187.739 31.2548 185.279 31.3288 185.245C31.4029 185.211 32.5191 187.62 33.8176 190.627C35.1161 193.634 36.1071 196.094 36.033 196.128Z" fill="#1A1A1A"/>
<path d="M39.6607 195.735C39.5867 195.775 38.328 193.491 36.8473 190.632C35.3666 187.779 34.2275 185.433 34.2959 185.393C34.3699 185.353 35.6286 187.637 37.1093 190.496C38.59 193.349 39.729 195.695 39.6607 195.735Z" fill="#1A1A1A"/>
<path d="M42.3604 194.659C42.3206 194.676 42.0301 194.106 41.5688 193.184C41.1075 192.261 40.4583 190.986 39.7179 189.596C38.9718 188.206 38.2713 186.965 37.7588 186.065C37.2462 185.165 36.933 184.607 36.9671 184.584C37.0013 184.561 37.3772 185.08 37.9353 185.957C38.4934 186.828 39.2281 188.058 39.9742 189.454C40.7202 190.849 41.3353 192.142 41.751 193.087C42.1668 194.038 42.3889 194.636 42.3547 194.653L42.3604 194.659Z" fill="#1A1A1A"/>
<path d="M45.1682 192.238C45.134 192.261 44.798 191.749 44.274 190.911C43.6931 189.995 42.9869 188.89 42.2067 187.665C41.4037 186.452 40.6804 185.359 40.0824 184.453C39.5357 183.633 39.1997 183.121 39.2338 183.098C39.268 183.075 39.661 183.542 40.2533 184.334C40.8456 185.125 41.6372 186.241 42.4573 187.506C43.2774 188.77 43.9779 189.943 44.4563 190.809C44.9347 191.675 45.208 192.221 45.1739 192.244L45.1682 192.238Z" fill="#1A1A1A"/>
<path d="M47.8789 190.228C47.8447 190.251 47.446 189.778 46.831 188.987C46.2159 188.195 45.4015 187.073 44.5358 185.815C43.6702 184.55 42.9298 183.383 42.4115 182.523C41.8933 181.663 41.6028 181.116 41.637 181.093C41.6712 181.07 42.03 181.577 42.5881 182.409C43.2032 183.32 43.9492 184.425 44.7807 185.644C45.6179 186.857 46.3753 187.956 47.0018 188.861C47.5713 189.687 47.913 190.2 47.8789 190.228Z" fill="#1A1A1A"/>
<path d="M50.123 188.167C50.0888 188.189 49.6902 187.717 49.0751 186.925C48.46 186.133 47.6456 185.011 46.78 183.753C45.9143 182.488 45.1739 181.321 44.6557 180.461C44.1374 179.601 43.847 179.054 43.8811 179.031C43.9153 179.009 44.2741 179.516 44.8322 180.347C45.4473 181.258 46.1934 182.363 47.0248 183.582C47.862 184.795 48.6195 185.894 49.2459 186.8C49.8155 187.625 50.1572 188.138 50.123 188.167Z" fill="#1A1A1A"/>
<path d="M52.5888 186.475C52.5204 186.521 51.0454 184.544 49.2856 182.056C47.5258 179.567 46.159 177.511 46.2273 177.465C46.2957 177.42 47.7707 179.396 49.5305 181.885C51.2846 184.374 52.6571 186.43 52.5888 186.475Z" fill="#1A1A1A"/>
<path d="M54.6961 185.666C54.6619 185.683 54.3259 185.108 53.8361 184.146C53.3178 183.104 52.6743 181.811 51.9624 180.381C51.2277 178.918 50.5329 177.608 49.9862 176.685C49.4451 175.757 49.0636 175.216 49.1034 175.187C49.1319 175.164 49.5761 175.671 50.1627 176.577C50.7607 177.477 51.4897 178.781 52.2244 180.25C52.959 181.72 53.5798 183.075 54.024 184.055C54.4683 185.034 54.7359 185.644 54.6961 185.666Z" fill="#1A1A1A"/>
</g>
<defs>
<clipPath id="clip0_12512_188727">
<rect width="260" height="257.978" fill="white" transform="translate(0 0.0107422)"/>
</clipPath>
</defs>
</svg>
