<svg width="260" height="240" viewBox="0 0 260 240" fill="none" xmlns="http://www.w3.org/2000/svg">
<g clip-path="url(#clip0_12512_188537)">
<path d="M240.324 25.1232C243.124 23.9512 245.116 21.0605 245.128 17.6597C245.146 13.2023 241.775 9.57688 237.597 9.55866C233.419 9.54044 230.019 13.1355 230 17.5929C229.988 21.0241 231.992 23.9451 234.822 25.1232C223.181 26.8782 223.709 39.5278 223.709 39.5278L251.237 39.6554C251.237 39.6554 251.862 26.8661 240.324 25.1232Z" fill="#FAFAFA"/>
<path d="M230.65 74.131L233.717 75.7888L232.338 78.0965L229.241 76.2686L229.296 79.6754H226.648L226.678 76.2382L223.581 78.0965L222.227 75.7888L225.294 74.131L222.227 72.4427L223.581 70.1351L226.678 71.9933L226.648 68.5562H229.296L229.241 71.9933L232.338 70.1351L233.717 72.4427L230.65 74.131Z" fill="#F6F6F6"/>
<path d="M243.427 74.131L246.494 75.7888L245.116 78.0965L242.018 76.2686L242.073 79.6754H239.425L239.456 76.2382L236.359 78.0965L235.004 75.7888L238.071 74.131L235.004 72.4427L236.359 70.1351L239.456 71.9933L239.425 68.5562H242.073L242.018 71.9933L245.116 70.1351L246.494 72.4427L243.427 74.131Z" fill="#F6F6F6"/>
<path d="M256.204 74.131L259.271 75.7888L257.892 78.0965L254.795 76.2686L254.85 79.6754H252.202L252.233 76.2382L249.135 78.0965L247.781 75.7888L250.848 74.131L247.781 72.4427L249.135 70.1351L252.233 71.9933L252.202 68.5562H254.85L254.795 71.9933L257.892 70.1351L259.271 72.4427L256.204 74.131Z" fill="#F6F6F6"/>
<path d="M206.341 2.91016H97.8568C95.6566 2.91016 93.873 4.69374 93.873 6.8939V106.7C93.873 108.9 95.6566 110.684 97.8568 110.684H206.341C208.541 110.684 210.325 108.9 210.325 106.7V6.8939C210.325 4.69374 208.541 2.91016 206.341 2.91016Z" fill="white"/>
<path d="M206.341 110.684C206.341 110.684 206.438 110.672 206.626 110.659C206.815 110.647 207.1 110.605 207.458 110.502C207.817 110.392 208.254 110.204 208.697 109.87C209.14 109.536 209.596 109.056 209.906 108.394C210.252 107.738 210.319 106.906 210.288 106.002C210.288 105.097 210.288 104.101 210.282 103.026C210.282 100.876 210.276 98.3924 210.27 95.5989C210.258 84.4189 210.24 68.2532 210.221 48.2798C210.221 38.2901 210.209 27.3469 210.203 15.6022C210.203 12.669 210.191 9.68728 210.185 6.65089C210.112 5.18128 209.098 3.79668 207.689 3.28657C206.991 2.99508 206.232 3.04366 205.448 3.04366C204.671 3.04366 203.894 3.04366 203.11 3.04366C196.855 3.04366 190.412 3.04366 183.811 3.04973C157.394 3.04973 128.354 3.05581 97.875 3.06188C96.958 3.06188 96.0532 3.39588 95.3609 3.99709C94.6686 4.59222 94.201 5.44241 94.0795 6.34118C94.0188 6.78449 94.0431 7.26424 94.037 7.73792V9.15288C94.037 10.0942 94.037 11.0415 94.037 11.9828C94.037 15.7479 94.037 19.4888 94.037 23.1992C94.037 30.6202 94.037 37.9379 94.037 45.128C94.037 59.5023 94.0309 73.3725 94.0248 86.5808C94.0248 93.188 94.0248 99.6252 94.0188 105.88C94.0188 106.269 94.0066 106.67 94.037 107.04C94.0795 107.41 94.1524 107.787 94.2981 108.133C94.5775 108.832 95.0633 109.433 95.6766 109.858C96.29 110.283 97.0187 110.52 97.7596 110.538C98.5248 110.538 99.2839 110.538 100.043 110.544C103.079 110.544 106.067 110.544 109 110.544C120.745 110.55 131.688 110.556 141.678 110.562C161.651 110.587 177.817 110.599 188.997 110.611C194.578 110.623 198.914 110.635 201.859 110.641C203.329 110.647 204.446 110.653 205.205 110.659C205.958 110.659 206.347 110.678 206.347 110.678C206.347 110.678 205.958 110.69 205.205 110.696C204.446 110.696 203.329 110.702 201.859 110.714C198.914 110.72 194.578 110.732 188.997 110.744C177.823 110.757 161.657 110.775 141.678 110.793C131.688 110.793 120.745 110.805 109 110.811C106.061 110.811 103.079 110.811 100.043 110.811C99.2839 110.811 98.5187 110.811 97.7535 110.811C96.9641 110.793 96.1746 110.538 95.5187 110.082C94.8629 109.627 94.3406 108.983 94.0431 108.236C93.8852 107.866 93.8062 107.465 93.7637 107.064C93.7333 106.657 93.7516 106.275 93.7455 105.88C93.7455 99.6252 93.7455 93.1819 93.7394 86.5808C93.7394 73.3725 93.7394 59.5084 93.7273 45.128C93.7273 37.9379 93.7273 30.6262 93.7273 23.1992C93.7273 19.4888 93.7273 15.7479 93.7273 11.9828C93.7273 11.0415 93.7273 10.1002 93.7273 9.15288V7.73792C93.7273 7.26424 93.703 6.79664 93.7759 6.29867C93.9095 5.32095 94.4074 4.39789 95.1605 3.76025C95.9074 3.11046 96.8912 2.74609 97.8811 2.74609C128.36 2.74609 157.4 2.75217 183.817 2.75824C190.418 2.75824 196.861 2.75824 203.116 2.76431H205.454C206.213 2.76431 207.045 2.71573 207.792 3.03152C209.298 3.57807 210.385 5.05982 210.458 6.63267C210.458 9.66906 210.458 12.6569 210.464 15.5961C210.458 27.3409 210.452 38.284 210.446 48.2737C210.428 68.2471 210.41 84.4189 210.398 95.5928C210.398 98.3863 210.385 100.864 210.385 103.02C210.385 104.095 210.385 105.085 210.379 105.996C210.41 106.894 210.331 107.757 209.978 108.419C209.663 109.093 209.195 109.578 208.746 109.906C208.29 110.24 207.847 110.423 207.489 110.526C207.124 110.623 206.839 110.659 206.645 110.665C206.456 110.672 206.359 110.672 206.359 110.672L206.341 110.684Z" fill="#1A1A1A"/>
<path d="M102.66 10.3804C102.66 11.4917 101.762 12.3905 100.644 12.3905C99.5267 12.3905 98.634 11.4917 98.634 10.3804C98.634 9.2691 99.5328 8.36426 100.644 8.36426C101.755 8.36426 102.66 9.26303 102.66 10.3804Z" fill="#1A1A1A"/>
<path d="M106.529 12.3893C107.639 12.3893 108.539 11.4894 108.539 10.3792C108.539 9.26909 107.639 8.36914 106.529 8.36914C105.419 8.36914 104.519 9.26909 104.519 10.3792C104.519 11.4894 105.419 12.3893 106.529 12.3893Z" fill="#1A1A1A"/>
<path d="M112.407 12.3893C113.517 12.3893 114.417 11.4894 114.417 10.3792C114.417 9.26909 113.517 8.36914 112.407 8.36914C111.297 8.36914 110.397 9.26909 110.397 10.3792C110.397 11.4894 111.297 12.3893 112.407 12.3893Z" fill="#1A1A1A"/>
<path d="M210.325 16.0949C210.325 16.1799 184.254 16.2528 152.105 16.2528C119.956 16.2528 93.8792 16.1799 93.8792 16.0949C93.8792 16.0099 119.944 15.937 152.105 15.937C184.266 15.937 210.325 16.0099 210.325 16.0949Z" fill="#1A1A1A"/>
<path d="M168.55 56.6909C168.55 56.6909 168.599 56.6241 168.69 56.5026L168.769 56.3994C168.793 56.3569 168.817 56.3144 168.848 56.2658C168.902 56.1686 168.975 56.0533 169.024 55.9136C169.054 55.8468 169.084 55.7739 169.115 55.695L169.188 55.4399C169.218 55.3488 169.23 55.2577 169.248 55.1545C169.26 55.0512 169.291 54.9541 169.291 54.8387C169.339 54.4015 169.309 53.8913 169.224 53.3266C169.048 52.197 168.568 50.8671 167.839 49.4218C167.105 47.9704 166.097 46.4158 164.858 44.7882C163.619 43.1607 162.131 41.4847 160.412 39.7964C158.7 38.1143 156.757 36.42 154.583 34.8167C153.496 34.0151 152.348 33.2378 151.133 32.5091C149.925 31.7743 148.649 31.0941 147.301 30.499C145.959 29.916 144.538 29.4059 143.038 29.163C142.291 29.0476 141.52 28.9929 140.767 29.1083C140.39 29.1691 140.02 29.2723 139.668 29.4241C139.322 29.5941 139.006 29.8128 138.745 30.0982C138.496 30.3897 138.308 30.7298 138.18 31.0881C138.065 31.4524 138.004 31.835 137.986 32.2176C137.955 32.9828 138.101 33.7419 138.301 34.4706C138.708 35.9281 139.376 37.2823 140.111 38.5515C140.852 39.8207 141.678 41.011 142.54 42.1284C143.403 43.2458 144.307 44.3024 145.224 45.2923C147.064 47.272 148.965 49.0088 150.836 50.521C152.706 52.0331 154.546 53.3205 156.301 54.365C158.056 55.4095 159.72 56.2354 161.244 56.8002C162.763 57.365 164.141 57.6868 165.283 57.7354C165.854 57.7597 166.364 57.7293 166.789 57.6322C166.898 57.614 166.995 57.5775 167.092 57.5532C167.19 57.5289 167.287 57.4986 167.366 57.4621L167.609 57.365C167.682 57.3285 167.754 57.286 167.821 57.2496C167.955 57.1828 168.058 57.0978 168.155 57.031C168.198 56.9945 168.246 56.9702 168.283 56.9399L168.374 56.8488C168.483 56.7395 168.544 56.6909 168.544 56.6909C168.544 56.6909 168.489 56.7456 168.38 56.8549L168.289 56.946C168.252 56.9763 168.21 57.0067 168.161 57.0431C168.07 57.1099 167.967 57.1949 167.833 57.2617C167.767 57.2982 167.7 57.3407 167.621 57.3771L167.372 57.4804C167.287 57.5168 167.196 57.5472 167.092 57.5715C166.995 57.5957 166.892 57.6383 166.783 57.6504C166.352 57.7476 165.842 57.784 165.265 57.7597C164.117 57.7172 162.732 57.4014 161.208 56.8366C159.678 56.2779 158.014 55.4581 156.253 54.4136C154.491 53.3691 152.651 52.0817 150.775 50.5695C148.905 49.0574 146.998 47.3206 145.152 45.3409C144.228 44.351 143.324 43.2943 142.461 42.1709C141.593 41.0535 140.767 39.8571 140.02 38.5879C139.285 37.3127 138.611 35.9584 138.198 34.4827C137.998 33.7479 137.852 32.9828 137.882 32.2054C137.895 31.8168 137.961 31.4281 138.077 31.0516C138.21 30.6812 138.399 30.329 138.66 30.0314C138.927 29.7399 139.255 29.5091 139.607 29.3391C139.965 29.1751 140.348 29.0719 140.731 29.0112C141.502 28.8958 142.279 28.9504 143.032 29.0658C144.538 29.3087 145.965 29.8249 147.313 30.4079C148.662 31.003 149.943 31.6893 151.151 32.4241C152.366 33.1589 153.514 33.9362 154.607 34.7378C156.787 36.3471 158.73 38.0414 160.443 39.7296C162.155 41.4179 163.643 43.1061 164.882 44.7336C166.121 46.3611 167.129 47.9279 167.858 49.3853C168.586 50.8367 169.066 52.1728 169.236 53.3084C169.321 53.8731 169.345 54.3893 169.297 54.8266C169.297 54.9359 169.267 55.0391 169.248 55.1423C169.23 55.2456 169.218 55.3367 169.188 55.4278L169.115 55.6828C169.084 55.7618 169.054 55.8346 169.024 55.9075C168.969 56.0472 168.902 56.1626 168.841 56.2597C168.811 56.3083 168.787 56.3569 168.763 56.3933L168.684 56.4966C168.586 56.618 168.538 56.6788 168.538 56.6788L168.55 56.6909Z" fill="#FF4E5B"/>
<path d="M174.058 43.3854C174.058 43.3854 174.052 43.3065 174.04 43.1546L174.028 43.0271C174.022 42.9785 174.009 42.93 173.997 42.8753C173.973 42.766 173.949 42.6324 173.894 42.4927C173.87 42.4198 173.845 42.347 173.815 42.268C173.779 42.1951 173.736 42.1162 173.7 42.0312C173.663 41.9462 173.609 41.8672 173.554 41.7822C173.499 41.6972 173.451 41.6061 173.378 41.5211C173.123 41.1628 172.758 40.8045 172.321 40.4401C171.441 39.7114 170.196 39.0373 168.684 38.4482C167.171 37.8531 165.38 37.3612 163.376 36.9726C161.372 36.5839 159.137 36.3228 156.738 36.2074C154.34 36.092 151.765 36.1224 149.075 36.3774C147.732 36.5049 146.354 36.6932 144.963 36.9483C143.573 37.2094 142.164 37.5434 140.767 37.9989C139.376 38.4604 137.973 39.0252 136.698 39.8389C136.067 40.2519 135.453 40.7195 134.967 41.3085C134.725 41.6061 134.518 41.9279 134.36 42.2741C134.214 42.6263 134.129 43.0028 134.123 43.3915C134.129 43.7741 134.214 44.1567 134.36 44.5089C134.518 44.8611 134.725 45.183 134.967 45.4805C135.453 46.0696 136.067 46.5433 136.698 46.9501C137.973 47.77 139.376 48.3287 140.767 48.7902C142.164 49.2456 143.573 49.5857 144.963 49.8408C146.354 50.1019 147.726 50.2841 149.075 50.4116C151.765 50.6667 154.34 50.691 156.744 50.5817C159.143 50.4663 161.372 50.2051 163.382 49.8165C165.386 49.4278 167.177 48.9359 168.69 48.3408C170.202 47.7517 171.441 47.0777 172.327 46.3489C172.764 45.9846 173.129 45.6263 173.384 45.268C173.457 45.183 173.505 45.0858 173.56 45.0068C173.615 44.9218 173.669 44.8429 173.706 44.7579L173.821 44.521C173.851 44.4421 173.876 44.3692 173.9 44.2963C173.955 44.1567 173.979 44.0231 174.003 43.9137C174.015 43.8591 174.028 43.8044 174.034 43.7619L174.046 43.6344C174.058 43.4826 174.064 43.4036 174.064 43.4036C174.064 43.4036 174.064 43.4826 174.052 43.6344V43.7619C174.04 43.8105 174.028 43.8591 174.015 43.9198C173.991 44.0291 173.973 44.1627 173.918 44.3024C173.894 44.3753 173.87 44.4481 173.839 44.5271L173.724 44.7639C173.688 44.849 173.633 44.934 173.578 45.019C173.524 45.104 173.475 45.2012 173.402 45.2862C173.147 45.6506 172.789 46.0149 172.345 46.3793C171.465 47.1141 170.22 47.7943 168.708 48.3894C167.196 48.9906 165.404 49.4886 163.394 49.8772C161.384 50.2719 159.155 50.5331 156.751 50.6545C154.346 50.7699 151.771 50.7456 149.075 50.4966C147.726 50.3691 146.348 50.1869 144.957 49.9258C143.567 49.6707 142.152 49.3307 140.749 48.8752C139.352 48.4137 137.949 47.8489 136.656 47.023C136.018 46.6101 135.399 46.1364 134.901 45.5352C134.652 45.2376 134.439 44.9036 134.281 44.5453C134.135 44.1809 134.044 43.7923 134.038 43.3915C134.044 42.9968 134.135 42.602 134.287 42.2377C134.445 41.8794 134.664 41.5454 134.907 41.2478C135.405 40.6466 136.024 40.1729 136.662 39.76C137.949 38.9401 139.352 38.3693 140.749 37.9138C142.152 37.4584 143.56 37.1183 144.957 36.8632C146.348 36.6021 147.726 36.4199 149.075 36.2924C151.771 36.0434 154.346 36.0131 156.751 36.1345C159.155 36.256 161.384 36.5232 163.394 36.9118C165.404 37.3066 167.196 37.8045 168.708 38.3997C170.22 38.9948 171.465 39.6749 172.345 40.4097C172.789 40.7741 173.147 41.1385 173.402 41.5028C173.475 41.5879 173.524 41.685 173.578 41.7701C173.633 41.8551 173.688 41.9401 173.724 42.0251L173.839 42.2619C173.87 42.3409 173.894 42.4198 173.918 42.4866C173.973 42.6263 173.997 42.7599 174.015 42.8692C174.028 42.9239 174.04 42.9785 174.046 43.0271V43.1546C174.064 43.3065 174.064 43.3854 174.064 43.3854H174.058Z" fill="#FF4E5B"/>
<path d="M166.758 26.8185C166.758 26.8185 166.691 26.776 166.564 26.691L166.455 26.6181C166.412 26.5938 166.364 26.5756 166.315 26.5513C166.212 26.5027 166.096 26.442 165.951 26.3995C165.878 26.3752 165.805 26.3509 165.726 26.3266L165.465 26.2719C165.374 26.2477 165.277 26.2416 165.179 26.2355C165.076 26.2294 164.973 26.2112 164.864 26.2112C164.426 26.193 163.916 26.2598 163.364 26.3813C162.246 26.6302 160.953 27.2011 159.562 28.033C158.165 28.865 156.684 29.9763 155.147 31.3245C153.611 32.6727 152.038 34.2759 150.477 36.0977C148.916 37.9256 147.362 39.9782 145.91 42.2616C145.188 43.4033 144.489 44.5996 143.846 45.8627C143.196 47.1198 142.607 48.4376 142.109 49.8222C141.617 51.2068 141.21 52.6582 141.07 54.1642C141.01 54.9172 141.004 55.6885 141.174 56.4354C141.259 56.8059 141.386 57.1702 141.568 57.5103C141.757 57.8443 142.006 58.1419 142.303 58.3848C142.613 58.6156 142.965 58.7795 143.33 58.8828C143.7 58.9739 144.083 59.0103 144.465 58.9982C145.23 58.9739 145.977 58.7795 146.688 58.5306C148.115 58.0204 149.421 57.2613 150.635 56.4415C151.85 55.6156 152.979 54.7108 154.036 53.7695C155.092 52.8282 156.082 51.8566 157.005 50.8728C158.852 48.8991 160.455 46.883 161.833 44.9154C163.212 42.9478 164.372 41.0227 165.295 39.2009C166.218 37.3791 166.922 35.6605 167.384 34.1058C167.839 32.5512 168.07 31.1545 168.04 30.0128C168.021 29.4419 167.961 28.9379 167.833 28.5128C167.809 28.4035 167.766 28.3063 167.736 28.2152C167.706 28.1181 167.669 28.027 167.627 27.948C167.584 27.863 167.548 27.7841 167.511 27.7112C167.469 27.6383 167.426 27.5715 167.384 27.5108C167.311 27.3772 167.22 27.28 167.147 27.195C167.111 27.1525 167.08 27.11 167.044 27.0736L166.947 26.9885C166.831 26.8853 166.777 26.8306 166.777 26.8306C166.777 26.8306 166.837 26.8792 166.953 26.9825L167.05 27.0675C167.086 27.1039 167.117 27.1404 167.153 27.1829C167.226 27.2679 167.317 27.365 167.396 27.4986C167.438 27.5594 167.481 27.6262 167.523 27.699C167.56 27.7719 167.602 27.8569 167.639 27.9359C167.681 28.0148 167.718 28.112 167.748 28.2031C167.779 28.3003 167.827 28.3974 167.851 28.5067C167.979 28.9318 168.046 29.4359 168.07 30.0128C168.113 31.1605 167.888 32.5633 167.432 34.124C166.977 35.6848 166.272 37.4094 165.355 39.2373C164.432 41.0652 163.279 42.9903 161.9 44.964C160.522 46.9376 158.918 48.9599 157.072 50.9335C156.149 51.9234 155.159 52.895 154.097 53.8363C153.04 54.7776 151.904 55.6885 150.69 56.5144C149.469 57.3403 148.163 58.0994 146.724 58.6156C146.008 58.8646 145.248 59.065 144.471 59.0892C144.083 59.1014 143.688 59.065 143.305 58.9739C142.929 58.8706 142.564 58.7006 142.242 58.4638C141.933 58.2148 141.678 57.9051 141.483 57.565C141.295 57.2188 141.168 56.8484 141.083 56.4658C140.913 55.7067 140.919 54.9233 140.979 54.1703C141.119 52.646 141.532 51.1946 142.024 49.804C142.522 48.4194 143.117 47.0955 143.767 45.8384C144.417 44.5753 145.115 43.379 145.838 42.2373C147.289 39.9539 148.85 37.9013 150.416 36.0734C151.983 34.2455 153.562 32.6484 155.105 31.3002C156.647 29.952 158.135 28.8407 159.538 28.0148C160.934 27.1829 162.234 26.6181 163.358 26.3691C163.916 26.2477 164.426 26.1809 164.87 26.2051C164.979 26.2051 165.088 26.2234 165.185 26.2294C165.289 26.2355 165.386 26.2477 165.477 26.2719C165.568 26.2902 165.653 26.3084 165.738 26.3266C165.817 26.3509 165.896 26.3813 165.963 26.3995C166.109 26.442 166.224 26.5027 166.327 26.5574C166.376 26.5817 166.424 26.6059 166.467 26.6302L166.576 26.7031C166.704 26.7881 166.77 26.8367 166.77 26.8367L166.758 26.8185Z" fill="#FF4E5B"/>
<path d="M133.856 51.6376C134.148 51.9291 134.148 52.3967 133.856 52.6882C133.565 52.9796 133.097 52.9796 132.806 52.6882C132.514 52.3967 132.514 51.9291 132.806 51.6376C133.097 51.3461 133.565 51.3461 133.856 51.6376Z" fill="#FF4E5B"/>
<path d="M175.752 28.6276C175.752 29.0405 175.418 29.3685 175.011 29.3685C174.605 29.3685 174.271 29.0345 174.271 28.6276C174.271 28.2207 174.605 27.8867 175.011 27.8867C175.418 27.8867 175.752 28.2207 175.752 28.6276Z" fill="#FF4E5B"/>
<path d="M138.544 54.0794C138.544 54.1826 138.459 54.2676 138.356 54.2676C138.253 54.2676 138.168 54.1826 138.168 54.0794C138.168 53.9761 138.253 53.8911 138.356 53.8911C138.459 53.8911 138.544 53.9761 138.544 54.0794Z" fill="#FF4E5B"/>
<path d="M142.571 33.2742C142.571 33.3774 142.486 33.4625 142.382 33.4625C142.279 33.4625 142.194 33.3774 142.194 33.2742C142.194 33.171 142.279 33.0859 142.382 33.0859C142.486 33.0859 142.571 33.171 142.571 33.2742Z" fill="#FF4E5B"/>
<path d="M172.018 43.3855C172.018 43.4888 171.933 43.5738 171.829 43.5738C171.726 43.5738 171.641 43.4888 171.641 43.3855C171.641 43.2823 171.726 43.1973 171.829 43.1973C171.933 43.1973 172.018 43.2823 172.018 43.3855Z" fill="#FF4E5B"/>
<path d="M174.641 34.5847C174.641 34.688 174.556 34.773 174.453 34.773C174.349 34.773 174.264 34.688 174.264 34.5847C174.264 34.4815 174.349 34.3965 174.453 34.3965C174.556 34.3965 174.641 34.4815 174.641 34.5847Z" fill="#FF4E5B"/>
<path d="M161.924 47.5324H159.592V34.8282C159.592 31.8404 157.157 29.4052 154.169 29.4052C151.182 29.4052 148.746 31.8404 148.746 34.8282V47.5324H146.415V34.8282C146.415 30.5529 149.894 27.0732 154.169 27.0732C158.445 27.0732 161.924 30.5529 161.924 34.8282V47.5324Z" fill="#FF4E5B"/>
<g opacity="0.3">
<path d="M161.924 47.532H159.592V34.8277C159.592 31.8399 157.157 29.4047 154.169 29.4047C151.182 29.4047 148.746 31.8399 148.746 34.8277V47.532H146.415V34.8277C146.415 30.5525 149.894 27.0728 154.169 27.0728C158.445 27.0728 161.924 30.5525 161.924 34.8277V47.532Z" fill="black"/>
</g>
<path d="M163.254 41.8843H145.085C144.33 41.8843 143.718 42.496 143.718 43.2507V53.9266C143.718 54.6812 144.33 55.293 145.085 55.293H163.254C164.009 55.293 164.621 54.6812 164.621 53.9266V43.2507C164.621 42.496 164.009 41.8843 163.254 41.8843Z" fill="#FF4E5B"/>
<g opacity="0.3">
<path d="M155.919 46.8398C155.919 45.8742 155.135 45.0908 154.17 45.0908C153.204 45.0908 152.421 45.8742 152.421 46.8398C152.421 47.6353 152.961 48.3033 153.69 48.5098V51.1211H154.643V48.5098C155.372 48.3033 155.912 47.6353 155.912 46.8398H155.919Z" fill="black"/>
</g>
<path d="M144.83 54.0244C144.781 54.0244 144.745 51.7896 144.745 49.0326C144.745 46.2755 144.781 44.0347 144.83 44.0347C144.878 44.0347 144.915 46.2695 144.915 49.0326C144.915 51.7957 144.878 54.0244 144.83 54.0244Z" fill="#FAFAFA"/>
<path d="M152.803 49.0811C152.803 49.0811 152.724 49.0568 152.597 48.9657C152.475 48.8746 152.311 48.7288 152.147 48.5041C151.819 48.079 151.522 47.3017 151.716 46.4637C151.916 45.6256 152.536 45.067 153.016 44.8301C153.259 44.7087 153.471 44.6479 153.623 44.6236C153.775 44.5993 153.86 44.5993 153.86 44.6115C153.866 44.6419 153.526 44.6783 153.076 44.9394C152.633 45.1884 152.074 45.7289 151.886 46.5062C151.704 47.2774 151.965 48.0122 152.25 48.4373C152.536 48.8746 152.827 49.0568 152.803 49.0811Z" fill="#FAFAFA"/>
<path d="M185.202 66.7842H120.848C117.722 66.7842 115.188 69.3182 115.188 72.444V73.1363C115.188 76.2621 117.722 78.7961 120.848 78.7961H185.202C188.327 78.7961 190.861 76.2621 190.861 73.1363V72.444C190.861 69.3182 188.327 66.7842 185.202 66.7842Z" fill="#F6F6F6"/>
<path d="M185.754 83.2598H121.401C118.275 83.2598 115.741 85.7938 115.741 88.9196V89.6119C115.741 92.7377 118.275 95.2717 121.401 95.2717H185.754C188.88 95.2717 191.414 92.7377 191.414 89.6119V88.9196C191.414 85.7938 188.88 83.2598 185.754 83.2598Z" fill="#F6F6F6"/>
<path d="M127.146 72.6989V70.9561H127.862V72.6686C127.862 73.2576 128.117 73.5006 128.555 73.5006C128.992 73.5006 129.247 73.2576 129.247 72.6686V70.9561H129.957V72.6989C129.957 73.6159 129.435 74.12 128.549 74.12C127.662 74.12 127.14 73.6159 127.14 72.6989H127.146Z" fill="#1A1A1A"/>
<path d="M130.389 73.8465L130.619 73.3485C130.832 73.4882 131.154 73.5793 131.451 73.5793C131.773 73.5793 131.889 73.4943 131.889 73.3607C131.889 72.972 130.449 73.3668 130.449 72.4133C130.449 71.9579 130.856 71.6421 131.555 71.6421C131.883 71.6421 132.247 71.715 132.472 71.8486L132.241 72.3405C132.004 72.2069 131.767 72.1643 131.555 72.1643C131.245 72.1643 131.111 72.2615 131.111 72.389C131.111 72.7959 132.557 72.4012 132.557 73.3425C132.557 73.7858 132.144 74.1016 131.427 74.1016C131.02 74.1016 130.613 73.9922 130.395 73.8465H130.389Z" fill="#1A1A1A"/>
<path d="M135.308 73.0693H133.504C133.571 73.3668 133.826 73.549 134.184 73.549C134.439 73.549 134.621 73.4761 134.785 73.3182L135.156 73.719C134.931 73.9741 134.603 74.1077 134.172 74.1077C133.346 74.1077 132.812 73.5854 132.812 72.881C132.812 72.1766 133.358 71.6543 134.087 71.6543C134.816 71.6543 135.332 72.1219 135.332 72.8931C135.332 72.9478 135.326 73.0207 135.32 73.0814L135.308 73.0693ZM133.492 72.6624H134.67C134.621 72.3587 134.397 72.1644 134.087 72.1644C133.777 72.1644 133.547 72.3527 133.498 72.6624H133.492Z" fill="#1A1A1A"/>
<path d="M137.263 71.6421V72.2797C137.202 72.2797 137.16 72.2737 137.105 72.2737C136.723 72.2737 136.467 72.4801 136.467 72.9417V74.0712H135.775V71.6846H136.437V72.0004C136.607 71.7696 136.893 71.6482 137.257 71.6482L137.263 71.6421Z" fill="#1A1A1A"/>
<path d="M140.117 72.699V74.0653H139.425V72.8022C139.425 72.4135 139.249 72.2374 138.939 72.2374C138.605 72.2374 138.368 72.4439 138.368 72.8812V74.0593H137.676V71.6727H138.338V71.952C138.526 71.7455 138.806 71.6362 139.127 71.6362C139.692 71.6362 140.117 71.9642 140.117 72.6929V72.699Z" fill="#1A1A1A"/>
<path d="M142.856 72.7048V74.0651H142.206V73.7676C142.079 73.9862 141.83 74.1016 141.477 74.1016C140.919 74.1016 140.585 73.7919 140.585 73.3789C140.585 72.966 140.882 72.6623 141.611 72.6623H142.164C142.164 72.3647 141.988 72.1947 141.611 72.1947C141.356 72.1947 141.095 72.2797 140.925 72.4194L140.676 71.9336C140.937 71.7453 141.326 71.6421 141.708 71.6421C142.437 71.6421 142.856 71.9822 142.856 72.7048ZM142.164 73.3121V73.0692H141.69C141.368 73.0692 141.265 73.1906 141.265 73.3485C141.265 73.5247 141.411 73.64 141.654 73.64C141.884 73.64 142.085 73.5307 142.164 73.3182V73.3121Z" fill="#1A1A1A"/>
<path d="M147.514 72.6987V74.0651H146.821V72.8019C146.821 72.4133 146.645 72.2372 146.366 72.2372C146.056 72.2372 145.838 72.4376 145.838 72.8627V74.059H145.145V72.7959C145.145 72.4072 144.981 72.2311 144.69 72.2311C144.386 72.2311 144.168 72.4315 144.168 72.8566V74.0529H143.475V71.6663H144.137V71.9396C144.313 71.7331 144.581 71.6299 144.89 71.6299C145.224 71.6299 145.51 71.7574 145.674 72.0185C145.862 71.7756 146.178 71.6299 146.536 71.6299C147.107 71.6299 147.514 71.9578 147.514 72.6866V72.6987Z" fill="#1A1A1A"/>
<path d="M150.49 73.0693H148.686C148.753 73.3668 149.008 73.549 149.366 73.549C149.621 73.549 149.803 73.4761 149.967 73.3182L150.338 73.719C150.113 73.9741 149.785 74.1077 149.354 74.1077C148.528 74.1077 147.994 73.5854 147.994 72.881C147.994 72.1766 148.54 71.6543 149.269 71.6543C149.998 71.6543 150.514 72.1219 150.514 72.8931C150.514 72.9478 150.508 73.0207 150.502 73.0814L150.49 73.0693ZM148.674 72.6624H149.852C149.803 72.3587 149.579 72.1644 149.269 72.1644C148.959 72.1644 148.728 72.3527 148.68 72.6624H148.674Z" fill="#1A1A1A"/>
<path d="M155.068 72.8503C155.068 73.6458 154.704 74.0952 154.157 74.0952C153.854 74.0952 153.641 73.9616 153.55 73.7066C153.392 73.9555 153.143 74.0952 152.791 74.0952C152.22 74.0952 151.765 73.6398 151.765 72.9718C151.765 72.3038 152.214 71.8544 152.791 71.8544C153.083 71.8544 153.313 71.9576 153.477 72.1459V71.8847H154.078V73.324C154.078 73.5365 154.17 73.6094 154.291 73.6094C154.497 73.6094 154.619 73.3726 154.619 72.8564C154.619 71.9576 153.951 71.3321 152.967 71.3321C151.983 71.3321 151.315 72.0062 151.315 72.9353C151.315 73.8644 151.965 74.5507 152.949 74.5507C153.228 74.5507 153.544 74.49 153.823 74.3564L153.963 74.7632C153.69 74.9029 153.295 74.9758 152.949 74.9758C151.668 74.9758 150.817 74.1074 150.817 72.9353C150.817 71.7633 151.674 70.9131 152.967 70.9131C154.261 70.9131 155.068 71.7329 155.068 72.8503ZM153.483 72.9718C153.483 72.5831 153.246 72.3705 152.931 72.3705C152.615 72.3705 152.378 72.5952 152.378 72.9718C152.378 73.3483 152.603 73.5851 152.931 73.5851C153.259 73.5851 153.483 73.3604 153.483 72.9718Z" fill="#1A1A1A"/>
<path d="M159.593 72.6987V74.0651H158.9V72.8019C158.9 72.4133 158.724 72.2372 158.445 72.2372C158.135 72.2372 157.917 72.4376 157.917 72.8627V74.059H157.224V72.7959C157.224 72.4072 157.06 72.2311 156.769 72.2311C156.465 72.2311 156.247 72.4315 156.247 72.8566V74.0529H155.554V71.6663H156.216V71.9396C156.392 71.7331 156.659 71.6299 156.969 71.6299C157.303 71.6299 157.589 71.7574 157.753 72.0185C157.941 71.7756 158.257 71.6299 158.615 71.6299C159.186 71.6299 159.593 71.9578 159.593 72.6866V72.6987Z" fill="#1A1A1A"/>
<path d="M162.325 72.7048V74.0651H161.675V73.7676C161.548 73.9862 161.299 74.1016 160.947 74.1016C160.388 74.1016 160.054 73.7919 160.054 73.3789C160.054 72.966 160.352 72.6623 161.08 72.6623H161.633C161.633 72.3647 161.457 72.1947 161.08 72.1947C160.825 72.1947 160.564 72.2797 160.394 72.4194L160.145 71.9336C160.406 71.7453 160.795 71.6421 161.177 71.6421C161.906 71.6421 162.325 71.9822 162.325 72.7048ZM161.633 73.3121V73.0692H161.159C160.837 73.0692 160.734 73.1906 160.734 73.3485C160.734 73.5247 160.88 73.64 161.123 73.64C161.354 73.64 161.554 73.5307 161.633 73.3182V73.3121Z" fill="#1A1A1A"/>
<path d="M162.872 70.956C162.872 70.7374 163.048 70.5674 163.303 70.5674C163.558 70.5674 163.734 70.7253 163.734 70.9378C163.734 71.1686 163.558 71.3386 163.303 71.3386C163.048 71.3386 162.872 71.1686 162.872 70.95V70.956ZM162.957 71.6726H163.649V74.0592H162.957V71.6726Z" fill="#1A1A1A"/>
<path d="M164.287 70.7734H164.979V74.0649H164.287V70.7734Z" fill="#1A1A1A"/>
<path d="M165.459 73.6644C165.459 73.4093 165.647 73.2393 165.89 73.2393C166.133 73.2393 166.321 73.4093 166.321 73.6644C166.321 73.9194 166.133 74.1016 165.89 74.1016C165.647 74.1016 165.459 73.9194 165.459 73.6644Z" fill="#1A1A1A"/>
<path d="M166.582 72.8688C166.582 72.1522 167.135 71.6421 167.912 71.6421C168.416 71.6421 168.811 71.8607 168.981 72.2494L168.447 72.5409C168.319 72.3162 168.125 72.2129 167.912 72.2129C167.56 72.2129 167.287 72.4558 167.287 72.8749C167.287 73.2939 167.56 73.5368 167.912 73.5368C168.131 73.5368 168.319 73.4396 168.447 73.2089L168.981 73.5004C168.805 73.8829 168.41 74.1016 167.912 74.1016C167.135 74.1016 166.582 73.5915 166.582 72.8749V72.8688Z" fill="#1A1A1A"/>
<path d="M169.169 72.8688C169.169 72.1522 169.722 71.6421 170.481 71.6421C171.24 71.6421 171.793 72.1522 171.793 72.8688C171.793 73.5854 171.24 74.0955 170.481 74.0955C169.722 74.0955 169.169 73.5854 169.169 72.8688ZM171.088 72.8688C171.088 72.4558 170.827 72.2069 170.481 72.2069C170.135 72.2069 169.868 72.4558 169.868 72.8688C169.868 73.2817 170.135 73.5307 170.481 73.5307C170.827 73.5307 171.088 73.2817 171.088 72.8688Z" fill="#1A1A1A"/>
<path d="M176.293 72.6987V74.0651H175.601V72.8019C175.601 72.4133 175.424 72.2372 175.145 72.2372C174.835 72.2372 174.617 72.4376 174.617 72.8627V74.059H173.924V72.7959C173.924 72.4072 173.76 72.2311 173.469 72.2311C173.165 72.2311 172.947 72.4315 172.947 72.8566V74.0529H172.254V71.6663H172.916V71.9396C173.092 71.7331 173.36 71.6299 173.669 71.6299C174.003 71.6299 174.289 71.7574 174.453 72.0185C174.641 71.7756 174.957 71.6299 175.315 71.6299C175.886 71.6299 176.293 71.9578 176.293 72.6866V72.6987Z" fill="#1A1A1A"/>
<path d="M136.419 89.3322L137.542 89.9395L137.038 90.7836L135.903 90.1156L135.921 91.3666H134.949L134.961 90.1095L133.826 90.7897L133.328 89.9456L134.451 89.3383L133.328 88.7189L133.826 87.8748L134.961 88.5549L134.949 87.2979H135.921L135.903 88.5549L137.038 87.8748L137.542 88.7189L136.419 89.3383V89.3322Z" fill="#1A1A1A"/>
<path d="M141.101 89.3322L142.225 89.9395L141.72 90.7836L140.585 90.1156L140.603 91.3666H139.631L139.644 90.1095L138.508 90.7897L138.01 89.9456L139.133 89.3383L138.01 88.7189L138.508 87.8748L139.644 88.5549L139.631 87.2979H140.603L140.585 88.5549L141.72 87.8748L142.225 88.7189L141.101 89.3383V89.3322Z" fill="#1A1A1A"/>
<path d="M145.783 89.3322L146.907 89.9395L146.403 90.7836L145.267 90.1156L145.285 91.3666H144.314L144.326 90.1095L143.19 90.7897L142.692 89.9456L143.816 89.3383L142.692 88.7189L143.19 87.8748L144.326 88.5549L144.314 87.2979H145.285L145.267 88.5549L146.403 87.8748L146.907 88.7189L145.783 89.3383V89.3322Z" fill="#1A1A1A"/>
<path d="M150.459 89.3322L151.583 89.9395L151.079 90.7836L149.943 90.1156L149.961 91.3666H148.99L149.002 90.1095L147.866 90.7897L147.368 89.9456L148.492 89.3383L147.368 88.7189L147.866 87.8748L149.002 88.5549L148.99 87.2979H149.961L149.943 88.5549L151.079 87.8748L151.583 88.7189L150.459 89.3383V89.3322Z" fill="#1A1A1A"/>
<path d="M155.142 89.3322L156.265 89.9395L155.761 90.7836L154.625 90.1156L154.644 91.3666H153.672L153.684 90.1095L152.549 90.7897L152.051 89.9456L153.174 89.3383L152.051 88.7189L152.549 87.8748L153.684 88.5549L153.672 87.2979H154.644L154.625 88.5549L155.761 87.8748L156.265 88.7189L155.142 89.3383V89.3322Z" fill="#1A1A1A"/>
<path d="M159.824 89.3322L160.947 89.9395L160.443 90.7836L159.308 90.1156L159.326 91.3666H158.354L158.366 90.1095L157.231 90.7897L156.733 89.9456L157.856 89.3383L156.733 88.7189L157.231 87.8748L158.366 88.5549L158.354 87.2979H159.326L159.308 88.5549L160.443 87.8748L160.947 88.7189L159.824 89.3383V89.3322Z" fill="#1A1A1A"/>
<path d="M164.5 89.3322L165.623 89.9395L165.119 90.7836L163.984 90.1156L164.002 91.3666H163.03L163.042 90.1095L161.907 90.7897L161.409 89.9456L162.532 89.3383L161.409 88.7189L161.907 87.8748L163.042 88.5549L163.03 87.2979H164.002L163.984 88.5549L165.119 87.8748L165.623 88.7189L164.5 89.3383V89.3322Z" fill="#1A1A1A"/>
<path d="M169.182 89.3322L170.305 89.9395L169.801 90.7836L168.666 90.1156L168.684 91.3666H167.712L167.724 90.1095L166.589 90.7897L166.091 89.9456L167.214 89.3383L166.091 88.7189L166.589 87.8748L167.724 88.5549L167.712 87.2979H168.684L168.666 88.5549L169.801 87.8748L170.305 88.7189L169.182 89.3383V89.3322Z" fill="#1A1A1A"/>
<path d="M239.172 152.811H130.657C128.091 152.811 126.011 154.546 126.011 156.685V203.531C126.011 205.671 128.091 207.405 130.657 207.405H239.172C241.738 207.405 243.818 205.671 243.818 203.531V156.685C243.818 154.546 241.738 152.811 239.172 152.811Z" fill="white"/>
<path d="M239.172 207.406C239.172 207.406 239.485 207.406 240.09 207.314C240.672 207.205 241.575 206.956 242.427 206.252C242.842 205.899 243.228 205.438 243.476 204.867C243.614 204.582 243.68 204.266 243.738 203.938C243.767 203.61 243.76 203.258 243.76 202.893C243.76 201.436 243.752 199.754 243.745 197.865C243.731 190.292 243.709 179.349 243.687 165.825C243.687 164.137 243.687 162.4 243.687 160.633C243.687 159.746 243.687 158.854 243.687 157.949C243.658 157.044 243.803 156.115 243.359 155.289C242.959 154.463 242.187 153.752 241.204 153.34C240.716 153.133 240.184 153.006 239.631 152.957C239.092 152.921 238.502 152.945 237.927 152.939C235.626 152.939 233.281 152.939 230.9 152.939C221.361 152.939 211.173 152.951 200.447 152.951C179.002 152.951 155.423 152.957 130.672 152.963C129.929 152.963 129.194 153.121 128.539 153.412C127.898 153.716 127.33 154.135 126.929 154.657C126.536 155.174 126.274 155.769 126.23 156.382C126.194 156.995 126.223 157.651 126.216 158.283C126.216 160.833 126.216 163.366 126.216 165.88C126.216 170.908 126.216 175.857 126.216 180.728C126.216 185.592 126.216 190.377 126.216 195.06C126.216 197.398 126.216 199.717 126.216 202.007C126.216 202.578 126.201 203.161 126.223 203.713C126.252 204.26 126.434 204.8 126.733 205.28C127.344 206.246 128.48 206.95 129.747 207.175C130.374 207.296 131.036 207.248 131.706 207.26C132.369 207.26 133.039 207.26 133.701 207.26C135.027 207.26 136.337 207.26 137.648 207.26C140.262 207.26 142.84 207.26 145.382 207.26C150.464 207.26 155.394 207.26 160.164 207.266C169.703 207.272 178.587 207.278 186.699 207.284C202.916 207.302 216.038 207.32 225.118 207.333C229.647 207.345 233.172 207.357 235.56 207.363C236.747 207.369 237.658 207.375 238.276 207.381C238.888 207.381 239.201 207.399 239.201 207.399C239.201 207.399 238.888 207.412 238.276 207.418C237.658 207.418 236.747 207.424 235.56 207.436C233.165 207.442 229.647 207.454 225.118 207.466C216.038 207.478 202.916 207.497 186.699 207.515C178.587 207.515 169.703 207.527 160.164 207.533C155.394 207.533 150.464 207.533 145.382 207.539C142.84 207.539 140.262 207.539 137.648 207.539C136.345 207.539 135.027 207.539 133.701 207.539C133.039 207.539 132.376 207.539 131.706 207.539C131.051 207.527 130.366 207.582 129.675 207.454C128.313 207.217 127.089 206.452 126.427 205.414C126.099 204.897 125.903 204.314 125.873 203.725C125.852 203.142 125.873 202.584 125.859 202.007C125.859 199.717 125.859 197.398 125.859 195.06C125.859 190.377 125.859 185.598 125.859 180.728C125.859 175.863 125.859 170.908 125.859 165.88C125.859 163.366 125.859 160.833 125.859 158.283C125.866 157.639 125.837 157.02 125.881 156.358C125.932 155.69 126.216 155.046 126.645 154.487C127.075 153.923 127.694 153.467 128.393 153.139C129.099 152.823 129.9 152.653 130.709 152.653C155.46 152.653 179.038 152.659 200.484 152.665C211.21 152.665 221.397 152.678 230.936 152.678C233.317 152.678 235.662 152.678 237.963 152.678C238.546 152.684 239.099 152.659 239.696 152.696C240.279 152.744 240.854 152.884 241.371 153.109C242.413 153.546 243.235 154.305 243.658 155.186C243.876 155.629 243.985 156.097 244 156.57C244 157.026 244 157.481 244 157.937C244 158.841 244 159.734 244 160.621C244 162.388 244 164.125 244 165.813C243.978 179.337 243.956 190.28 243.942 197.853C243.942 199.742 243.927 201.424 243.927 202.881C243.927 203.246 243.927 203.598 243.898 203.938C243.84 204.272 243.767 204.594 243.621 204.885C243.359 205.468 242.966 205.936 242.536 206.288C241.663 206.993 240.745 207.242 240.155 207.339C239.849 207.381 239.624 207.399 239.463 207.399C239.31 207.399 239.23 207.399 239.23 207.399L239.172 207.406Z" fill="#1A1A1A"/>
<path d="M170.218 172.105V172.785H167.376V169.111H170.151V169.791H168.22V170.587H169.927V171.248H168.22V172.099H170.218V172.105Z" fill="#1A1A1A"/>
<path d="M174.263 169.111V172.785H173.564L171.736 170.556V172.785H170.898V169.111H171.603L173.431 171.34V169.111H174.269H174.263Z" fill="#1A1A1A"/>
<path d="M175.89 169.803H174.718V169.111H177.918V169.803H176.746V172.785H175.896V169.803H175.89Z" fill="#1A1A1A"/>
<path d="M181.216 172.105V172.785H178.374V169.111H181.149V169.791H179.218V170.587H180.924V171.248H179.218V172.099H181.216V172.105Z" fill="#1A1A1A"/>
<path d="M184.234 172.785L183.523 171.765H182.74V172.785H181.89V169.111H183.481C184.459 169.111 185.072 169.621 185.072 170.441C185.072 170.993 184.793 171.394 184.319 171.601L185.145 172.779H184.234V172.785ZM183.438 169.803H182.746V171.084H183.438C183.961 171.084 184.222 170.842 184.222 170.447C184.222 170.052 183.961 169.809 183.438 169.809V169.803Z" fill="#1A1A1A"/>
<path d="M187.003 170.951C187.003 169.845 187.853 169.05 188.995 169.05C189.627 169.05 190.161 169.281 190.507 169.7L189.961 170.204C189.712 169.918 189.402 169.772 189.038 169.772C188.351 169.772 187.866 170.252 187.866 170.945C187.866 171.637 188.351 172.117 189.038 172.117C189.402 172.117 189.712 171.971 189.961 171.679L190.507 172.183C190.161 172.608 189.633 172.839 188.989 172.839C187.853 172.839 187.003 172.05 187.003 170.938V170.951Z" fill="#1A1A1A"/>
<path d="M190.768 170.951C190.768 169.857 191.618 169.05 192.778 169.05C193.938 169.05 194.788 169.851 194.788 170.951C194.788 172.05 193.932 172.851 192.778 172.851C191.624 172.851 190.768 172.044 190.768 170.951ZM193.926 170.951C193.926 170.252 193.434 169.779 192.778 169.779C192.122 169.779 191.63 170.258 191.63 170.951C191.63 171.643 192.122 172.123 192.778 172.123C193.434 172.123 193.926 171.643 193.926 170.951Z" fill="#1A1A1A"/>
<path d="M195.432 169.11H197.102C198.305 169.11 199.124 169.833 199.124 170.944C199.124 172.056 198.298 172.778 197.102 172.778H195.432V169.104V169.11ZM197.06 172.086C197.788 172.086 198.268 171.649 198.268 170.95C198.268 170.252 197.788 169.815 197.06 169.815H196.282V172.092H197.06V172.086Z" fill="#1A1A1A"/>
<path d="M202.604 172.105V172.785H199.762V169.111H202.537V169.791H200.606V170.587H202.313V171.248H200.606V172.099H202.604V172.105Z" fill="#1A1A1A"/>
<path d="M146.287 178.645H137.366C136.041 178.645 134.968 179.719 134.968 181.044V194.932C134.968 196.257 136.041 197.331 137.366 197.331H146.287C147.612 197.331 148.686 196.257 148.686 194.932V181.044C148.686 179.719 147.612 178.645 146.287 178.645Z" fill="#F6F6F6"/>
<path d="M163.418 178.645H154.497C153.173 178.645 152.099 179.719 152.099 181.044V194.932C152.099 196.257 153.173 197.331 154.497 197.331H163.418C164.743 197.331 165.817 196.257 165.817 194.932V181.044C165.817 179.719 164.743 178.645 163.418 178.645Z" fill="#F6F6F6"/>
<path d="M180.55 178.645H171.629C170.304 178.645 169.23 179.719 169.23 181.044V194.932C169.23 196.257 170.304 197.331 171.629 197.331H180.55C181.874 197.331 182.948 196.257 182.948 194.932V181.044C182.948 179.719 181.874 178.645 180.55 178.645Z" fill="#F6F6F6"/>
<path d="M197.675 178.645H188.754C187.429 178.645 186.355 179.719 186.355 181.044V194.932C186.355 196.257 187.429 197.331 188.754 197.331H197.675C199 197.331 200.074 196.257 200.074 194.932V181.044C200.074 179.719 199 178.645 197.675 178.645Z" fill="#F6F6F6"/>
<path d="M214.806 178.645H205.885C204.561 178.645 203.487 179.719 203.487 181.044V194.932C203.487 196.257 204.561 197.331 205.885 197.331H214.806C216.131 197.331 217.205 196.257 217.205 194.932V181.044C217.205 179.719 216.131 178.645 214.806 178.645Z" fill="#F6F6F6"/>
<path d="M232.12 179H223.199C221.874 179 220.8 180.074 220.8 181.399V195.287C220.8 196.612 221.874 197.686 223.199 197.686H232.12C233.445 197.686 234.518 196.612 234.518 195.287V181.399C234.518 180.074 233.445 179 232.12 179Z" fill="#F6F6F6"/>
<path d="M144.817 189.43C144.817 190.766 143.785 191.629 142.388 191.629C140.469 191.629 139.461 190.25 139.461 187.967C139.461 185.495 140.773 184.226 142.704 184.226C143.33 184.226 143.913 184.329 144.362 184.602L144.143 185.027C143.767 184.791 143.257 184.693 142.704 184.693C141.064 184.693 139.996 185.768 139.996 187.882C139.996 188.1 140.008 188.422 140.056 188.756C140.36 187.797 141.277 187.256 142.382 187.256C143.84 187.256 144.823 188.112 144.823 189.424L144.817 189.43ZM144.283 189.442C144.283 188.398 143.53 187.724 142.303 187.724C141.077 187.724 140.281 188.483 140.281 189.467C140.281 190.323 140.998 191.173 142.364 191.173C143.5 191.173 144.283 190.493 144.283 189.442Z" fill="#FF4E5B"/>
<path d="M161.761 189.558H160.23V191.58H159.708V189.558H155.548V189.169L159.508 184.281H160.103L156.216 189.084H159.72V187.299H160.23V189.084H161.761V189.552V189.558Z" fill="#FF4E5B"/>
<path d="M179.426 192.619C179.426 192.704 178.005 192.776 176.25 192.776C174.495 192.776 173.074 192.704 173.074 192.619C173.074 192.534 174.495 192.461 176.25 192.461C178.005 192.461 179.426 192.534 179.426 192.619Z" fill="#FF4E5B"/>
<path d="M132.223 159.746C133.044 159.746 133.711 159.08 133.711 158.258C133.711 157.437 133.044 156.771 132.223 156.771C131.401 156.771 130.735 157.437 130.735 158.258C130.735 159.08 131.401 159.746 132.223 159.746Z" fill="#1A1A1A"/>
<path d="M137.998 158.258C137.998 159.078 137.33 159.746 136.51 159.746C135.69 159.746 135.022 159.078 135.022 158.258C135.022 157.439 135.69 156.771 136.51 156.771C137.33 156.771 137.998 157.439 137.998 158.258Z" fill="#1A1A1A"/>
<path d="M140.718 159.746C141.54 159.746 142.206 159.08 142.206 158.258C142.206 157.437 141.54 156.771 140.718 156.771C139.897 156.771 139.23 157.437 139.23 158.258C139.23 159.08 139.897 159.746 140.718 159.746Z" fill="#1A1A1A"/>
<path d="M244 162.607C244 162.692 203.738 162.607 176.128 162.607C148.518 162.607 126.125 162.534 126.125 162.449C126.125 162.364 148.506 162.291 176.128 162.291C203.751 162.291 244 162.522 244 162.607Z" fill="#1A1A1A"/>
<path d="M21.0604 238.132H15.6253L13.6091 213.658H20.0098L21.0604 238.132Z" fill="#1A1A1A"/>
<path d="M68.1792 238.132H73.6204L75.6366 213.658H69.2298L68.1792 238.132Z" fill="#1A1A1A"/>
<path d="M79.3712 216.755L9.38846 218.401L7.25691 173.201C7.05044 168.774 10.5787 165.076 15.0119 165.076H74.6405C79.1404 165.076 82.6991 168.889 82.3833 173.377L79.3712 216.761V216.755Z" fill="#FF4E5B"/>
<path d="M82.9602 173.043C82.9602 173.043 82.8934 173.056 82.7658 173.062L82.195 173.08C81.6727 173.086 80.9319 173.098 79.9906 173.11C78.0534 173.116 75.2903 173.128 71.8773 173.141C65.0273 173.153 55.5659 173.074 45.1207 173.317C34.6694 173.663 25.202 173.602 18.3519 173.499C14.9268 173.444 12.1576 173.377 10.2386 173.323C9.29735 173.292 8.55647 173.268 8.03421 173.25C7.79737 173.238 7.60912 173.232 7.46337 173.22C7.33584 173.213 7.26904 173.207 7.26904 173.201C7.26904 173.195 7.33584 173.189 7.46337 173.189C7.60912 173.189 7.79737 173.189 8.03421 173.189C8.55647 173.189 9.29735 173.201 10.2386 173.207C12.1758 173.226 14.939 173.25 18.3519 173.286C25.202 173.335 34.6634 173.359 45.1146 173.007C55.5659 172.764 65.0333 172.879 71.8834 172.922C75.2903 172.952 78.0594 172.977 79.9967 172.995C80.9379 173.007 81.6788 173.013 82.2011 173.019C82.4379 173.019 82.6262 173.031 82.7719 173.031C82.8994 173.031 82.9662 173.043 82.9662 173.05L82.9602 173.043Z" fill="#1A1A1A"/>
<path d="M32.7867 165.78C32.805 165.883 30.5945 165.926 28.2443 167.146C25.8759 168.337 24.546 170.104 24.4731 170.025C24.4427 170.007 24.7342 169.539 25.3415 168.902C25.9488 168.264 26.9022 167.481 28.1046 166.867C29.307 166.254 30.5034 165.944 31.3718 165.829C32.2463 165.713 32.7928 165.75 32.7928 165.786L32.7867 165.78Z" fill="#1A1A1A"/>
<path d="M61.5718 83.5967L70.1283 99.2219L82.6625 92.214L88.7535 94.224C88.7535 94.224 73.3773 110.894 70.8813 111.744C68.3854 112.594 63.6608 112.746 60.9645 109.37C58.505 106.291 51.3452 90.131 51.3452 90.131L61.5718 83.5967Z" fill="#FFD7B0"/>
<path d="M96.7879 73.3944C96.5632 73.1211 96.2171 72.9814 95.8649 73.03L89.9075 73.8499C89.3852 73.9288 88.9237 74.2324 88.6322 74.6758L76.2559 93.6957L77.2093 94.2301L83.7983 94.0236L96.9762 73.6312L96.7879 73.4005V73.3944Z" fill="#1A1A1A"/>
<path d="M92.5675 75.8662C92.695 75.9755 92.9197 75.933 93.0654 75.7629C93.2112 75.5929 93.2294 75.3682 93.1019 75.2528C92.9743 75.1374 92.7496 75.186 92.6039 75.3561C92.4582 75.5261 92.4399 75.7508 92.5675 75.8662Z" fill="white"/>
<path d="M96.9762 73.6251C96.9762 73.6251 96.5694 73.7284 95.8224 73.8559C95.0147 73.9834 93.952 74.1474 92.6646 74.3478C91.9905 74.4449 91.2618 74.5543 90.4784 74.6696C90.1019 74.7061 89.7679 74.9004 89.5553 75.2101L88.8509 76.3032C87.8731 77.8032 86.8104 79.4489 85.693 81.1736C83.44 84.6229 81.3874 87.7383 79.8874 89.9852C79.1587 91.0661 78.5514 91.9588 78.096 92.6329C77.6648 93.2523 77.4158 93.5924 77.3976 93.5742C77.3794 93.5621 77.5859 93.1977 77.9806 92.554C78.4118 91.8617 78.9887 90.9508 79.681 89.8455C81.1263 87.5682 83.1485 84.4286 85.4015 80.9793C86.5311 79.2607 87.6059 77.621 88.5837 76.121C88.8326 75.7506 89.0695 75.3862 89.3063 75.0279C89.5674 74.6393 90.0229 74.3964 90.4419 74.3721C91.2253 74.2749 91.9601 74.1777 92.6342 74.0927C93.9277 73.9409 95.0026 73.8134 95.8103 73.7162C96.5633 73.6373 96.9762 73.6008 96.9823 73.6251H96.9762Z" fill="#636363"/>
<path d="M90.3627 80.4266C90.3627 80.4266 89.8283 80.3294 89.5429 81.7869C89.2514 83.2383 88.3162 87.4103 88.3162 87.4103L85.5349 85.9346L82.0551 86.39C82.0551 86.39 81.296 87.0945 81.8547 87.471C82.4134 87.8536 84.6118 88.2422 84.6118 88.2422L86.2332 90.5742L81.5754 88.3272C81.5754 88.3272 80.0208 88.7341 80.4762 89.6815C80.9317 90.6288 84.0713 93.5984 84.0713 93.5984L81.7394 93.4223L78.9641 91.7401C78.9641 91.7401 78.1139 91.7766 78.4297 92.5053C78.7455 93.228 81.6361 95.8514 81.6361 95.8514L85.134 97.5518C85.134 97.5518 87.047 97.4 87.2292 96.8413C87.4113 96.2826 87.4599 95.481 87.4599 95.481C87.4599 95.481 88.4741 95.2077 88.6623 94.7158C88.8506 94.2239 88.7291 93.4466 88.7291 93.4466C88.7291 93.4466 90.3202 93.7259 90.5206 92.8393C90.721 91.9527 90.551 90.2037 90.3931 89.5236C90.2352 88.8434 91.0732 82.4974 91.0064 82.303C90.9396 82.1087 91.3708 80.0197 90.3749 80.4387L90.3627 80.4266Z" fill="#FFD7B0"/>
<path d="M87.3447 96.835C87.3569 96.8775 87.0168 97.0233 86.4338 97.1204C85.8508 97.2176 85.0128 97.2237 84.1262 97.0172C83.2395 96.8047 82.4986 96.4221 82.0189 96.0698C81.5391 95.7237 81.3023 95.4383 81.3327 95.4079C81.3995 95.3168 82.5047 96.2763 84.2112 96.6711C85.9055 97.0901 87.3265 96.7318 87.3447 96.8411V96.835Z" fill="#F28500"/>
<path d="M86.5127 95.5839C86.458 95.6628 85.8386 95.341 85.1767 94.7944C84.5147 94.2539 84.0714 93.7074 84.1443 93.6406C84.2172 93.5677 84.7577 93.9867 85.4074 94.5211C86.0572 95.0555 86.5734 95.5049 86.5188 95.5839H86.5127Z" fill="#F28500"/>
<path d="M88.3587 92.5597C88.304 92.6387 87.6907 92.3229 87.0713 91.746C86.4458 91.1751 86.0814 90.5861 86.1603 90.5253C86.2393 90.4646 86.713 90.9322 87.3142 91.4848C87.9093 92.0375 88.4194 92.4747 88.3587 92.5597Z" fill="#F28500"/>
<path d="M90.29 90.1308C90.1928 90.1733 89.8406 89.5114 89.288 88.8009C88.7414 88.0782 88.1949 87.5742 88.2556 87.4892C88.3103 87.4102 88.9843 87.8171 89.5673 88.5823C90.1564 89.3414 90.375 90.1005 90.2839 90.1308H90.29Z" fill="#F28500"/>
<path d="M92.6583 202.756C92.6583 202.756 92.7008 202.55 92.6401 202.18C92.5794 201.815 92.4275 201.281 92.0571 200.716C91.9599 200.576 91.8688 200.431 91.711 200.291C91.5652 200.157 91.3041 200.054 91.0612 200.145C90.9397 200.188 90.8182 200.297 90.7757 200.437C90.7272 200.576 90.7515 200.716 90.7879 200.825C90.8668 201.056 90.9883 201.22 91.0915 201.414C91.3162 201.797 91.5045 202.173 91.7899 202.599C91.9356 202.817 92.2636 202.999 92.5611 202.945C92.8587 202.908 93.0955 202.763 93.3081 202.617C93.721 202.313 94.0915 201.973 94.4073 201.603C94.5652 201.42 94.7109 201.232 94.8384 201.038C94.9599 200.85 95.1056 200.655 95.1664 200.394C95.221 200.139 95.1239 199.805 94.8384 199.69C94.5469 199.586 94.304 199.732 94.1461 199.848C93.8121 200.121 93.6178 200.406 93.4113 200.68C93.0287 201.226 92.8101 201.724 92.6947 202.076C92.5794 202.429 92.549 202.629 92.5672 202.635C92.6279 202.659 92.8223 201.852 93.6057 200.825C93.8 200.582 94.0429 200.285 94.3101 200.084C94.4498 199.987 94.6198 199.92 94.723 199.975C94.8324 200.012 94.8931 200.182 94.8566 200.34C94.8202 200.503 94.6988 200.68 94.5712 200.862C94.4437 201.044 94.304 201.22 94.1522 201.39C93.8486 201.736 93.5024 202.058 93.1077 202.344C92.9194 202.477 92.713 202.592 92.5247 202.611C92.3304 202.635 92.1846 202.556 92.0571 202.392C91.8142 202.046 91.5895 201.615 91.3648 201.256C91.2555 201.068 91.128 200.886 91.0733 200.734C91.0126 200.57 91.049 200.461 91.1644 200.418C91.4255 200.309 91.6867 200.607 91.8628 200.862C92.6037 201.912 92.5915 202.787 92.6644 202.763L92.6583 202.756Z" fill="#1A1A1A"/>
<path d="M77.7377 203.267L70.3289 219.33L58.3716 213.803L66.0354 193.927L77.7377 203.267Z" fill="#FFD7B0"/>
<path d="M71.7259 218.255L67.396 226.514C67.396 226.514 78.4789 237.973 77.4404 240.536L51.3882 228.044L58.548 211.484L71.732 218.261L71.7259 218.255Z" fill="#636363"/>
<path d="M59.8835 221.522C59.3127 221.419 58.6933 221.819 58.5658 222.384C58.4382 222.949 58.839 223.587 59.4099 223.696C59.9807 223.811 60.7398 223.35 60.8005 222.779C60.8613 222.202 60.3511 221.485 59.7742 221.51" fill="#F6F6F6"/>
<g opacity="0.6">
<path d="M51.3874 228.038L52.4684 225.961L77.0388 238.714C77.0388 238.714 77.9558 239.777 77.4336 240.53L51.3813 228.038H51.3874Z" fill="white"/>
</g>
<path d="M67.8816 226.581C67.8148 226.708 67.1529 226.459 66.333 226.569C65.5071 226.654 64.9242 227.054 64.827 226.945C64.7238 226.866 65.2764 226.192 66.2723 226.083C67.2682 225.961 67.9666 226.478 67.8816 226.581Z" fill="#1A1A1A"/>
<path d="M70.0736 229.022C70.0433 229.161 69.3874 229.113 68.7012 229.441C68.0028 229.75 67.6142 230.279 67.4866 230.212C67.3591 230.175 67.6263 229.386 68.4947 228.991C69.357 228.59 70.1283 228.894 70.0736 229.016V229.022Z" fill="#1A1A1A"/>
<path d="M70.0554 233.036C69.9279 233.006 70.0554 232.289 70.7173 231.749C71.3732 231.202 72.108 231.214 72.108 231.348C72.1323 231.488 71.5614 231.676 71.027 232.125C70.4805 232.563 70.189 233.085 70.0554 233.036Z" fill="#1A1A1A"/>
<path d="M69.1265 223.398C69.0172 223.49 68.5192 223.034 67.7783 222.737C67.0435 222.427 66.3694 222.396 66.3512 222.257C66.3208 222.129 67.0921 221.923 67.9605 222.281C68.835 222.633 69.2358 223.326 69.1265 223.398Z" fill="#1A1A1A"/>
<path d="M74.1667 216.111L93.6967 167.225C93.6967 167.225 93.2595 158.887 91.7231 156.251C90.1867 153.616 43.657 138.251 43.657 138.251C43.657 138.251 31.803 135.397 23.9023 138.251C16.0016 141.106 10.0746 150.98 11.1737 156.47C12.2729 161.96 16.9004 165.986 16.9004 165.986L51.1205 167L69.77 173.801L57.2115 209.795L74.1667 216.098V216.111Z" fill="#1A1A1A"/>
<path d="M91.541 182.711L91.9782 200.388L78.8124 200.71L76.9177 179.492L91.541 182.711Z" fill="#FFD7B0"/>
<path d="M92.7678 198.81L92.5249 208.131C92.5249 208.131 107.525 213.518 107.725 216.281L78.8368 216.573L77.9502 198.555L92.7678 198.816V198.81Z" fill="#636363"/>
<path d="M83.5796 206.965C83.0209 207.123 82.6444 207.755 82.778 208.32C82.9116 208.884 83.5553 209.273 84.114 209.127C84.6727 208.982 85.1525 208.235 84.9581 207.688C84.7577 207.142 83.9865 206.723 83.4764 207.002" fill="#F6F6F6"/>
<g opacity="0.6">
<path d="M78.8306 216.567L78.8852 214.222L106.565 214.818C106.565 214.818 107.858 215.364 107.719 216.269L78.8306 216.56V216.567Z" fill="white"/>
</g>
<path d="M92.9923 207.98C92.9923 208.119 92.2818 208.192 91.5956 208.654C90.8911 209.097 90.545 209.71 90.4114 209.656C90.2838 209.631 90.4842 208.781 91.3284 208.241C92.1664 207.688 93.0227 207.852 92.9923 207.98Z" fill="#1A1A1A"/>
<path d="M96.0349 209.2C96.0714 209.334 95.458 209.583 94.9843 210.184C94.4924 210.773 94.377 211.417 94.2374 211.411C94.1038 211.435 94.0005 210.609 94.6017 209.874C95.1969 209.133 96.0289 209.066 96.0289 209.2H96.0349Z" fill="#1A1A1A"/>
<path d="M97.7898 212.807C97.6622 212.838 97.4558 212.133 97.8141 211.362C98.1602 210.585 98.8221 210.269 98.8889 210.39C98.9679 210.506 98.5428 210.925 98.2634 211.569C97.9659 212.206 97.9355 212.801 97.7958 212.814L97.7898 212.807Z" fill="#1A1A1A"/>
<path d="M92.7008 204.573C92.6401 204.7 91.9964 204.512 91.1948 204.573C90.3993 204.621 89.7798 204.895 89.707 204.773C89.6219 204.67 90.2231 204.142 91.1644 204.081C92.1057 204.014 92.7676 204.457 92.7008 204.567V204.573Z" fill="#1A1A1A"/>
<path d="M83.853 133.618C83.853 133.618 91.7415 132.987 92.6221 141.549C93.5026 150.112 94.365 190.059 94.365 190.059L75.928 191.595L73.0738 150.774L43.6633 138.264C43.6633 138.264 78.5879 132.531 83.8591 133.624L83.853 133.618Z" fill="#1A1A1A"/>
<path d="M51.3332 122.068C51.3332 122.068 56.1186 135.495 55.2077 136.989C54.2967 138.483 41.9811 144.641 41.9811 144.641L11.1739 156.47C11.1739 156.47 8.01001 151.436 8.01001 143.705C8.01001 135.975 18.7285 122.062 18.7285 122.062H51.3332V122.068Z" fill="#1A1A1A"/>
<path d="M42.1997 137.571C42.1997 137.571 42.2483 137.602 42.3455 137.65C42.4608 137.705 42.6005 137.772 42.7827 137.851C43.1896 138.033 43.7604 138.288 44.4891 138.61C46.0013 139.272 48.1753 140.213 50.8959 141.397C56.3918 143.766 64.0921 147.081 73.0069 150.913L72.9098 150.774C73.1891 154.806 73.4927 159.16 73.8025 163.666C74.5494 174.196 75.2417 183.913 75.7883 191.595L75.8004 191.735L75.9401 191.722C81.5452 191.231 86.1484 190.824 89.3731 190.544C90.9581 190.399 92.203 190.277 93.0714 190.198C93.4783 190.156 93.8001 190.119 94.037 190.095C94.2556 190.071 94.3649 190.052 94.3649 190.046C94.3649 190.04 94.2495 190.046 94.0309 190.052C93.794 190.065 93.4722 190.089 93.0592 190.113C92.1908 190.18 90.9398 190.271 89.3548 190.386C86.1302 190.641 81.527 191.006 75.9158 191.449L76.0615 191.577C75.5332 183.889 74.8652 174.178 74.1425 163.642C73.8267 159.136 73.517 154.782 73.2377 150.749V150.646L73.1405 150.61C64.2075 146.82 56.489 143.541 50.9809 141.203C48.2482 140.055 46.062 139.138 44.5377 138.501C43.7968 138.197 43.2199 137.96 42.8131 137.79C42.6248 137.717 42.4791 137.656 42.3637 137.614C42.2604 137.577 42.2119 137.559 42.2058 137.565L42.1997 137.571Z" fill="#636363"/>
<path d="M17.6961 138.914C17.6961 138.914 18.0119 138.853 18.5584 138.677C19.1718 138.483 19.9491 138.228 20.8782 137.93C22.8336 137.311 25.5482 136.442 28.6392 135.969C31.7303 135.489 34.5905 135.641 36.5885 136.072C38.5925 136.485 39.7463 137.062 39.7706 136.995C39.7767 136.977 39.4974 136.819 38.969 136.588C38.4407 136.357 37.6452 136.078 36.6371 135.835C34.627 135.337 31.7121 135.149 28.5846 135.629C25.4571 136.108 22.7365 137.019 20.7932 137.699C19.8215 138.046 19.0442 138.337 18.5038 138.55C17.9694 138.762 17.6779 138.89 17.6839 138.914H17.6961Z" fill="#636363"/>
<path d="M22.0503 131.839C22.0564 131.893 23.0827 131.693 24.7466 131.82C25.5786 131.881 26.5624 132.003 27.6615 132.13C28.7607 132.264 29.9631 132.41 31.2141 132.646C33.7161 133.09 35.8719 133.964 37.2505 134.887C38.6411 135.792 39.297 136.618 39.3456 136.575C39.3577 136.563 39.218 136.345 38.8962 135.999C38.5743 135.652 38.0824 135.173 37.3841 134.693C36.0116 133.697 33.8072 132.768 31.2748 132.318C30.0117 132.082 28.7972 131.942 27.698 131.827C26.5988 131.717 25.6029 131.614 24.7588 131.584C23.9146 131.553 23.2284 131.602 22.7669 131.675C22.2993 131.748 22.0503 131.827 22.0564 131.845L22.0503 131.839Z" fill="#636363"/>
<path d="M35.6591 23.9564C32.1126 23.3552 28.9973 24.7216 26.0095 26.7195C23.0217 28.7175 20.7687 31.7357 19.4691 35.0878C18.1027 38.6222 17.7687 42.5938 18.8193 46.2314C19.8699 49.869 22.3658 53.124 25.7423 54.8426C30.3515 57.1867 36.2543 56.3669 40.3777 53.2515C44.5011 50.1301 46.8634 44.9743 47.0578 39.8064C47.1914 36.2477 46.3412 32.6041 44.3554 29.6466C42.3635 26.6892 39.1874 24.4787 35.6652 23.9625" fill="#1A1A1A"/>
<path d="M25.5786 36.0104C26.0948 34.6562 25.8944 33.138 26.1009 31.7048C26.5502 28.5409 29.1008 26.0024 32.0522 24.7697C34.7971 23.6219 38.1492 23.8709 41.4528 24.9397C43.718 25.6745 45.8495 26.9498 47.3617 28.7899C49.3657 31.2311 50.0701 34.6865 49.1896 37.7168L32.9935 35.3606C31.4753 36.6177 29.9267 37.893 28.0867 38.5913C27.5462 38.7978 26.9693 38.9496 26.3984 38.8585C25.8276 38.7674 25.275 38.3788 25.1414 37.8201C24.9956 37.2067 25.36 36.6055 25.5847 36.0165L25.5786 36.0104Z" fill="#1A1A1A"/>
<path d="M41.799 29.4093L27.6616 32.4031C26.2952 32.4942 25.2203 33.6177 25.196 34.9901L25.3661 65.5909C25.3782 67.6799 26.0766 69.7082 27.358 71.36L28.7061 73.0968C31.7789 77.0624 38.0096 76.6616 40.3537 72.2284C40.5177 71.9187 40.633 71.6454 40.6816 71.4268C40.7302 71.1536 40.8031 70.9714 40.8152 70.7345L41.0824 67.7528C41.2221 65.0261 41.2403 62.263 41.2403 62.2873C41.2403 62.2873 47.0277 61.5586 48.5094 54.1012C49.2443 50.3907 49.2989 44.2693 49.1775 39.2593C49.0681 34.7472 46.299 29.1117 41.799 29.4093Z" fill="#FFD7B0"/>
<path d="M47.0276 44.9982C47.0276 45.5083 46.5964 45.9273 46.062 45.9334C45.5337 45.9395 45.1025 45.5387 45.1025 45.0285C45.1025 44.5184 45.5337 44.0994 46.0681 44.0933C46.5964 44.0873 47.0276 44.4881 47.0276 44.9982Z" fill="#1A1A1A"/>
<path d="M47.7258 42.3868C47.6044 42.5082 46.8939 41.9374 45.8615 41.901C44.8291 41.8463 44.0457 42.3503 43.9425 42.2228C43.8879 42.1621 44.0215 41.9435 44.3615 41.7127C44.6955 41.488 45.2603 41.2755 45.904 41.2998C46.5477 41.3301 47.0821 41.5852 47.3858 41.8402C47.6955 42.0953 47.7927 42.3261 47.7319 42.3807L47.7258 42.3868Z" fill="#1A1A1A"/>
<path d="M37.7483 44.7672C37.7483 45.2773 37.3171 45.6964 36.7827 45.7024C36.2544 45.7085 35.8232 45.3077 35.8232 44.7976C35.8232 44.2875 36.2544 43.8684 36.7888 43.8624C37.3171 43.8563 37.7483 44.2571 37.7483 44.7672Z" fill="#1A1A1A"/>
<path d="M37.9001 42.1378C37.7726 42.2592 37.0682 41.6884 36.0297 41.6519C34.9974 41.5973 34.214 42.1013 34.1107 41.9738C34.0561 41.9131 34.1897 41.6944 34.5297 41.4637C34.8637 41.239 35.4285 41.0264 36.0722 41.0507C36.7159 41.0811 37.2504 41.3361 37.554 41.5912C37.8637 41.8463 37.9609 42.077 37.9001 42.1317V42.1378Z" fill="#1A1A1A"/>
<path d="M41.0033 50.0075C41.0033 49.9468 41.647 49.8618 42.6976 49.7707C42.9648 49.7524 43.2138 49.7099 43.2684 49.5338C43.3352 49.3456 43.2381 49.0541 43.1227 48.7444C42.898 48.0946 42.6672 47.4144 42.4182 46.7039C41.4466 43.795 40.7482 41.4084 40.8697 41.372C40.9851 41.3356 41.8717 43.6614 42.8494 46.5703C43.0802 47.2869 43.3049 47.9731 43.5174 48.6229C43.6085 48.9265 43.7664 49.2727 43.6146 49.6674C43.5356 49.8618 43.3352 49.9954 43.1652 50.0379C42.9952 50.0804 42.8433 50.0804 42.7158 50.0804C41.6652 50.0986 41.0154 50.0804 41.0094 50.0196L41.0033 50.0075Z" fill="#1A1A1A"/>
<path d="M41.2463 62.2875C41.2463 62.2875 36.1877 62.415 31.3052 59.2207C31.3052 59.2207 33.6311 64.5101 41.1674 64.1032L41.2524 62.2935L41.2463 62.2875Z" fill="#F28500"/>
<path d="M40.4688 52.4863C40.1166 51.9822 39.4729 51.6847 38.8231 51.7272C38.3737 51.7575 37.9122 51.9579 37.6207 52.3101C37.3353 52.6624 37.2563 53.1846 37.4931 53.5429C37.7543 53.9437 38.3373 54.0591 38.8352 53.9377C39.3332 53.8162 39.7704 53.5065 40.1895 53.1968C40.3048 53.1118 40.4202 53.0207 40.4992 52.8992C40.572 52.7777 40.5963 52.6199 40.5113 52.5166" fill="#F28500"/>
<path d="M37.9304 50.6093C38.1004 50.6093 38.0579 51.7327 38.9871 52.5647C39.9162 53.4027 41.1186 53.3238 41.1186 53.4817C41.1307 53.5546 40.8453 53.6882 40.3352 53.6821C39.8372 53.6821 39.1207 53.4938 38.5498 52.9837C37.979 52.4736 37.7543 51.8117 37.7361 51.3441C37.7118 50.8704 37.8454 50.5971 37.9243 50.6093H37.9304Z" fill="#1A1A1A"/>
<path d="M37.8394 39.065C37.724 39.3443 36.6977 39.1682 35.4771 39.2654C34.2565 39.3383 33.2605 39.6601 33.1087 39.399C33.0419 39.2775 33.2241 39.0164 33.631 38.7613C34.0318 38.5063 34.6694 38.2694 35.4042 38.2148C36.139 38.1662 36.801 38.3059 37.2321 38.5002C37.6694 38.6945 37.888 38.9253 37.8394 39.0589V39.065Z" fill="#1A1A1A"/>
<path d="M47.6044 37.8508C47.4162 38.0815 46.7117 37.8083 45.8494 37.7597C44.9931 37.6868 44.2583 37.8569 44.1004 37.6018C44.0336 37.4803 44.1551 37.2496 44.483 37.037C44.8049 36.8245 45.3332 36.6666 45.9223 36.7091C46.5113 36.7516 47.0154 36.9824 47.3008 37.2374C47.5923 37.4925 47.6834 37.7354 47.5984 37.8508H47.6044Z" fill="#1A1A1A"/>
<path d="M22.9855 33.8305C24.449 29.5249 30.8497 23.6586 35.38 24.0655L42.5398 28.5533C42.054 31.0127 40.1047 33.1261 37.6877 33.8062C36.4003 34.1706 34.8517 34.2495 34.0683 35.3305C33.2667 36.4418 33.6918 38.0875 32.9448 39.2292C31.9125 40.8142 29.1676 40.6867 28.3842 42.4114C28.038 43.1644 28.1959 44.0753 27.8376 44.8222C27.364 45.8182 24.7952 47.0388 23.7507 46.6866C22.7061 46.3344 22.7365 44.5429 22.4146 43.5955C21.862 41.9802 22.1171 41.1543 22.3296 40.2616C22.8276 38.1483 22.2932 35.877 22.9916 33.8244L22.9855 33.8305Z" fill="#1A1A1A"/>
<path d="M26.8355 47.6398C26.8538 47.0811 26.2586 45.739 25.7121 45.6297C24.2485 45.3443 21.5887 45.3565 21.4186 49.0973C21.1879 54.2106 26.3679 53.3907 26.3862 53.245C26.3983 53.1296 26.7687 49.571 26.8355 47.6398Z" fill="#FFD7B0"/>
<path d="M24.9105 51.2345C24.9105 51.2345 24.8194 51.2952 24.6676 51.356C24.5158 51.4167 24.2607 51.4531 23.9996 51.3378C23.4713 51.1131 23.0522 50.2386 23.0705 49.3155C23.0765 48.8479 23.198 48.4107 23.3802 48.0524C23.5502 47.688 23.8053 47.433 24.0785 47.3965C24.3518 47.3479 24.534 47.518 24.5947 47.6637C24.6555 47.8095 24.619 47.9127 24.6494 47.9188C24.6615 47.9309 24.7648 47.8398 24.7283 47.6273C24.7101 47.524 24.6555 47.4026 24.5401 47.2994C24.4247 47.1961 24.2425 47.1354 24.0543 47.1475C23.6595 47.1597 23.2891 47.5058 23.0887 47.9006C22.8701 48.2953 22.7243 48.7872 22.7182 49.3094C22.7061 50.3418 23.1858 51.3317 23.9146 51.5746C24.2668 51.6839 24.5765 51.5928 24.7344 51.4774C24.8984 51.356 24.9287 51.2467 24.9105 51.2345Z" fill="#F28500"/>
<path d="M21.8923 32.5002C21.9105 30.9031 19.9126 29.8525 18.3519 29.4942C16.7912 29.1298 15.1454 29.6035 13.7426 30.3747C12.9228 30.8241 12.0969 31.4618 11.9147 32.3848C11.7325 33.3018 12.6131 34.3949 13.4876 34.067C11.8115 34.6439 10.9552 36.8848 11.8297 38.4273C12.7042 39.9697 15.0665 40.3948 16.4207 39.2531C15.9835 40.7167 15.0301 42.0223 13.7608 42.8847C16.3904 43.2612 19.1838 42.1377 20.8235 40.0426C22.4631 37.9536 22.8822 34.9718 21.8862 32.5063L21.8923 32.5002Z" fill="#1A1A1A"/>
<path d="M18.3461 40.638C18.3096 40.638 18.1699 40.0611 18.1578 39.1016C18.1396 38.1421 18.2793 36.8061 18.7469 35.4093C19.2205 34.0187 19.9128 32.8648 20.514 32.1118C21.1092 31.3588 21.5707 30.9762 21.595 31.0066C21.6922 31.0734 19.9736 32.7737 19.0687 35.5126C18.1274 38.2453 18.4675 40.6319 18.3521 40.6319L18.3461 40.638Z" fill="#FF4E5B"/>
<path d="M41.052 27.0042C41.5196 29.0872 44.6896 31.7532 46.0742 33.3746C48.7219 36.4656 49.2442 37.4919 49.2199 44.4088C50.4709 42.0222 51.4304 39.6842 51.3332 36.9879C51.236 34.2916 50.2462 31.5953 48.3697 29.6581C46.4993 27.7208 43.7179 26.6217 41.0459 27.0042" fill="#1A1A1A"/>
<path d="M62.7438 83.9002C62.7438 83.9002 57.2358 74.7121 55.7054 72.8538C54.2723 71.1109 52.4261 70.0846 51.1934 69.5442C50.5071 69.2466 49.7845 69.0401 49.0497 68.9126L41.1247 67.1576C41.1247 67.1576 41.1126 72.5684 35.4406 72.9024C29.7747 73.2364 25.0015 65.3418 25.0015 65.3418C25.0015 65.3418 15.8437 66.7568 13.6514 67.8863C11.4592 69.0158 8.01591 70.4429 6.1212 79.9347L4.79126 89.2139L20.5805 90.6714L22.0926 114.131L29.9204 119.584C29.9204 119.584 51.6306 125.225 53.0152 125.602C54.3998 125.972 54.8613 90.6714 54.8613 90.6714C54.8613 90.6714 60.4361 87.0641 62.7438 83.9063V83.9002Z" fill="#1A1A1A"/>
<path d="M52.3474 79.9538C52.3474 79.9538 52.475 80.1846 52.6511 80.6279C52.8332 81.0712 53.064 81.721 53.3191 82.5348C53.8353 84.1623 54.4 86.4638 54.7158 89.0569C55.0316 91.65 55.0377 94.0184 54.9344 95.7248C54.8798 96.575 54.819 97.2673 54.7462 97.7349C54.6794 98.2086 54.6369 98.4697 54.6126 98.4637C54.5883 98.4637 54.5944 98.1965 54.6247 97.7228C54.6551 97.2491 54.6854 96.5629 54.7097 95.7127C54.7583 94.0184 54.7097 91.6682 54.4061 89.0934C54.0903 86.5246 53.562 84.2351 53.1065 82.5955C52.8818 81.7757 52.6814 81.1198 52.5357 80.6643C52.396 80.2089 52.3292 79.9538 52.3474 79.9478V79.9538Z" fill="#636363"/>
<path d="M51.6731 118.388L21.9469 111.915L20.5744 90.6659L7.354 89.4453C7.354 89.4453 7.8459 103.971 8.34994 108.289C9.07867 114.502 12.7527 122.973 14.9025 124.667C17.0522 126.362 53.0092 125.597 53.0092 125.597L51.6731 118.382V118.388Z" fill="#FFD7B0"/>
<path d="M68.5496 122.239C68.3432 122.652 67.9059 122.925 67.4444 122.882C67.3533 122.876 67.2561 122.858 67.159 122.822C66.5031 122.609 66.5638 121.273 66.5638 121.273L63.4121 120.757C63.4121 120.757 59.3129 123.398 57.8555 125.147C56.398 126.896 52.6815 125.481 52.6815 125.481L51.394 118.765L57.1935 113.518C57.1935 113.518 56.8353 113.828 57.2361 112.85C57.6369 111.866 59.4587 112.243 59.4587 112.243C59.7441 111.757 60.9344 111.587 60.9344 111.587L66.0234 112.176C67.074 112.297 68.0092 112.886 68.5739 113.779L70.7237 117.186C70.7237 117.186 71.8593 119.639 71.6771 120.21C71.4039 121.073 70.4929 120.878 70.4929 120.878C70.4929 120.878 70.244 122.488 69.8189 122.548C69.3938 122.603 68.5618 122.245 68.5618 122.245L68.5496 122.239Z" fill="#FFD7B0"/>
<path d="M57.7217 117.416C57.7217 117.471 58.4019 117.404 59.4889 117.453C60.5699 117.507 62.0698 117.696 63.6427 118.23C64.4261 118.491 65.1487 118.813 65.7803 119.147C66.3936 119.493 67.0374 119.779 67.2317 120.228C67.3289 120.447 67.2863 120.671 67.177 120.835C67.0677 120.999 66.922 121.108 66.7944 121.157C66.5272 121.266 66.3572 121.193 66.3511 121.224C66.339 121.23 66.509 121.364 66.837 121.278C66.9949 121.236 67.177 121.127 67.3289 120.938C67.4807 120.756 67.5657 120.434 67.4503 120.143C67.341 119.845 67.0859 119.615 66.8187 119.426C66.5394 119.244 66.254 119.062 65.926 118.886C65.2884 118.528 64.5475 118.194 63.7459 117.926C62.1427 117.38 60.6002 117.222 59.495 117.228C58.3897 117.24 57.7156 117.386 57.7217 117.422V117.416Z" fill="#F28500"/>
<path d="M57.3696 120.659C57.3696 120.756 59.4465 120.671 61.991 120.817C64.5355 120.957 66.582 121.278 66.6003 121.181C66.6063 121.139 66.1023 121.005 65.2764 120.859C64.4505 120.714 63.2967 120.568 62.0092 120.495C60.7279 120.422 59.5619 120.44 58.7239 120.495C57.8858 120.544 57.3696 120.623 57.3696 120.665V120.659Z" fill="#F28500"/>
<path d="M68.5189 122.105C68.5189 122.105 68.5614 121.917 68.5857 121.565C68.6039 121.212 68.6282 120.708 68.5857 120.077C68.5614 119.761 68.5311 119.415 68.4461 119.044C68.3671 118.674 68.191 118.279 67.9481 117.933C67.4926 117.241 66.855 116.518 66.0412 115.984C65.2336 115.449 64.4259 115 63.606 114.757C62.7923 114.514 62.0332 114.453 61.4077 114.423C60.7761 114.399 60.2721 114.417 59.9199 114.423C59.5677 114.435 59.3794 114.453 59.3794 114.478C59.3794 114.532 60.1567 114.557 61.3956 114.648C62.015 114.702 62.7498 114.787 63.515 115.036C64.2801 115.279 65.0696 115.735 65.853 116.245C66.6364 116.767 67.2315 117.429 67.6991 118.097C68.191 118.741 68.2821 119.475 68.361 120.089C68.4825 121.322 68.4521 122.105 68.525 122.099L68.5189 122.105Z" fill="#F28500"/>
<path d="M61.1709 112.88C61.1709 112.929 61.93 112.947 63.1446 113.087C64.3166 113.269 66.187 113.354 67.2558 114.963C68.4096 116.433 69.3934 117.817 69.8246 118.953C70.2801 120.082 70.2376 120.866 70.3044 120.86C70.3226 120.86 70.3529 120.665 70.3347 120.319C70.3226 119.973 70.2436 119.463 70.0372 118.874C69.6485 117.671 68.6708 116.238 67.5109 114.763C67.2133 114.392 66.8915 114.04 66.521 113.761C66.1506 113.475 65.7194 113.311 65.3247 113.196C64.5231 112.971 63.7822 112.904 63.1688 112.856C61.9361 112.771 61.1709 112.838 61.1709 112.874V112.88Z" fill="#F28500"/>
<path d="M58.9667 124.067C58.9667 124.067 59.076 123.994 59.2703 123.836C59.4889 123.66 59.7683 123.435 60.1205 123.15C60.8735 122.567 61.9909 121.741 63.4605 120.848L63.3876 120.86C64.3289 121.018 65.3856 121.2 66.5333 121.394L66.424 121.261C66.418 121.516 66.4301 121.771 66.4848 122.032C66.5394 122.287 66.6184 122.567 66.8431 122.791C66.9584 122.901 67.1224 122.967 67.2621 122.986C67.4017 123.022 67.5536 123.034 67.7054 123.01C68.003 122.967 68.2884 122.809 68.4888 122.579C68.5374 122.524 68.5859 122.457 68.6285 122.39L68.6588 122.342L68.671 122.318V122.305H68.677C68.7195 122.287 68.3248 122.433 68.4949 122.372H68.507L68.6042 122.415C68.7378 122.469 68.8714 122.518 69.011 122.56C69.1507 122.603 69.2904 122.639 69.4422 122.67C69.5151 122.682 69.594 122.694 69.679 122.694C69.758 122.694 69.8491 122.694 69.9705 122.639C70.1466 122.512 70.2134 122.366 70.2802 122.22C70.341 122.075 70.3956 121.935 70.4381 121.789C70.5232 121.498 70.59 121.206 70.6385 120.897L70.4564 121.024C70.8632 121.097 71.3491 121 71.6284 120.623C71.7559 120.447 71.8592 120.235 71.847 119.992C71.8349 119.773 71.7863 119.579 71.7377 119.384C71.5191 118.613 71.2033 117.872 70.8693 117.119V117.101C70.4989 116.524 70.1102 115.905 69.7155 115.285C69.4726 114.897 69.2297 114.514 68.9867 114.131C68.7438 113.761 68.5313 113.348 68.1912 113.014C67.8633 112.686 67.4746 112.425 67.0495 112.255C66.6305 112.073 66.1629 112.03 65.75 111.988C64.0617 111.799 62.4585 111.617 60.9525 111.447H60.916C60.6185 111.496 60.3452 111.569 60.078 111.672C59.8168 111.781 59.5375 111.897 59.3492 112.182L59.5254 112.127C58.9849 111.909 58.3655 111.903 57.8918 112.219C57.4181 112.528 57.1995 113.032 57.0841 113.506L57.1205 113.439C55.4566 114.939 54.0963 116.16 53.1246 117.034C52.6753 117.447 52.317 117.775 52.0498 118.024C51.8068 118.255 51.6793 118.376 51.6915 118.388C51.6975 118.395 51.8372 118.291 52.0983 118.079C52.3777 117.842 52.7542 117.526 53.2157 117.137C54.2056 116.281 55.5902 115.091 57.2845 113.621L57.3149 113.597L57.327 113.555C57.4363 113.135 57.6489 112.68 58.0375 112.437C58.4201 112.182 58.9667 112.188 59.416 112.376L59.5254 112.425L59.5922 112.322C59.7015 112.152 59.9444 112.024 60.1873 111.933C60.4302 111.842 60.7035 111.775 60.9707 111.733H60.9342C62.4342 111.909 64.0435 112.097 65.7257 112.297C66.1568 112.346 66.5576 112.382 66.9402 112.553C67.3228 112.704 67.675 112.941 67.9726 113.239C68.2702 113.53 68.4766 113.919 68.7256 114.301C68.9685 114.684 69.2054 115.067 69.4543 115.455C69.8491 116.075 70.2377 116.694 70.6021 117.271L70.59 117.253C70.924 117.988 71.2337 118.729 71.4462 119.463C71.4948 119.646 71.5434 119.834 71.5495 119.998C71.5677 120.143 71.4948 120.301 71.3976 120.429C71.2155 120.69 70.845 120.769 70.5353 120.72L70.3774 120.696L70.3531 120.848C70.3045 121.133 70.2438 121.425 70.1649 121.698C70.092 121.959 69.9766 122.275 69.8369 122.378C69.8309 122.378 69.7762 122.396 69.7094 122.39C69.6487 122.39 69.5819 122.378 69.5151 122.372C69.3815 122.348 69.2539 122.318 69.1203 122.275C68.9867 122.233 68.8592 122.19 68.7317 122.141L68.6406 122.105H68.6345C68.7985 122.038 68.4098 122.184 68.4463 122.172V122.184L68.428 122.202L68.4038 122.245C68.3734 122.293 68.337 122.348 68.2944 122.39C68.1366 122.573 67.9179 122.7 67.6872 122.737C67.5718 122.755 67.4564 122.749 67.341 122.718C67.2135 122.7 67.1345 122.664 67.0556 122.597C66.758 122.287 66.7155 121.728 66.7095 121.279V121.164L66.6001 121.145C65.4524 120.963 64.3897 120.799 63.4484 120.654H63.4059L63.3755 120.666C61.8998 121.595 60.8006 122.451 60.0719 123.058C59.7075 123.368 59.4343 123.617 59.2521 123.787C59.0699 123.963 58.9849 124.054 58.9909 124.06L58.9667 124.067Z" fill="#F28500"/>
<path d="M107.118 102.702L67.9603 103.018C66.6911 103.018 65.4765 103.625 65.2883 104.882L61.007 133.418H40.8393C40.1895 133.418 39.6611 133.947 39.6611 134.596C39.6611 135.246 40.1895 135.775 40.8393 135.775H105.253L109.656 105.654C109.893 104.099 108.69 102.702 107.118 102.702Z" fill="#F6F6F6"/>
<path d="M107.118 102.702C107.118 102.702 107.33 102.678 107.737 102.763C108.132 102.854 108.745 103.097 109.231 103.753C109.474 104.074 109.656 104.506 109.717 105.004C109.784 105.508 109.638 106.042 109.571 106.613C109.407 107.767 109.219 109.097 109.006 110.584C108.144 116.566 106.905 125.189 105.375 135.793L105.363 135.896H105.259C88.5896 135.908 66.6851 135.92 42.7644 135.932H41.0823C40.8211 135.944 40.4628 135.932 40.1896 135.762C39.9102 135.61 39.6977 135.355 39.5884 135.058C39.3515 134.463 39.6369 133.728 40.1956 133.43C40.4628 133.266 40.8211 133.254 41.0762 133.266H41.9021C44.1065 133.266 46.2927 133.266 48.4485 133.266C52.7602 133.266 56.9565 133.266 61.007 133.266L60.8552 133.394C62.3977 123.173 63.8309 113.639 65.1244 105.083C65.1669 104.542 65.4159 103.953 65.8471 103.589C66.2721 103.212 66.8126 103.012 67.347 102.927C67.8936 102.842 68.4098 102.89 68.926 102.872C69.4421 102.872 69.9523 102.866 70.4624 102.86C72.4967 102.848 74.4643 102.836 76.359 102.817C80.1484 102.793 83.6524 102.769 86.8346 102.751C93.1928 102.72 98.2575 102.69 101.749 102.672C103.486 102.672 104.822 102.672 105.739 102.666C106.189 102.666 106.529 102.666 106.772 102.666C107.002 102.666 107.124 102.678 107.124 102.678C107.124 102.678 107.008 102.69 106.772 102.696C106.529 102.696 106.189 102.708 105.739 102.72C104.822 102.732 103.48 102.751 101.749 102.775C98.2575 102.811 93.1928 102.872 86.8346 102.939C83.6524 102.969 80.1484 103.006 76.359 103.042C74.4643 103.06 72.4967 103.078 70.4624 103.097C69.9523 103.097 69.4421 103.109 68.926 103.109C68.4098 103.127 67.8814 103.085 67.3835 103.163C66.8855 103.242 66.3936 103.431 66.0171 103.765C65.6345 104.099 65.428 104.566 65.3795 105.101C64.1042 113.657 62.6831 123.192 61.1528 133.418L61.1346 133.546H61.001C56.9565 133.546 52.7541 133.546 48.4425 133.546C46.2866 133.546 44.1065 133.546 41.896 133.546H41.0701C40.7786 133.54 40.56 133.546 40.3414 133.673C39.9102 133.898 39.6977 134.457 39.8798 134.912C39.9649 135.137 40.1288 135.337 40.3414 135.452C40.56 135.58 40.7786 135.592 41.0762 135.58C41.6349 135.58 42.1936 135.58 42.7583 135.58C66.679 135.592 88.5835 135.61 105.253 135.616L105.132 135.72C106.705 125.123 107.98 116.505 108.867 110.53C109.091 109.036 109.292 107.712 109.462 106.558C109.529 105.981 109.68 105.453 109.62 104.973C109.571 104.493 109.395 104.074 109.164 103.759C108.703 103.109 108.101 102.86 107.719 102.763C107.324 102.666 107.112 102.684 107.112 102.672L107.118 102.702Z" fill="#1A1A1A"/>
<path d="M85.8811 121.334C87.2361 121.334 88.3345 120.235 88.3345 118.88C88.3345 117.525 87.2361 116.427 85.8811 116.427C84.5262 116.427 83.4277 117.525 83.4277 118.88C83.4277 120.235 84.5262 121.334 85.8811 121.334Z" fill="white"/>
<path d="M62.5983 135.513C62.653 135.525 63.8979 128.256 65.3796 119.286C66.8614 110.311 68.0152 103.03 67.9606 103.023C67.9059 103.011 66.661 110.28 65.1792 119.256C63.6975 128.225 62.5436 135.507 62.5983 135.519V135.513Z" fill="#1A1A1A"/>
</g>
<defs>
<clipPath id="clip0_12512_188537">
<rect width="260" height="240" fill="white"/>
</clipPath>
</defs>
</svg>
