<svg width="252" height="248" viewBox="0 0 252 248" fill="none" xmlns="http://www.w3.org/2000/svg">
<g clip-path="url(#clip0_12512_189240)">
<path d="M221.238 11.9282C221.238 11.9282 221.093 12.0787 220.809 12.3686C220.514 12.6585 220.084 13.0822 219.521 13.6396C218.379 14.7546 216.701 16.3991 214.532 18.523C210.178 22.7708 203.857 28.9364 195.974 36.6238C180.187 51.993 158.139 73.4441 133.109 97.8052L132.998 97.9111L132.897 97.794C127.953 91.8738 122.791 85.6859 117.523 79.3755C103.38 62.4231 89.9673 46.3459 78.0655 32.0749L78.2773 32.0637C64.2794 53.1023 52.4501 70.8909 44.1105 83.4226C39.9351 89.6774 36.6405 94.622 34.3828 98.0058C33.2511 99.6894 32.3871 100.983 31.7962 101.863C31.5007 102.298 31.2777 102.627 31.1272 102.85C30.9767 103.073 30.8931 103.179 30.8931 103.179C30.8931 103.179 30.96 103.062 31.1049 102.839C31.2554 102.61 31.4728 102.276 31.7571 101.836C32.3369 100.949 33.1954 99.6503 34.3103 97.9557C36.5513 94.5607 39.8292 89.6049 43.9767 83.3335C52.294 70.7906 64.0955 52.9853 78.0543 31.9188L78.1546 31.7738L78.2661 31.9076C90.1791 46.1731 103.597 62.2447 117.746 79.1915C123.008 85.502 128.176 91.6898 133.115 97.61L132.903 97.5989C157.961 73.2657 180.025 51.8369 195.835 36.4844C203.745 28.8193 210.083 22.6761 214.454 18.4449C216.639 16.3377 218.328 14.7044 219.477 13.595C220.051 13.0487 220.486 12.6306 220.781 12.3463C221.077 12.0676 221.233 11.9282 221.233 11.9282H221.238Z" fill="#E8E8E8"/>
<path d="M78.1713 37.4714C81.1977 37.4714 83.6511 35.018 83.6511 31.9916C83.6511 28.9651 81.1977 26.5117 78.1713 26.5117C75.1448 26.5117 72.6914 28.9651 72.6914 31.9916C72.6914 35.018 75.1448 37.4714 78.1713 37.4714Z" fill="#E8E8E8"/>
<path d="M32.9833 108.251C35.7821 107.1 37.1177 103.898 35.9664 101.099C34.8151 98.2998 31.6128 96.9642 28.8139 98.1155C26.015 99.2669 24.6794 102.469 25.8308 105.268C26.9821 108.067 30.1844 109.403 32.9833 108.251Z" fill="#E8E8E8"/>
<path d="M138.425 98.5826C138.909 95.595 136.879 92.7812 133.891 92.2979C130.903 91.8145 128.09 93.8446 127.606 96.8322C127.123 99.8198 129.153 102.634 132.141 103.117C135.128 103.6 137.942 101.57 138.425 98.5826Z" fill="#E8E8E8"/>
<path d="M229.393 11.0454C230.057 8.09274 228.202 5.16062 225.25 4.4963C222.297 3.83198 219.365 5.68702 218.701 8.63965C218.036 11.5923 219.891 14.5244 222.844 15.1887C225.797 15.853 228.729 13.998 229.393 11.0454Z" fill="#E8E8E8"/>
<path d="M23.4562 20.7246C24.7941 19.9163 26.2212 19.3031 27.6929 18.8794L28.5681 14.6817L35.659 14.5591L36.6792 18.7233C38.1676 19.0912 39.6114 19.6543 40.9828 20.418L44.5673 18.0711L49.668 22.999L47.4493 26.6616C48.2577 28.0051 48.8764 29.4322 49.289 30.9039L53.4867 31.7791L53.6093 38.87L49.4451 39.8901C49.0771 41.373 48.5141 42.8224 47.7504 44.1937L50.0973 47.7782L45.1749 52.879L41.5124 50.6603C40.1689 51.4686 38.7418 52.0818 37.2701 52.4999L36.3949 56.6976L29.304 56.8202L28.2838 52.656C26.801 52.2881 25.3516 51.725 23.9802 50.9613L20.3957 53.3082L15.295 48.3803L17.5137 44.7177C16.7053 43.3743 16.0866 41.9472 15.6685 40.4755L11.4708 39.6003L11.3481 32.5093L15.5124 31.4892C15.8803 30.0063 16.4433 28.5569 17.2071 27.1856L14.8602 23.6011L19.7825 18.5003L23.4451 20.719L23.4562 20.7246ZM27.2358 30.168C24.3203 33.1894 24.4039 38.0059 27.4253 40.9214C30.4468 43.837 35.2632 43.7533 38.1788 40.7319C41.0943 37.7105 41.0107 32.894 37.9892 29.9785C34.9678 27.0629 30.1513 27.1466 27.2358 30.168Z" fill="#E8E8E8"/>
<path d="M140.468 7.92095C142.134 6.91195 143.907 6.14823 145.736 5.62979L146.823 0.411949L155.636 0.255859L156.902 5.4291C158.747 5.88622 160.547 6.58305 162.248 7.53073L166.702 4.60963L173.04 10.7306L170.281 15.285C171.29 16.9518 172.053 18.7246 172.572 20.553L177.784 21.6401L177.94 30.4535L172.767 31.7246C172.31 33.5697 171.613 35.3704 170.665 37.0706L173.586 41.5247L167.465 47.8631L162.911 45.1036C161.244 46.1126 159.471 46.8764 157.643 47.3948L156.556 52.6126L147.742 52.7687L146.471 47.5955C144.626 47.1384 142.826 46.4415 141.125 45.4939L136.671 48.4149L130.333 42.294L133.092 37.7396C132.083 36.0728 131.32 34.3 130.801 32.4715L125.583 31.3845L125.427 22.571L130.6 21.3C131.058 19.4548 131.754 17.6542 132.702 15.954L129.781 11.4999L135.902 5.16152L140.456 7.92095H140.468ZM145.167 19.6611C141.538 23.4184 141.644 29.4055 145.401 33.029C149.158 36.6581 155.146 36.5522 158.769 32.7949C162.398 29.0376 162.292 23.0505 158.535 19.427C154.778 15.7979 148.796 15.9038 145.167 19.6611Z" fill="#FAFAFA"/>
<path d="M57.3555 3.22038C58.0579 2.79671 58.8049 2.47338 59.5742 2.25597L60.0313 0.0595711L63.744 -0.00732422L64.2791 2.17235C65.054 2.36189 65.8122 2.65734 66.5313 3.05871L68.4044 1.82672L71.0746 4.4022L69.9095 6.31986C70.3332 7.02226 70.6565 7.76926 70.8739 8.53856L73.0703 8.99568L73.1372 12.7084L70.9575 13.2435C70.768 14.0184 70.4725 14.7766 70.0712 15.4957L71.2976 17.3687L68.7221 20.039L66.8044 18.8739C66.102 19.2976 65.355 19.6209 64.5857 19.8383L64.1286 22.0347L60.4159 22.1016L59.8808 19.9219C59.1059 19.7324 58.3478 19.4369 57.6286 19.0356L55.7556 20.2675L53.0853 17.6921L54.2504 15.7744C53.8267 15.072 53.5034 14.325 53.286 13.5557L51.0896 13.0986L51.0227 9.3859L53.2024 8.85074C53.3919 8.07587 53.6874 7.31772 54.0887 6.59859L52.8623 4.72552L55.4378 2.05528L57.3555 3.22038ZM59.3345 8.16506C57.807 9.74825 57.8516 12.268 59.4348 13.7954C61.018 15.3229 63.5377 15.2783 65.0652 13.6951C66.5926 12.1119 66.548 9.59216 64.9648 8.06472C63.3816 6.53727 60.8619 6.58187 59.3345 8.16506Z" fill="#FAFAFA"/>
<path d="M230.213 42.1764C231.161 41.6023 232.17 41.1674 233.212 40.872L233.831 37.9007L238.848 37.8115L239.573 40.7605C240.627 41.0169 241.652 41.4183 242.617 41.959L245.153 40.2978L248.766 43.7819L247.194 46.3741C247.768 47.3218 248.203 48.3364 248.498 49.3733L251.469 49.9921L251.558 55.0092L248.609 55.7339C248.353 56.7875 247.952 57.8077 247.411 58.7776L249.072 61.3141L245.588 64.9264L242.996 63.3544C242.048 63.9286 241.039 64.3634 239.997 64.6589L239.378 67.6301L234.361 67.7193L233.636 64.7704C232.582 64.5139 231.562 64.1126 230.592 63.5718L228.056 65.233L224.444 61.7489L226.016 59.1567C225.441 58.209 225.007 57.2 224.711 56.1576L221.74 55.5388L221.651 50.5216L224.6 49.7969C224.856 48.7433 225.257 47.7232 225.798 46.7532L224.137 44.2168L227.621 40.6044L230.213 42.1764ZM232.889 48.8604C230.821 51.0011 230.882 54.4072 233.023 56.4753C235.163 58.5435 238.57 58.4822 240.638 56.3415C242.7 54.2009 242.645 50.7948 240.504 48.7266C238.363 46.664 234.957 46.7198 232.889 48.8604Z" fill="#FAFAFA"/>
<path d="M105.124 75.8855L100.637 74.988C97.621 76.6826 94.0532 77.5021 90.3015 77.1175C81.449 76.2032 74.6201 68.5604 74.687 59.6634C74.7651 49.3838 83.651 41.3675 93.9529 42.4378C102.699 43.3465 109.484 50.8164 109.556 59.6076C109.59 63.9725 108.04 67.9361 105.459 70.9965H105.464L105.124 75.8855Z" fill="white"/>
<path d="M105.125 75.8854C105.125 75.8854 105.125 75.7683 105.136 75.5565C105.147 75.3279 105.164 75.0158 105.186 74.6088C105.236 73.7726 105.309 72.5574 105.398 70.9909L105.498 71.0466H105.492C105.465 71.0745 105.426 71.0634 105.403 71.0355C105.387 71.0132 105.387 70.9797 105.403 70.9574C106.775 69.3018 108.347 66.8099 109.055 63.4484C109.411 61.7816 109.534 59.9141 109.333 57.9519C109.122 55.9896 108.542 53.9381 107.538 51.9703C106.529 50.008 105.08 48.1405 103.235 46.5852C101.395 45.0355 99.1597 43.7645 96.6511 43.1122C94.1537 42.4377 91.4277 42.3262 88.7464 42.8391C86.0594 43.3408 83.456 44.5784 81.2485 46.3678C80.1057 47.2486 79.158 48.3245 78.2772 49.4283C77.8814 50.008 77.4745 50.5822 77.1233 51.1899L76.6383 52.1152L76.3986 52.5779L76.209 53.0574C75.1331 55.5994 74.7262 58.3309 74.8767 60.9343C75.0161 63.5488 75.8411 66.0128 77.0174 68.1367C78.1992 70.2662 79.7712 72.0556 81.5161 73.4326C83.2721 74.8039 85.1897 75.7683 87.0851 76.3481C87.5645 76.4707 88.0384 76.5934 88.5011 76.7104C88.9693 76.8164 89.4376 76.8665 89.8947 76.9446C90.809 77.0895 91.7065 77.1118 92.5594 77.1007C95.9989 77.0282 98.7361 75.9579 100.598 74.9321C100.609 74.9266 100.626 74.921 100.643 74.9266C102.07 75.2276 103.179 75.4617 103.948 75.6234C104.322 75.7014 104.606 75.7683 104.818 75.8129C105.013 75.8575 105.119 75.8854 105.119 75.8854C105.119 75.8854 105.024 75.8742 104.835 75.8408C104.628 75.8018 104.344 75.7516 103.976 75.6847C103.196 75.5398 102.07 75.3224 100.62 75.0492H100.665C98.8029 76.0972 96.0491 77.2066 92.5705 77.3013C91.7065 77.3181 90.7978 77.3013 89.8724 77.162C89.4097 77.0839 88.9359 77.0393 88.462 76.9334C87.9882 76.8164 87.5088 76.6937 87.0238 76.5711C85.1006 75.9857 83.1494 75.0213 81.3656 73.6333C79.5873 72.2452 77.9873 70.4279 76.7777 68.2705C75.5791 66.1131 74.7373 63.6101 74.5868 60.951C74.4252 58.3031 74.8377 55.5213 75.9303 52.9291L76.1254 52.4386L76.3707 51.9703C76.5324 51.6581 76.6996 51.3459 76.8668 51.0282C77.2181 50.415 77.6361 49.8296 78.0375 49.2332C78.9295 48.1127 79.8994 47.0145 81.059 46.117C83.3055 44.2941 85.9535 43.0342 88.6906 42.5269C91.4222 42.0029 94.1983 42.1255 96.7348 42.8112C99.2879 43.4802 101.557 44.779 103.424 46.3567C105.292 47.9454 106.758 49.8464 107.778 51.8421C108.787 53.8434 109.367 55.9283 109.573 57.9184C109.763 59.9086 109.634 61.7983 109.255 63.4819C108.514 66.8768 106.903 69.3798 105.504 71.0299L105.42 70.9351H105.426C105.453 70.9073 105.492 70.9184 105.515 70.9463C105.526 70.9574 105.526 70.9742 105.526 70.9853C105.398 72.5685 105.303 73.7949 105.236 74.6423C105.203 75.0436 105.175 75.3502 105.158 75.5732C105.141 75.7795 105.125 75.8798 105.125 75.8798V75.8854Z" fill="#1A1A1A"/>
<path d="M84.387 60.9016L86.5722 58.5659L91.0654 62.2953L99.3437 53.7661L101.518 55.9569L90.887 66.6658L84.387 60.9016Z" fill="#FF4E5B"/>
<path d="M226.222 46.5852H212.029L170.615 71.5093C170.771 71.7434 175.66 75.2777 182.043 79.8433L122.071 190.265L71.883 168.101L27.4478 247.968H51.7308L82.3521 192.032L128.41 213.366L147.932 215.697L200.785 93.1666C207.424 97.8772 212.525 101.478 212.525 101.478H226.718C226.718 101.478 222.582 66.743 222.582 66.4642C222.582 66.1855 226.227 46.5796 226.227 46.5796L226.222 46.5852Z" fill="#FF4E5B"/>
<path opacity="0.3" d="M226.222 46.5852H212.029L170.615 71.5093C170.771 71.7434 175.66 75.2777 182.043 79.8433L122.071 190.265L71.883 168.101L27.4478 247.968H51.7308L82.3521 192.032L128.41 213.366L147.932 215.697L200.785 93.1666C207.424 97.8772 212.525 101.478 212.525 101.478H226.718C226.718 101.478 222.582 66.743 222.582 66.4642C222.582 66.1855 226.227 46.5796 226.227 46.5796L226.222 46.5852Z" fill="black"/>
<path d="M41.8135 247.968L86.4327 167.409L136.443 190.26L200.941 71.5093L220.145 81.5938L147.932 215.697L96.7179 192.032L66.0965 247.968H41.8135Z" fill="#FF4E5B"/>
<path d="M184.814 71.5091C185.271 72.1947 226.724 101.484 226.724 101.484L226.228 46.585L184.814 71.5091Z" fill="#FF4E5B"/>
<path d="M184.814 71.5092C184.814 71.5872 181.636 71.6541 177.717 71.6541C173.798 71.6541 170.621 71.5872 170.621 71.5092C170.621 71.4312 173.798 71.3643 177.717 71.3643C181.636 71.3643 184.814 71.4312 184.814 71.5092Z" fill="#1A1A1A"/>
<path d="M195.896 80.0712C195.896 80.1493 192.719 80.2162 188.8 80.2162C184.881 80.2162 181.703 80.1493 181.703 80.0712C181.703 79.9932 184.881 79.9263 188.8 79.9263C192.719 79.9263 195.896 79.9932 195.896 80.0712Z" fill="#1A1A1A"/>
<path d="M89.3145 129.791C89.3145 129.791 88.456 130.165 88.3167 129.016C88.1829 127.868 90.58 125.471 91.3437 124.713C92.1074 123.955 93.2056 124.116 94.1756 124.334C95.1456 124.551 99.1258 124.952 100.447 125.8C101.768 126.647 103.786 130.9 104.21 131.101C104.634 131.302 117.043 131.949 117.043 131.949L116.507 142.122C116.507 142.122 104.327 139.803 101.913 138.292C99.4993 136.782 99.8171 136.18 99.1314 134.775C98.4457 133.364 97.7099 131.87 97.7099 131.87L96.5671 131.681L94.7386 132.69C94.7386 132.69 94.5212 135.271 92.715 135.204L91.8287 134.736C91.8287 134.736 91.2378 135.421 90.5632 134.362C89.8887 133.303 90.0169 133.108 90.0169 133.108C90.0169 133.108 89.3089 133.983 88.5396 132.896C87.7759 131.809 89.3089 129.791 89.3089 129.791H89.3145Z" fill="#FFD7B0"/>
<path d="M102.688 134.111C102.688 134.111 102.643 134.134 102.554 134.156C102.465 134.178 102.326 134.195 102.147 134.195C101.796 134.195 101.255 134.111 100.687 133.783C100.118 133.459 99.5217 132.879 99.137 132.066C98.7412 131.257 98.5517 130.265 98.4959 129.217L98.6911 129.334C97.8772 129.713 96.9128 129.953 95.9093 129.992C95.2013 130.02 94.5101 129.942 93.8634 129.774C93.5568 129.685 93.1945 129.635 92.9269 129.34C92.782 129.2 92.7485 128.905 92.8935 128.743C93.0273 128.576 93.1945 128.52 93.3339 128.459C94.4488 128.007 95.4801 127.656 96.3497 127.388C97.2194 127.121 97.9329 126.942 98.4291 126.831C98.9252 126.72 99.2039 126.675 99.2095 126.692C99.2095 126.714 98.9475 126.792 98.4569 126.937C97.9719 127.082 97.2695 127.294 96.411 127.584C95.5526 127.873 94.538 128.241 93.4342 128.704C93.3004 128.76 93.1722 128.821 93.1109 128.905C93.0551 128.983 93.0551 129.072 93.1332 129.161C93.2948 129.351 93.6182 129.418 93.9248 129.501C94.5435 129.652 95.2125 129.73 95.8926 129.702C96.8626 129.668 97.7824 129.44 98.5684 129.083L98.758 129L98.7691 129.206C98.8137 130.237 98.9865 131.196 99.3489 131.965C99.7001 132.746 100.241 133.303 100.77 133.632C101.3 133.967 101.802 134.078 102.142 134.106C102.487 134.128 102.671 134.095 102.677 134.117L102.688 134.111Z" fill="#F28500"/>
<path d="M96.4 127.132C96.4223 127.16 95.9819 127.399 95.2293 127.36C94.8614 127.36 94.4265 127.293 93.9639 127.327C93.4956 127.349 93.0552 127.544 92.6928 127.968C91.9403 128.81 91.0372 129.367 90.3571 129.652C89.6714 129.941 89.2143 129.997 89.2087 129.969C89.1976 129.925 89.6324 129.796 90.2735 129.468C90.9145 129.139 91.7507 128.592 92.4866 127.767C92.6817 127.567 92.8991 127.36 93.1667 127.243C93.4287 127.121 93.7018 127.076 93.9527 127.065C94.46 127.048 94.8892 127.132 95.246 127.165C95.9651 127.254 96.3888 127.098 96.4055 127.143L96.4 127.132Z" fill="#F28500"/>
<path d="M93.8468 129.847C93.9137 129.87 93.4119 131.012 92.2636 131.988C91.1264 132.975 89.9167 133.298 89.9055 133.226C89.8721 133.142 90.987 132.713 92.074 131.765C93.1722 130.834 93.7687 129.797 93.8468 129.842V129.847Z" fill="#F28500"/>
<path d="M94.2926 131.408C94.3651 131.413 94.2034 132.417 93.4732 133.398C92.754 134.39 91.8509 134.847 91.8231 134.78C91.7729 134.708 92.5645 134.167 93.239 133.225C93.9303 132.294 94.209 131.38 94.2926 131.402V131.408Z" fill="#F28500"/>
<path d="M131.782 109.962L120.672 130.009L103.435 129.713L102.136 140.065L119.925 144.425L127.25 136.38L131.782 109.962Z" fill="#F6F6F6"/>
<path d="M122.06 133.41C121.976 133.415 121.865 132.596 121.48 131.665C121.106 130.728 120.605 130.065 120.672 130.009C120.722 129.954 121.352 130.567 121.747 131.554C122.154 132.535 122.132 133.41 122.054 133.41H122.06Z" fill="#1A1A1A"/>
<path d="M136.002 74.4907C134.597 74.6746 133.131 73.6712 132.808 72.2887C132.479 70.9118 133.337 69.3509 134.675 68.8882C133.783 68.0074 133.538 66.5357 134.09 65.4152C134.647 64.2891 135.963 63.5923 137.206 63.7651C137.234 62.5275 137.953 61.329 139.029 60.7158C140.105 60.1026 141.504 60.1026 142.58 60.7158C143.923 59.5173 146.131 59.4336 147.564 60.5263C148.762 60.281 150.083 60.8998 150.669 61.9701C151.254 63.046 151.053 64.4898 150.195 65.365" fill="#1A1A1A"/>
<path d="M148.244 63.3696L147.609 63.3808C141.214 63.5034 135.985 68.5206 135.595 74.9035C135.233 80.8405 134.904 87.4074 135.01 90.5905C135.222 97.1741 141.828 98.0716 141.828 98.0716L141.426 105.999L142.207 112.042L157.403 105.196L158.262 76.47C158.719 69.6188 155.112 63.6428 148.255 63.3752L148.244 63.3696Z" fill="#FFD7B0"/>
<path d="M141.766 98.0612C141.766 98.0612 145.975 98.234 150.345 95.3687C150.345 95.3687 148.305 100.469 141.721 100.001L141.766 98.0612Z" fill="#F28500"/>
<path d="M137.73 81.6158C137.724 82.1119 138.137 82.53 138.655 82.5467C139.174 82.5635 139.603 82.1788 139.608 81.6771C139.614 81.1809 139.201 80.7629 138.683 80.7461C138.165 80.7294 137.735 81.1141 137.73 81.6158Z" fill="#1A1A1A"/>
<path d="M137.066 78.0982C137.184 78.2209 137.886 77.6745 138.901 77.6578C139.91 77.6244 140.662 78.1317 140.774 78.009C140.824 77.9533 140.701 77.7359 140.378 77.5073C140.054 77.2787 139.508 77.0613 138.878 77.0781C138.248 77.0948 137.724 77.3345 137.423 77.5798C137.117 77.825 137.016 78.048 137.072 78.1038L137.066 78.0982Z" fill="#1A1A1A"/>
<path d="M146.304 81.4092C146.298 81.9054 146.711 82.3235 147.229 82.3402C147.748 82.3569 148.177 81.9723 148.183 81.4705C148.188 80.9744 147.776 80.5563 147.257 80.5396C146.739 80.5229 146.31 80.9075 146.304 81.4092Z" fill="#1A1A1A"/>
<path d="M147.023 78.0926C147.14 78.2153 147.848 77.6745 148.857 77.6578C149.866 77.6244 150.618 78.1317 150.73 78.009C150.78 77.9533 150.663 77.7359 150.334 77.5073C150.011 77.2787 149.464 77.0613 148.834 77.0781C148.205 77.0948 147.681 77.3345 147.38 77.5798C147.073 77.825 146.973 78.048 147.028 78.1038L147.023 78.0926Z" fill="#1A1A1A"/>
<path d="M143.494 85.6746C143.494 85.6188 142.864 85.5185 141.844 85.407C141.588 85.3847 141.337 85.3401 141.292 85.1617C141.225 84.9777 141.331 84.6934 141.448 84.3924C141.677 83.7625 141.922 83.0991 142.173 82.4078C143.182 79.5871 143.901 77.268 143.79 77.229C143.678 77.19 142.764 79.4477 141.76 82.2685C141.521 82.9653 141.287 83.6287 141.069 84.2642C140.974 84.5596 140.813 84.8941 140.952 85.2788C141.025 85.4683 141.22 85.6077 141.387 85.6467C141.554 85.6913 141.699 85.6969 141.827 85.6969C142.853 85.7303 143.489 85.7247 143.494 85.669V85.6746Z" fill="#1A1A1A"/>
<path d="M146.07 74.218C146.209 74.4744 147.068 74.179 148.138 74.1232C149.203 74.0452 150.106 74.2291 150.201 73.9615C150.24 73.8333 150.044 73.6048 149.66 73.4097C149.275 73.209 148.69 73.064 148.049 73.103C147.408 73.1421 146.856 73.3651 146.51 73.6048C146.159 73.8501 146.008 74.0953 146.07 74.218Z" fill="#1A1A1A"/>
<path d="M136.938 73.9288C137.156 74.1518 137.986 73.9009 138.99 73.8674C139.993 73.8061 140.846 73.9845 141.041 73.7392C141.125 73.6222 140.985 73.3936 140.612 73.1818C140.244 72.9699 139.625 72.8083 138.934 72.8361C138.243 72.8696 137.652 73.087 137.306 73.3323C136.955 73.5776 136.843 73.8173 136.938 73.9232V73.9288Z" fill="#1A1A1A"/>
<path d="M136.163 71.8715C136.163 71.8715 137.819 67.7129 139.792 66.7094C142.178 65.4997 143.265 68.1198 145.545 67.4341C147.825 66.7484 150.105 65.5833 152.486 67.3115C155.089 69.2013 153.913 70.5894 154.13 73.5105C155.005 85.3454 157.23 88.6567 157.737 83.0653C157.793 82.4521 159.482 81.9337 159.683 79.3471C159.945 75.9912 159.995 71.9217 159.198 69.558C158.529 67.5679 157.358 66.2021 155.279 64.7193C151.995 62.3724 147.552 62.4058 144.542 62.7682C141.532 63.1305 135.784 66.715 136.158 71.8715H136.163Z" fill="#1A1A1A"/>
<path d="M157.32 82.8922C157.342 81.8721 158.2 81.0526 159.215 81.1306C160.447 81.2254 161.824 81.8944 161.796 84.4364C161.74 88.9407 157.225 87.954 157.219 87.8257C157.219 87.7366 157.275 84.7764 157.32 82.8922Z" fill="#FFD7B0"/>
<path d="M158.222 86.1481C158.222 86.1481 158.3 86.2038 158.434 86.2651C158.562 86.3265 158.785 86.3711 159.019 86.2819C159.499 86.1146 159.906 85.3621 159.939 84.5482C159.956 84.1412 159.872 83.7454 159.733 83.4221C159.599 83.0932 159.387 82.8591 159.148 82.8145C158.908 82.7587 158.741 82.8981 158.679 83.0263C158.618 83.1489 158.646 83.2437 158.624 83.2493C158.612 83.2604 158.529 83.1712 158.568 82.9873C158.59 82.8981 158.64 82.7922 158.746 82.7085C158.858 82.6193 159.014 82.5803 159.181 82.597C159.527 82.6249 159.839 82.9482 159.995 83.305C160.168 83.6618 160.268 84.1022 160.251 84.5649C160.212 85.4736 159.733 86.3153 159.081 86.4993C158.763 86.5773 158.501 86.477 158.362 86.3711C158.222 86.2596 158.2 86.1592 158.217 86.1481H158.222Z" fill="#F28500"/>
<path d="M157.063 74.173C156.483 74.5855 155.875 75.0092 155.173 75.0928C154.47 75.1764 153.656 74.7862 153.523 74.0894C153.461 73.7772 153.534 73.4093 153.322 73.1751C153.071 72.8908 152.62 72.9912 152.241 73.0358C150.936 73.1974 149.375 71.7815 149.018 70.516C148.695 71.0233 147.965 71.1906 147.452 70.8728C146.939 70.5551 146.755 70.3767 146.348 69.9307C145.941 69.4847 145.378 69.0889 144.787 69.1893C144.453 69.245 144.146 69.4457 143.812 69.4234C143.221 69.3844 142.92 68.6931 142.814 68.1078C142.713 67.5225 142.63 66.8368 142.123 66.5302C141.654 66.2459 141.052 66.4243 140.512 66.519C139.971 66.6138 139.263 66.4967 139.112 65.9672C139.034 65.6884 139.146 65.393 139.296 65.1477C139.976 64.0328 141.498 63.5087 142.719 63.977C143.132 62.483 144.497 61.2956 146.042 61.1005C147.58 60.9054 149.202 61.7193 149.966 63.0684C150.903 62.1876 152.28 61.7973 153.534 62.0593C154.794 62.3214 155.897 63.2244 156.405 64.4063C157.497 64.0997 158.752 64.4955 159.465 65.3762C160.179 66.257 160.301 67.5726 159.766 68.5705C160.586 69.0165 161.294 69.8081 161.327 70.739C161.361 71.67 160.474 72.6177 159.566 72.3891C159.945 73.1082 159.666 74.1005 158.969 74.5186C158.272 74.9367 157.269 74.7193 156.812 74.0503" fill="#1A1A1A"/>
<path d="M142.418 65.2979C142.418 65.2979 142.418 65.3257 142.418 65.3815C142.424 65.4372 142.429 65.5153 142.452 65.6212C142.496 65.8274 142.585 66.134 142.797 66.4852C143.009 66.8253 143.332 67.2211 143.817 67.5333C144.291 67.8455 144.943 68.0796 145.674 68.0238L145.596 67.9235C145.462 68.3137 145.512 68.7708 145.713 69.1666C145.902 69.568 146.198 69.9192 146.504 70.2593C146.66 70.4209 146.8 70.616 147.017 70.7665C147.229 70.9115 147.48 70.9895 147.736 71.0174C148.244 71.0732 148.818 70.9059 149.175 70.4711L149.007 70.4265C149.141 71.3184 149.665 72.2048 150.485 72.7344C150.919 73.0354 151.455 73.2138 151.973 73.1915C152.491 73.1748 152.976 73.0131 153.422 72.8459L153.3 72.7957C153.551 73.3532 153.935 73.8214 154.392 74.1671C154.844 74.5127 155.435 74.7078 155.97 74.5629C157.029 74.3176 157.715 73.4201 157.843 72.5839L157.743 72.634C158.278 72.9128 158.841 72.9295 159.293 72.8292C159.75 72.7344 160.106 72.5281 160.363 72.3274C160.619 72.1212 160.764 71.9093 160.853 71.77C160.937 71.6195 160.97 71.5358 160.965 71.5358C160.943 71.5191 160.82 71.8815 160.318 72.2717C160.067 72.4557 159.716 72.6452 159.276 72.7288C158.841 72.8124 158.306 72.7846 157.81 72.517L157.726 72.4724L157.709 72.5671C157.581 73.3476 156.918 74.1838 155.937 74.4012C155.452 74.5238 154.933 74.351 154.504 74.0221C154.075 73.6988 153.712 73.2417 153.478 72.7232L153.439 72.6396L153.356 72.6731C152.915 72.8403 152.447 72.9908 151.967 73.002C151.488 73.0243 151.009 72.8626 150.591 72.5783C149.816 72.0766 149.32 71.246 149.191 70.4042L149.158 70.1924L149.019 70.3596C148.717 70.7331 148.205 70.8892 147.748 70.8446C147.519 70.8223 147.296 70.7498 147.112 70.6272C146.934 70.5101 146.789 70.315 146.627 70.1533C146.32 69.8189 146.031 69.4788 145.852 69.1053C145.663 68.7374 145.618 68.3304 145.735 67.9792L145.769 67.8733L145.657 67.8845C144.971 67.9458 144.347 67.734 143.879 67.4441C143.405 67.1542 143.082 66.7807 142.864 66.4574C142.44 65.7828 142.446 65.309 142.413 65.3202L142.418 65.2979Z" fill="#636363"/>
<path d="M143.784 89.1297C143.806 88.9625 144.916 89.1688 145.891 88.3716C146.867 87.5744 146.967 86.3647 147.123 86.387C147.196 86.387 147.29 86.6936 147.207 87.1953C147.129 87.6915 146.833 88.3772 146.242 88.8677C145.646 89.3583 144.955 89.4809 144.492 89.4308C144.018 89.3862 143.767 89.2078 143.79 89.1353L143.784 89.1297Z" fill="#1A1A1A"/>
<path d="M111.68 152.898L120.259 143.438L127.434 121.759C128.9 117.996 130.154 113.224 131.927 109.656C132.802 107.9 134.268 106.518 136.063 105.726L139.107 104.371L140.93 101.467C139.882 108.039 149.096 108.853 158.886 100.687C158.886 100.687 162.119 102.877 166.679 106.657C168.675 108.313 170.486 110.119 171.239 112.856C172.61 117.817 166.723 132.501 160.313 146.315C158.395 150.446 149.264 168.959 149.264 168.959L145.975 171.356C145.975 171.356 116.914 162.548 114.294 157.726L111.68 152.898Z" fill="#F6F6F6"/>
<path d="M116.44 147.256C116.44 147.256 116.518 147.15 116.686 146.972C116.875 146.771 117.121 146.515 117.422 146.197C118.096 145.506 119.033 144.547 120.187 143.365L120.164 143.404C120.699 141.754 121.341 139.775 122.06 137.579C122.795 135.377 123.548 132.935 124.306 130.349C125.772 125.281 127.16 120.704 128.437 117.482C129.056 115.866 129.641 114.589 130.048 113.714C130.254 113.301 130.422 112.972 130.55 112.716C130.667 112.487 130.734 112.376 130.739 112.376C130.745 112.376 130.7 112.504 130.6 112.738C130.483 113 130.338 113.335 130.148 113.758C129.769 114.645 129.217 115.933 128.627 117.549C127.4 120.777 126.045 125.354 124.579 130.421C123.821 133.002 123.063 135.455 122.31 137.651C121.575 139.842 120.911 141.81 120.354 143.454V143.477L120.332 143.493C119.15 144.647 118.191 145.584 117.5 146.258C117.182 146.565 116.92 146.81 116.725 147C116.546 147.167 116.446 147.251 116.44 147.245V147.256Z" fill="#1A1A1A"/>
<path d="M143.121 111.156L133.07 152.369L122.628 157.559V147.48L140.696 110.264L143.121 111.156Z" fill="#FF4E5B"/>
<g opacity="0.3">
<path d="M123.899 148.656C126.748 149.726 129.318 151.427 131.832 153.138C134.352 154.849 136.866 156.605 139.659 157.821C142.452 159.036 145.579 159.683 148.562 159.064C151.544 158.451 154.331 156.41 155.312 153.528L123.899 148.65V148.656Z" fill="black"/>
</g>
<path d="M139.107 104.249L141.677 100.313L142.686 105.704L145.245 102.805L157.949 96.8623L160.151 101.59L146.114 109.89L142.223 109.6L139.386 106.228L139.107 104.249Z" fill="#F6F6F6"/>
<path d="M139.107 104.249C139.14 104.249 139.196 104.55 139.296 105.063C139.425 105.676 139.57 106.373 139.726 107.142L139.469 107.103C139.687 106.701 139.921 106.278 140.16 105.837C140.545 105.157 140.902 104.522 141.231 103.942L141.37 103.697L141.459 103.953C141.682 104.594 141.805 105.135 141.905 105.514C142 105.893 142.061 106.105 142.034 106.116C142.011 106.127 141.9 105.927 141.766 105.559C141.621 105.196 141.465 104.656 141.225 104.042L141.454 104.059C141.136 104.644 140.79 105.286 140.417 105.971C140.172 106.412 139.932 106.835 139.709 107.231L139.525 107.554L139.452 107.192C139.112 105.492 139.029 104.249 139.096 104.243L139.107 104.249Z" fill="#1A1A1A"/>
<path d="M143.382 106.233L141.766 106.038C141.325 106.529 140.255 107.543 139.82 108.039V108.084C140.015 109.16 140.205 110.241 140.4 111.317C141.303 111.273 142.212 111.345 143.098 111.535C143.639 110.587 144.046 109.873 144.587 108.926L143.388 106.233H143.382Z" fill="#FF4E5B"/>
<path d="M146.142 167.019C146.109 167.047 145.635 166.539 144.838 165.753C144.04 164.967 142.909 163.914 141.582 162.843C140.25 161.779 138.973 160.903 138.031 160.301C137.089 159.694 136.492 159.343 136.515 159.304C136.526 159.287 136.688 159.354 136.966 159.493C137.251 159.627 137.652 159.844 138.137 160.129C139.113 160.692 140.417 161.545 141.76 162.62C143.104 163.696 144.219 164.783 144.983 165.614C145.362 166.027 145.663 166.372 145.858 166.617C146.053 166.863 146.153 167.008 146.142 167.019Z" fill="#1A1A1A"/>
<path d="M143.505 106.568L145.3 105.681L145.914 108.825L144.414 108.959L143.505 106.568Z" fill="#FF4E5B"/>
<path opacity="0.3" d="M145.055 104.415V111.534L158.289 102.793L145.975 109.962L145.055 104.415Z" fill="black"/>
<path d="M160.151 101.589C160.151 101.589 159.889 101.812 159.382 102.168C158.869 102.52 158.122 103.016 157.174 103.59C155.285 104.75 152.57 106.177 149.649 107.855C148.411 108.574 147.246 109.293 146.198 110.001L146.025 110.118L145.986 109.912C145.585 107.738 145.239 105.853 144.977 104.432L145.128 104.476C144.554 105.012 144.091 105.446 143.728 105.781C143.4 106.076 143.221 106.232 143.21 106.221C143.199 106.21 143.355 106.032 143.667 105.714C144.013 105.363 144.459 104.911 145.005 104.354L145.122 104.237L145.156 104.398C145.44 105.814 145.825 107.693 146.259 109.861L146.048 109.772C147.096 109.048 148.266 108.317 149.509 107.598C152.447 105.915 155.168 104.521 157.08 103.406C158.039 102.86 158.802 102.391 159.332 102.068C159.856 101.739 160.151 101.566 160.162 101.583L160.151 101.589Z" fill="#1A1A1A"/>
<path d="M141.783 106.64L141.041 104.822L139.815 107.074L140.339 107.888L141.783 106.64Z" fill="#FF4E5B"/>
<path d="M143.812 106.378C143.873 106.434 142.987 107.46 142.039 108.826C141.08 110.186 140.423 111.368 140.345 111.329C140.278 111.295 140.83 110.041 141.8 108.658C142.764 107.276 143.762 106.328 143.812 106.378Z" fill="#1A1A1A"/>
<path d="M142.914 111.59C142.892 111.668 142.284 111.579 141.543 111.457C140.802 111.328 140.2 111.217 140.205 111.139C140.211 111.061 140.835 111.044 141.593 111.172C142.351 111.301 142.937 111.518 142.914 111.596V111.59Z" fill="#1A1A1A"/>
<path d="M76.2086 137.222L67.8355 113.552C67.6738 113.039 67.986 112.504 68.51 112.393L87.8539 107.342C88.3389 107.236 88.8239 107.509 88.9744 107.983L97.7767 134.646L125.076 152.574L123.766 153.912L116.781 152.212L76.2086 137.228V137.222Z" fill="#636363"/>
<path d="M123.76 153.907C123.76 153.907 123.71 153.885 123.621 153.829L123.225 153.578C122.863 153.338 122.355 153.009 121.709 152.586C120.382 151.705 118.492 150.445 116.167 148.895C111.49 145.746 105.057 141.414 97.9496 136.631C97.4535 136.297 96.9629 135.962 96.5058 135.656L96.4668 135.628L96.4501 135.583C93.8802 127.829 91.5779 120.877 89.9055 115.843C89.0916 113.346 88.4338 111.328 87.9711 109.907C87.7537 109.221 87.5809 108.68 87.4582 108.295C87.4081 108.123 87.3635 107.983 87.33 107.877C87.3021 107.783 87.291 107.732 87.2966 107.732C87.2966 107.732 87.3244 107.777 87.3579 107.872C87.3969 107.978 87.4471 108.117 87.5084 108.284C87.6422 108.669 87.8317 109.204 88.0714 109.879C88.5564 111.289 89.2421 113.301 90.0894 115.788C91.7786 120.816 94.1143 127.751 96.7177 135.5L96.6619 135.427C97.119 135.739 97.6152 136.068 98.1057 136.403C105.191 141.214 111.613 145.567 116.279 148.734C118.581 150.317 120.454 151.599 121.77 152.502C122.4 152.943 122.896 153.288 123.253 153.539C123.409 153.651 123.537 153.745 123.637 153.812C123.721 153.873 123.766 153.913 123.76 153.913V153.907Z" fill="#1A1A1A"/>
<path d="M79.5422 136.715C79.5422 136.637 83.3441 136.391 88.038 136.168C92.7374 135.945 96.5448 135.834 96.5504 135.912C96.5504 135.99 92.7485 136.235 88.0547 136.458C83.3608 136.681 79.5478 136.793 79.5478 136.715H79.5422Z" fill="#1A1A1A"/>
<path d="M82.6308 123.203C82.9653 124.279 82.7758 125.293 82.2072 125.472C81.6385 125.65 80.9027 124.925 80.5626 123.855C80.2282 122.779 80.4177 121.764 80.9863 121.586C81.5549 121.408 82.2908 122.132 82.6308 123.203Z" fill="#F6F6F6"/>
<path d="M106.462 131.648C106.462 131.648 105.737 132.004 105.626 130.856C105.525 129.836 107.978 128.32 108.898 127.751C109.818 127.182 111.752 127.573 112.739 127.701C114.071 127.874 117.182 129.267 118.169 130.455C119.172 131.659 119.863 134.741 120.226 135.031C120.593 135.321 132.952 140.188 132.952 140.188L130.137 149.977C130.137 149.977 118.793 144.971 116.78 142.953C114.768 140.94 115.214 140.422 114.863 138.9C114.512 137.373 114.132 135.75 114.132 135.75L113.062 135.31L111.055 135.879C111.055 135.879 110.81 136.642 110.292 137.239C109.673 137.952 108.552 137.919 107.934 137.211C107.934 137.211 106.913 137.568 106.417 136.414C106.211 135.94 106.361 135.226 106.361 135.226C106.361 135.226 105.447 135.405 105.442 134.268C105.436 133.047 106.462 131.648 106.462 131.648Z" fill="#FFD7B0"/>
<path d="M112.9 132.941C112.9 132.991 112.488 132.974 111.852 133.114C111.222 133.247 110.364 133.576 109.623 134.229C108.881 134.881 108.446 135.689 108.234 136.302C108.017 136.916 107.978 137.328 107.933 137.323C107.9 137.323 107.867 136.899 108.039 136.241C108.212 135.589 108.641 134.708 109.433 134.011C110.225 133.314 111.15 132.997 111.819 132.913C112.493 132.818 112.912 132.913 112.906 132.941H112.9Z" fill="#F28500"/>
<path d="M111.975 130.839C111.975 130.889 111.524 130.817 110.844 130.973C110.169 131.123 109.277 131.558 108.513 132.305C107.75 133.058 107.237 133.899 106.858 134.496C106.484 135.104 106.25 135.477 106.217 135.46C106.183 135.444 106.35 135.031 106.679 134.396C107.014 133.766 107.51 132.885 108.307 132.099C109.104 131.313 110.074 130.878 110.799 130.772C111.529 130.661 111.981 130.811 111.97 130.839H111.975Z" fill="#F28500"/>
<path d="M111.797 128.542C111.791 128.592 111.406 128.542 110.816 128.648C110.225 128.749 109.427 129.055 108.686 129.601C107.939 130.148 107.365 130.778 106.947 131.229C106.529 131.681 106.261 131.96 106.228 131.932C106.2 131.909 106.406 131.586 106.791 131.095C107.175 130.61 107.738 129.942 108.519 129.367C109.299 128.793 110.158 128.498 110.793 128.442C111.429 128.381 111.813 128.509 111.808 128.537L111.797 128.542Z" fill="#F28500"/>
<path d="M164.544 106.306C168.017 106.986 170.28 110.041 170.988 113.854C171.991 119.267 159.577 144.865 157.263 150.451C154.827 156.338 149.436 157.626 146.292 157.553C143.154 157.481 121.151 147.162 121.151 147.162L124.379 135.996L143.929 141.799L151.677 120.002" fill="#F6F6F6"/>
<path d="M151.678 120.008C151.678 120.008 151.639 120.142 151.555 120.398C151.466 120.66 151.338 121.039 151.17 121.53C150.819 122.533 150.312 123.994 149.654 125.873C148.322 129.652 146.404 135.104 144.029 141.838L143.996 141.933L143.901 141.905C138.282 140.244 131.643 138.282 124.345 136.13L124.513 136.041C123.481 139.608 122.405 143.343 121.296 147.207L121.218 147.039C126.352 149.425 131.849 151.928 137.579 154.337C139.904 155.301 142.212 156.265 144.542 157.007L145.417 157.258C145.707 157.336 145.997 157.358 146.287 157.414C146.889 157.425 147.491 157.397 148.082 157.313C149.269 157.169 150.423 156.828 151.488 156.349C153.629 155.385 155.402 153.735 156.483 151.744C157.029 150.763 157.431 149.693 157.893 148.673C158.35 147.653 158.808 146.644 159.254 145.646C162.866 137.685 166.066 130.488 168.362 124.295C169.494 121.196 170.47 118.352 170.871 115.766C170.955 115.119 171.005 114.489 170.921 113.898C170.804 113.302 170.676 112.733 170.492 112.204C170.146 111.139 169.678 110.219 169.154 109.467C168.1 107.945 166.829 107.164 165.949 106.785C165.503 106.596 165.152 106.479 164.906 106.423C164.667 106.361 164.544 106.317 164.544 106.317C164.544 106.317 164.672 106.339 164.912 106.389C165.157 106.44 165.514 106.545 165.965 106.724C166.857 107.092 168.156 107.861 169.238 109.394C169.778 110.152 170.252 111.083 170.615 112.154C170.799 112.689 170.938 113.263 171.061 113.865C171.155 114.484 171.105 115.13 171.027 115.783C170.643 118.397 169.673 121.251 168.552 124.362C166.278 130.578 163.089 137.786 159.493 145.752C159.047 146.75 158.596 147.759 158.139 148.779C157.676 149.793 157.28 150.858 156.717 151.873C155.619 153.913 153.796 155.613 151.6 156.6C150.501 157.096 149.325 157.442 148.11 157.592C147.502 157.676 146.889 157.704 146.27 157.698C145.964 157.642 145.64 157.614 145.339 157.536L144.447 157.28C142.095 156.533 139.793 155.569 137.457 154.604C131.721 152.19 126.224 149.687 121.09 147.296L120.978 147.246L121.012 147.129C122.132 143.265 123.214 139.536 124.245 135.968L124.284 135.84L124.412 135.879C131.704 138.053 138.338 140.032 143.951 141.71L143.823 141.777C146.231 135.054 148.182 129.613 149.537 125.845C150.217 123.972 150.741 122.517 151.103 121.519C151.282 121.034 151.421 120.66 151.516 120.398C151.611 120.148 151.667 120.019 151.667 120.019L151.678 120.008Z" fill="#1A1A1A"/>
<path d="M147.051 149.994C146.962 150.011 146.661 148.049 145.791 145.785C144.932 143.517 143.851 141.855 143.929 141.805C143.957 141.783 144.269 142.173 144.687 142.859C145.105 143.544 145.624 144.531 146.059 145.679C146.493 146.828 146.767 147.909 146.911 148.701C147.056 149.493 147.084 149.989 147.051 149.994Z" fill="#1A1A1A"/>
<path d="M163.195 106.356C163.212 106.406 162.476 106.646 161.372 107.203C160.82 107.476 160.185 107.856 159.51 108.313C158.841 108.786 158.139 109.344 157.464 110.002C156.795 110.665 156.215 111.351 155.73 112.009C155.257 112.672 154.866 113.296 154.577 113.848C153.991 114.941 153.74 115.671 153.69 115.654C153.673 115.649 153.724 115.459 153.83 115.13C153.93 114.796 154.125 114.322 154.398 113.759C154.666 113.19 155.045 112.544 155.519 111.858C156.004 111.184 156.583 110.476 157.269 109.801C157.96 109.132 158.679 108.569 159.371 108.101C160.068 107.644 160.72 107.281 161.294 107.025C161.863 106.763 162.342 106.585 162.676 106.49C163.011 106.389 163.2 106.345 163.206 106.362L163.195 106.356Z" fill="#1A1A1A"/>
<path d="M41.2165 186.652L30.6526 173.446C30.6526 173.446 71.5201 139.775 75.3833 137.373C78.31 135.55 84.2581 133.131 89.8884 135.026C95.5188 136.916 105.051 143.505 108.563 145.64C112.075 147.775 142.663 166.723 145.969 171.356C145.969 171.356 139.313 183.397 134.954 185.415C131.542 186.998 121.703 184.634 115.95 181.139C110.202 177.644 83.8233 155.056 83.8233 155.056L41.2109 186.652H41.2165Z" fill="#1A1A1A"/>
<path d="M45.1523 202.133L59.4234 212.384L86.8895 167.62L114.623 180.258L95.9761 149.101C95.9761 149.101 80.9358 149.28 78.5722 149.012C75.5396 148.672 70.004 153.455 66.9825 159.303C64.3569 164.381 45.1523 202.133 45.1523 202.133Z" fill="#1A1A1A"/>
<path d="M105.654 176.567C105.598 176.623 99.3321 170.235 91.667 162.296C83.9964 154.358 77.8309 147.88 77.8866 147.825C77.9424 147.769 84.2082 154.157 91.8733 162.096C99.5384 170.034 105.71 176.512 105.654 176.567Z" fill="#636363"/>
<path opacity="0.3" d="M53.1741 177.789C53.1741 177.789 65.4661 154.822 71.2525 153.289C71.2525 153.289 62.8795 164.638 60.0754 172.672L53.1741 177.789Z" fill="black"/>
<path d="M80.501 150.546C80.4898 150.585 79.9435 150.323 78.8899 150.239C77.8419 150.139 76.2699 150.317 74.5752 151.159C72.8693 151.979 71.1858 153.556 69.7085 155.574C68.2368 157.603 66.7596 159.95 65.3492 162.481C62.5619 167.571 60.4101 172.382 58.6987 175.782C57.8569 177.488 57.1378 178.854 56.6305 179.79C56.3796 180.236 56.179 180.593 56.0284 180.861C55.8891 181.106 55.811 181.229 55.7999 181.223C55.7887 181.223 55.85 181.084 55.9727 180.833C56.1121 180.56 56.296 180.192 56.5246 179.74C56.9984 178.787 57.6897 177.41 58.5091 175.693C60.1759 172.27 62.2943 167.448 65.0928 162.342C66.5143 159.8 67.9971 157.453 69.4911 155.418C70.9963 153.389 72.7244 151.795 74.4804 150.981C76.2253 150.15 77.8363 149.994 78.8955 150.133C79.9658 150.256 80.501 150.557 80.501 150.557V150.546Z" fill="#636363"/>
<path d="M52.1595 193.816L44.3439 208.226C44.3439 208.226 26.912 206.169 25.3623 208.789L53.6869 223.272L65.4438 200.567L52.1651 193.821L52.1595 193.816Z" fill="#1A1A1A"/>
<path d="M53.7261 211.476C54.8801 212.518 53.3415 214.358 52.1373 213.343C50.8552 212.184 52.6892 210.316 53.8097 211.565" fill="#F6F6F6"/>
<path d="M53.6815 223.266L54.7742 220.931L27.2077 207.92C27.2077 207.92 25.6635 207.825 25.3569 208.784L53.6815 223.266Z" fill="#636363"/>
<path d="M43.9537 207.847C43.8868 207.986 44.5446 208.405 45.0017 209.196C45.4756 209.977 45.5202 210.757 45.6763 210.768C46.4679 210.289 44.7564 207.39 43.9537 207.847Z" fill="white"/>
<path d="M40.3581 207.557C40.2578 207.674 40.7372 208.215 40.91 209.04C41.1051 209.859 40.8989 210.551 41.0438 210.618C41.9525 210.434 41.2612 207.34 40.3637 207.557H40.3581Z" fill="white"/>
<path d="M36.8518 210.25C37.6155 210.35 37.727 207.284 36.9633 207.329C37.0023 207.423 36.8964 210.166 36.8518 210.25Z" fill="white"/>
<path d="M45.9104 204.636C46.0107 204.636 48.72 206.225 48.759 206.308C49.1938 205.662 46.2616 203.939 45.9104 204.636Z" fill="white"/>
<path d="M41.5232 168.134L28.1274 177.577C28.1274 177.577 13.416 168 10.8684 169.661L29.8332 195.204L49.9297 179.383L41.5288 168.134H41.5232Z" fill="#1A1A1A"/>
<path d="M35.0958 184.657C35.67 186.1 33.4736 187.065 32.8436 185.626C32.2081 184.015 34.6777 183.157 35.1348 184.774" fill="#F6F6F6"/>
<path d="M29.8332 195.204L31.8513 193.598L12.9143 169.711C12.9143 169.711 11.5764 168.942 10.8684 169.666L29.8332 195.209V195.204Z" fill="#636363"/>
<path d="M27.9489 177.07C27.8263 177.165 28.2332 177.834 28.289 178.742C28.367 179.651 28.0604 180.37 28.1942 180.448C29.114 180.37 28.8688 177.009 27.9489 177.07Z" fill="white"/>
<path d="M24.8551 175.213C24.7157 175.275 24.8997 175.972 24.6879 176.785C24.4983 177.605 24.0078 178.134 24.1081 178.257C25.0056 178.491 25.7582 175.414 24.8551 175.213Z" fill="white"/>
<path d="M20.5181 176.072C21.1591 176.501 22.6197 173.803 21.9117 173.502C21.9006 173.603 20.5905 176.011 20.5181 176.072Z" fill="white"/>
<path opacity="0.3" d="M103.552 174.394C103.552 174.394 87.9318 162.503 84.208 157.921C80.5343 153.4 78.5776 149.007 78.5776 149.007L103.557 174.394H103.552Z" fill="black"/>
</g>
<defs>
<clipPath id="clip0_12512_189240">
<rect width="251" height="248" fill="white" transform="translate(0.5)"/>
</clipPath>
</defs>
</svg>
