<svg width="96" height="96" viewBox="0 0 96 96" fill="none" xmlns="http://www.w3.org/2000/svg">
<path d="M48 96C74.5097 96 96 74.5097 96 48C96 21.4903 74.5097 0 48 0C21.4903 0 0 21.4903 0 48C0 74.5097 21.4903 96 48 96Z" fill="#E6E7EE"/>
<path d="M63.9779 39.3969C60.3855 18.1149 30.203 21.551 31.9815 42.3247C31.9909 42.4351 31.9046 42.5388 31.7944 42.5504C18.9689 43.9064 21.9034 62.53 34.6312 62.53H59.7779C62.8009 62.5519 65.6895 61.453 67.9287 59.4528C75.234 53.1784 72.0348 41.6548 64.1284 39.5633C64.0511 39.5429 63.9912 39.4756 63.9779 39.3969Z" fill="white" stroke="#B2B3CB" stroke-width="2" stroke-linecap="round"/>
<path d="M58 61C58 62.48 57.68 63.88 57.08 65.12C56.92 65.48 56.74 65.82 56.54 66.14C54.82 69.04 51.64 71 48 71C44.36 71 41.18 69.04 39.46 66.14C39.26 65.82 39.08 65.48 38.92 65.12C38.32 63.88 38 62.48 38 61C38 55.48 42.48 51 48 51C53.52 51 58 55.48 58 61Z" fill="#FF4E5B"/>
<path d="M51 64L45 58" stroke="white" stroke-width="2" stroke-linecap="round"/>
<path d="M51 58L45 64" stroke="white" stroke-width="2" stroke-linecap="round"/>
</svg>
