<svg width="25" height="24" viewBox="0 0 25 24" fill="none" xmlns="http://www.w3.org/2000/svg">
<g clip-path="url(#clip0_9964_128235)">
<path d="M4.5 11.5157V16.4843C4.5 18.3037 4.5 18.3037 6.27778 19.4634L11.1667 22.1926C11.9005 22.6025 13.0995 22.6025 13.8333 22.1926L18.7222 19.4634C20.5 18.3037 20.5 18.3037 20.5 16.4843V11.5157C20.5 9.69627 20.5 9.69627 18.7222 8.53661L13.8333 5.80741C13.0995 5.39753 11.9005 5.39753 11.1667 5.80741L6.27778 8.53661C4.5 9.69627 4.5 9.69627 4.5 11.5157Z" stroke="#636363" stroke-width="1.5" stroke-linecap="round" stroke-linejoin="round"/>
<path d="M18.5 7V4.6643C18.5 2.8881 17.4091 2 15.2273 2H9.77273C7.59091 2 6.5 2.8881 6.5 4.6643V6.93783" stroke="#636363" stroke-width="1.5" stroke-linecap="round" stroke-linejoin="round"/>
<path d="M12.5 18C14.7091 18 16.5 16.2091 16.5 14C16.5 11.7909 14.7091 10 12.5 10C10.2909 10 8.5 11.7909 8.5 14C8.5 16.2091 10.2909 18 12.5 18Z" stroke="#636363" stroke-width="1.5" stroke-miterlimit="10" stroke-linecap="round" stroke-linejoin="round"/>
<path d="M12.5 13V13.8267C12.5 14.1378 12.356 14.4311 12.108 14.5911L11.5 15" stroke="#636363" stroke-width="1.5" stroke-miterlimit="10" stroke-linecap="round" stroke-linejoin="round"/>
</g>
<defs>
<clipPath id="clip0_9964_128235">
<rect width="24" height="24" fill="white" transform="translate(0.5)"/>
</clipPath>
</defs>
</svg>
