<svg width="24" height="24" viewBox="0 0 24 24" fill="none" xmlns="http://www.w3.org/2000/svg">
<path d="M11.5 21C16.7467 21 21 16.7467 21 11.5C21 6.25329 16.7467 2 11.5 2C6.25329 2 2 6.25329 2 11.5C2 16.7467 6.25329 21 11.5 21Z" stroke="#636363" stroke-width="1.5" stroke-linecap="round" stroke-linejoin="round"/>
<path d="M22 22L20 20" stroke="#636363" stroke-width="1.5" stroke-linecap="round" stroke-linejoin="round"/>
<path d="M9.44889 16.5H13.5511C15.6125 16.5 15.9817 15.695 16.0894 14.715L16.4739 10.715C16.6124 9.495 16.2535 8.5 14.0639 8.5H8.93611C6.74655 8.5 6.3876 9.495 6.52605 10.715L6.91063 14.715C7.01832 15.695 7.38752 16.5 9.44889 16.5Z" stroke="#636363" stroke-width="1.5" stroke-miterlimit="10" stroke-linecap="round" stroke-linejoin="round"/>
<path d="M7 11L8.89683 11.596C10.6114 12.1347 12.3886 12.1347 14.1032 11.596L16 11" stroke="#636363" stroke-width="1.5" stroke-linecap="round" stroke-linejoin="round"/>
<path d="M9.5 8.5V8.1C9.5 7.215 9.5 6.5 11.1 6.5H11.9C13.5 6.5 13.5 7.215 13.5 8.1V8.5" stroke="#636363" stroke-width="1.5" stroke-miterlimit="10" stroke-linecap="round" stroke-linejoin="round"/>
</svg>
