<svg width="25" height="24" viewBox="0 0 25 24" fill="none" xmlns="http://www.w3.org/2000/svg">
<path d="M8.5008 22H16.5008C20.5208 22 21.2408 20.39 21.4508 18.43L22.2008 10.43C22.4708 7.99 21.7708 6 17.5008 6H7.5008C3.2308 6 2.5308 7.99 2.8008 10.43L3.5508 18.43C3.7608 20.39 4.4808 22 8.5008 22Z" fill="#080A52" stroke="#080A52" stroke-width="1.5" stroke-miterlimit="10" stroke-linecap="round" stroke-linejoin="round"/>
<path d="M12.5 18.2C14.7091 18.2 16.5 16.4091 16.5 14.2C16.5 11.9908 14.7091 10.2 12.5 10.2C10.2909 10.2 8.5 11.9908 8.5 14.2C8.5 16.4091 10.2909 18.2 12.5 18.2Z" stroke="white" stroke-width="1.5" stroke-miterlimit="10" stroke-linecap="round" stroke-linejoin="round"/>
<path d="M12.75 12.95V13.88C12.75 14.23 12.57 14.56 12.26 14.74L11.5 15.2" stroke="white" stroke-width="1.5" stroke-miterlimit="10" stroke-linecap="round" stroke-linejoin="round"/>
<path d="M8.5 6V5.2C8.5 3.43 8.5 2 11.7 2H13.3C16.5 2 16.5 3.43 16.5 5.2V6" stroke="#080A52" stroke-width="1.5" stroke-miterlimit="10" stroke-linecap="round" stroke-linejoin="round"/>
<path d="M22.1498 11C20.4198 12.26 18.4998 13.14 16.5098 13.64" stroke="white" stroke-width="1.5" stroke-miterlimit="10" stroke-linecap="round" stroke-linejoin="round"/>
<path d="M3.12012 11.27C4.79012 12.41 6.61012 13.22 8.50012 13.68" stroke="white" stroke-width="1.5" stroke-miterlimit="10" stroke-linecap="round" stroke-linejoin="round"/>
</svg>
