<?xml version="1.0" encoding="utf-8"?>
<!-- Generator: Adobe Illustrator 26.3.1, SVG Export Plug-In . SVG Version: 6.00 Build 0)  -->
<svg version="1.1" id="Layer_1" xmlns="http://www.w3.org/2000/svg" xmlns:xlink="http://www.w3.org/1999/xlink" x="0px" y="0px"
	 viewBox="0 0 80 80" style="enable-background:new 0 0 80 80;" xml:space="preserve">
<style type="text/css">
	.st0{opacity:0.48;fill:#1A1A1A;}
	.st1{clip-path:url(#SVGID_00000029027061321141764760000005149822387357549961_);}
	.st2{fill:none;stroke:#FFFFFF;stroke-width:1.5;stroke-linecap:round;stroke-linejoin:round;}
	.st3{fill-rule:evenodd;clip-rule:evenodd;fill:#FFFFFF;}
</style>
<circle id="Path" class="st0" cx="40" cy="40" r="40"/>
<g>
	<defs>
		<rect id="SVGID_1_" x="27.5" y="28" width="24" height="24"/>
	</defs>
	<clipPath id="SVGID_00000004534630714941323230000007540695115421863829_">
		<use xlink:href="#SVGID_1_"  style="overflow:visible;"/>
	</clipPath>
	<g style="clip-path:url(#SVGID_00000004534630714941323230000007540695115421863829_);">
		<path class="st2" d="M34.3,50h10.5c2.8,0,3.9-1.7,4-3.8l0.5-8.3c0.1-2.2-1.6-4-3.8-4c-0.6,0-1.2-0.3-1.4-0.9l-0.7-1.5
			c-0.5-0.9-1.7-1.7-2.7-1.7h-2.3c-1,0-2.2,0.8-2.7,1.7L35,33.1c-0.3,0.5-0.8,0.9-1.5,0.9c-2.2,0-3.9,1.8-3.7,4l0.5,8.3
			C30.4,48.3,31.5,50,34.3,50z"/>
		<path class="st3" d="M39.5,47c2.8,0,5-2.2,5-5s-2.2-5-5-5s-5,2.2-5,5S36.8,47,39.5,47z M36.8,42c0-0.4,0.3-0.8,0.8-0.8h1.2V40
			c0-0.4,0.3-0.8,0.8-0.8s0.8,0.3,0.8,0.8v1.2h1.2c0.4,0,0.8,0.3,0.8,0.8s-0.3,0.8-0.8,0.8h-1.2V44c0,0.4-0.3,0.8-0.8,0.8
			s-0.8-0.3-0.8-0.8v-1.2h-1.2C37.1,42.8,36.8,42.4,36.8,42z"/>
	</g>
</g>
</svg>
