<svg width="24" height="24" viewBox="0 0 24 24" fill="none" xmlns="http://www.w3.org/2000/svg">
<path d="M12.0216 4C9.133 4 6.78548 6.39182 6.78548 9.33491V11.9046C6.78548 12.4469 6.55858 13.2739 6.28805 13.7362L5.28447 15.4345C4.66486 16.4837 5.09248 17.6485 6.22696 18.0397C9.98823 19.3201 14.0462 19.3201 17.8075 18.0397C18.8634 17.6841 19.3259 16.4126 18.75 15.4345L17.7464 13.7362C17.4846 13.2739 17.2577 12.4469 17.2577 11.9046V9.33491C17.2577 6.40071 14.9014 4 12.0216 4Z" stroke="white" stroke-width="1.5" stroke-miterlimit="10" stroke-linecap="round"/>
<path d="M14 4C13.6649 3.92857 13.3189 3.87302 12.9622 3.84127C11.9243 3.74603 10.9297 3.80159 10 4C10.3135 3.4127 11.0919 3 12 3C12.9081 3 13.6865 3.4127 14 4Z" stroke="white" stroke-width="1.5" stroke-miterlimit="10" stroke-linecap="round" stroke-linejoin="round"/>
<path d="M15 19C15 20.375 13.65 21.5 12 21.5C11.18 21.5 10.42 21.2167 9.88 20.7667C9.34 20.3167 9 19.6833 9 19" stroke="white" stroke-width="1.5" stroke-miterlimit="10"/>
<path d="M16.5 12C18.9853 12 21 9.98531 21 7.50002C21 5.01474 18.9853 3 16.5 3C14.0147 3 12 5.01474 12 7.50002C12 9.98531 14.0147 12 16.5 12Z" fill="#FF4E5B" stroke="white" stroke-width="1.5" stroke-linecap="round" stroke-linejoin="round"/>
</svg>
