<svg width="16" height="16" viewBox="0 0 16 16" fill="none" xmlns="http://www.w3.org/2000/svg">
<path d="M11.5556 6.29626H4.44446" stroke="#636363" stroke-width="1.5" stroke-miterlimit="10" stroke-linecap="round" stroke-linejoin="round"/>
<path d="M4.44446 2.58331C4.03024 2.58331 3.69446 2.9191 3.69446 3.33331C3.69446 3.74753 4.03024 4.08331 4.44446 4.08331V2.58331ZM8.33395 14.5045C8.61258 14.811 9.08691 14.8336 9.39341 14.5549C9.6999 14.2763 9.72249 13.802 9.44386 13.4955L8.33395 14.5045ZM11.5556 4.08331C11.9698 4.08331 12.3056 3.74753 12.3056 3.33331C12.3056 2.9191 11.9698 2.58331 11.5556 2.58331V4.08331ZM4.67064 9.10578L4.70591 9.85495L4.70591 9.85495L4.67064 9.10578ZM4.59652 9.27836L5.15147 8.77385L4.59652 9.27836ZM7.25001 6.44442C7.25001 6.8752 7.02826 7.31791 6.56523 7.68631C6.10099 8.05568 5.42394 8.31948 4.63536 8.35661L4.70591 9.85495C5.77562 9.80459 6.76327 9.4456 7.49915 8.86011C8.23623 8.27366 8.75001 7.42943 8.75001 6.44442H7.25001ZM4.44446 4.08331C5.21596 4.08331 5.92818 4.4063 6.45002 4.88779C6.98187 5.37852 7.25001 5.96877 7.25001 6.44442H8.75001C8.75001 5.44732 8.22222 4.48201 7.46721 3.78537C6.7022 3.07951 5.63664 2.58331 4.44446 2.58331V4.08331ZM4.04156 9.78286L8.33395 14.5045L9.44386 13.4955L5.15147 8.77385L4.04156 9.78286ZM4.44446 4.08331H11.5556V2.58331H4.44446V4.08331ZM4.63536 8.35661C3.95205 8.38878 3.53151 9.2218 4.04156 9.78286L5.15147 8.77385C5.54473 9.20644 5.21579 9.83095 4.70591 9.85495L4.63536 8.35661Z" fill="#636363"/>
</svg>
