<svg width="20" height="20" viewBox="0 0 20 20" fill="none" xmlns="http://www.w3.org/2000/svg">
<path d="M11.5474 1.47318L11.5475 1.47315L11.5415 1.46813C10.681 0.742861 9.3286 0.738234 8.47095 1.4714C8.47088 1.47146 8.47081 1.47152 8.47074 1.47158L7.15429 2.5964L7.15427 2.59638L7.15029 2.59983C7.11416 2.63115 7.02052 2.68969 6.88338 2.74065C6.74614 2.79165 6.63744 2.80827 6.59149 2.80827H5.14982C3.85227 2.80827 2.79149 3.86905 2.79149 5.1666V6.59994C2.79149 6.64539 2.77512 6.75202 2.72459 6.88853C2.67516 7.02207 2.6175 7.11807 2.58346 7.15968L1.46143 8.48118L1.46143 8.48117L1.45904 8.48401C0.741193 9.338 0.741193 10.6785 1.45904 11.5325L1.45903 11.5325L1.46143 11.5354L2.58347 12.8569C2.61751 12.8985 2.67516 12.9945 2.72459 13.128C2.77512 13.2645 2.79149 13.3711 2.79149 13.4166V14.8416C2.79149 16.1391 3.85227 17.1999 5.14982 17.1999H6.59149C6.64262 17.1999 6.75134 17.2171 6.88524 17.2671C7.01919 17.3171 7.11227 17.3754 7.15029 17.4084L7.15221 17.41L8.46888 18.5434L8.46885 18.5434L8.4748 18.5484C9.33536 19.2737 10.6879 19.2783 11.5456 18.545L11.5474 18.5434L12.8641 17.41L12.866 17.4084C12.9021 17.3771 12.9958 17.3185 13.1329 17.2676C13.2702 17.2166 13.3789 17.1999 13.4248 17.1999H14.8415C16.139 17.1999 17.1998 16.1391 17.1998 14.8416V13.4249C17.1998 13.3738 17.2169 13.2651 17.267 13.1312C17.317 12.9972 17.3753 12.9042 17.4083 12.8661L17.4099 12.8642L18.5432 11.5475L18.5433 11.5476L18.5483 11.5416C19.2736 10.6811 19.2782 9.32849 18.5448 8.47085L18.5432 8.46899L17.4099 7.15232L17.4083 7.1504C17.3769 7.11427 17.3184 7.02063 17.2674 6.88349C17.2164 6.74625 17.1998 6.63756 17.1998 6.5916V5.17493C17.1998 3.87739 16.139 2.8166 14.8415 2.8166H13.4248C13.3737 2.8166 13.265 2.79948 13.1311 2.74945C12.9971 2.69941 12.904 2.64112 12.866 2.60816L12.8641 2.60651L11.5474 1.47318Z" fill="#E6F7F2" stroke="#00AB7A" stroke-width="1.5" stroke-linecap="round" stroke-linejoin="round"/>
<path d="M6.98315 10.0001L8.99149 12.0167L13.0165 7.9834" stroke="#00AB7A" stroke-width="1.5" stroke-linecap="round" stroke-linejoin="round"/>
</svg>
