<svg width="16" height="16" viewBox="0 0 16 16" fill="none" xmlns="http://www.w3.org/2000/svg">
                  <mask id="mask0" style="mask-type:alpha" maskUnits="userSpaceOnUse" x="0" y="0" width="16"
                    height="16">
                    <rect width="16" height="16" fill="#C4C4C4"></rect>
                  </mask>
                  <g mask="url(#mask0)">
                    <path fill-rule="evenodd" clip-rule="evenodd"
                      d="M8.03349 15.8625H8.0302C6.69689 15.8621 5.38679 15.5291 4.22319 14.8975L0 16L1.1302 11.8916C0.433036 10.6892 0.066194 9.32527 0.0667919 7.92791C0.0685394 3.5565 3.64233 0 8.03342 0C10.1646 0.000915384 12.1648 0.826592 13.6689 2.32523C15.173 3.82379 16.0008 5.81574 16 7.93417C15.9982 12.3046 12.4259 15.8607 8.03349 15.8625Z"
                      fill="#FDFDFD"></path>
                    <path fill-rule="evenodd" clip-rule="evenodd"
                      d="M4.41911 13.4619L4.6609 13.6047C5.67753 14.2051 6.8429 14.5228 8.03107 14.5233H8.03375C11.6833 14.5233 14.6537 11.567 14.6552 7.93345C14.6558 6.17263 13.9678 4.517 12.7176 3.2714C11.4675 2.02579 9.80496 1.33948 8.03636 1.33887C4.38398 1.33887 1.41356 4.2948 1.41211 7.92811C1.4116 9.17327 1.76167 10.3859 2.42449 11.4351L2.58193 11.6844L1.91301 14.1161L4.41911 13.4619Z"
                      fill="#2BB792"></path>
                    <path fill-rule="evenodd" clip-rule="evenodd"
                      d="M12.0468 9.81959C11.9971 9.73695 11.8644 9.68738 11.6654 9.58818C11.4663 9.48903 10.4877 9.00983 10.3052 8.94366C10.1227 8.87758 9.98998 8.84455 9.8573 9.04281C9.72462 9.24111 9.34314 9.68738 9.22702 9.81959C9.11089 9.95177 8.99477 9.96836 8.79579 9.86917C8.59673 9.77001 7.95534 9.56084 7.195 8.8859C6.60324 8.36058 6.20375 7.71188 6.08764 7.51355C5.97152 7.31521 6.07526 7.20804 6.17491 7.10925C6.26446 7.02046 6.37398 6.87781 6.4735 6.76217C6.57302 6.64652 6.60619 6.56384 6.67255 6.43171C6.7389 6.29944 6.70573 6.1838 6.65596 6.08463C6.60619 5.98546 6.2081 5.01035 6.04223 4.61368C5.88064 4.22739 5.71654 4.27972 5.59436 4.27362C5.47839 4.26782 5.34554 4.2666 5.21285 4.2666C5.08016 4.2666 4.86449 4.31618 4.68204 4.51452C4.49958 4.71285 3.98535 5.19213 3.98535 6.16717C3.98535 7.14228 4.69861 8.08429 4.79815 8.21649C4.89767 8.34876 6.20177 10.3497 8.19862 11.2078C8.67353 11.4119 9.04428 11.5338 9.3334 11.6251C9.81024 11.7759 10.2442 11.7546 10.5871 11.7036C10.9696 11.6467 11.7649 11.2244 11.9308 10.7617C12.0966 10.2988 12.0966 9.90219 12.0468 9.81959Z"
                      fill="#FDFDFD"></path>
                  </g>
                </svg>