<svg width="40" height="40" viewBox="0 0 40 40" fill="none" xmlns="http://www.w3.org/2000/svg">
<path d="M20 37.9998C29.9411 37.9998 38 29.9409 38 19.9998C38 10.0586 29.9411 1.99976 20 1.99976C10.0589 1.99976 2 10.0586 2 19.9998C2 29.9409 10.0589 37.9998 20 37.9998Z" fill="#E8E8E8" stroke="#E8E8E8" stroke-width="2" stroke-linecap="round" stroke-linejoin="round"/>
<path d="M12 23.9998C13.3465 26.3543 16.4217 27.9998 20 27.9998C23.5783 27.9998 26.6535 26.3543 28 23.9998" stroke="#B6B6B6" stroke-width="2" stroke-miterlimit="10" stroke-linecap="round" stroke-linejoin="round"/>
<path d="M13.9995 27C15.0094 29.3545 17.3158 31 19.9995 31C22.6832 31 24.9896 29.3545 25.9995 27" stroke="#B6B6B6" stroke-width="2" stroke-miterlimit="10" stroke-linecap="round" stroke-linejoin="round"/>
<path d="M13.1867 18.9716C13.0867 19.0091 12.92 19.0091 12.8133 18.9716C11.9467 18.634 10 17.2461 10 14.8828C10 13.84 10.7467 12.9998 11.6667 12.9998C12.2133 12.9998 12.6933 13.2923 13 13.75C13.3067 13.2923 13.7867 12.9998 14.3333 12.9998C15.2533 12.9998 16 13.84 16 14.8828C15.9933 17.2461 14.0533 18.634 13.1867 18.9716Z" fill="#B6B6B6"/>
<path d="M27.1867 18.9716C27.0867 19.0091 26.92 19.0091 26.8133 18.9716C25.9467 18.634 24 17.2461 24 14.8828C24 13.84 24.7467 12.9998 25.6667 12.9998C26.2133 12.9998 26.6933 13.2923 27 13.75C27.3067 13.2923 27.7867 12.9998 28.3333 12.9998C29.2533 12.9998 30 13.84 30 14.8828C29.9933 17.2461 28.0533 18.634 27.1867 18.9716Z" fill="#B6B6B6"/>
</svg>
