<svg width="42" height="42" viewBox="0 0 42 42" fill="none" xmlns="http://www.w3.org/2000/svg">
<g filter="url(#filter0_d_10027_131100)">
<path d="M21 38C30.9411 38 39 29.9411 39 20C39 10.0589 30.9411 2 21 2C11.0589 2 3 10.0589 3 20C3 29.9411 11.0589 38 21 38Z" fill="#FFEBEE" stroke="#CC2B43" stroke-width="2" stroke-linecap="round" stroke-linejoin="round"/>
<path d="M15 29C16.0099 27.8227 18.3163 27 21 27C23.6837 27 25.9901 27.8227 27 29" stroke="#CC2B43" stroke-width="2" stroke-miterlimit="10" stroke-linecap="round" stroke-linejoin="round"/>
<circle cx="14.5" cy="18.5" r="2.5" fill="#CC2B43"/>
<circle cx="26.5" cy="18.5" r="2.5" fill="#CC2B43"/>
<path d="M30 13L24 14" stroke="#CC2B43" stroke-width="2" stroke-miterlimit="10" stroke-linecap="round" stroke-linejoin="round"/>
<path d="M12 13L18 14" stroke="#CC2B43" stroke-width="2" stroke-miterlimit="10" stroke-linecap="round" stroke-linejoin="round"/>
</g>
<defs>
<filter id="filter0_d_10027_131100" x="-1" y="-1" width="44" height="44" filterUnits="userSpaceOnUse" color-interpolation-filters="sRGB">
<feFlood flood-opacity="0" result="BackgroundImageFix"/>
<feColorMatrix in="SourceAlpha" type="matrix" values="0 0 0 0 0 0 0 0 0 0 0 0 0 0 0 0 0 0 127 0" result="hardAlpha"/>
<feOffset dy="1"/>
<feGaussianBlur stdDeviation="1"/>
<feColorMatrix type="matrix" values="0 0 0 0 0.101961 0 0 0 0 0.101961 0 0 0 0 0.101961 0 0 0 0.04 0"/>
<feBlend mode="normal" in2="BackgroundImageFix" result="effect1_dropShadow_10027_131100"/>
<feBlend mode="normal" in="SourceGraphic" in2="effect1_dropShadow_10027_131100" result="shape"/>
</filter>
</defs>
</svg>
