<svg width="40" height="40" viewBox="0 0 40 40" fill="none" xmlns="http://www.w3.org/2000/svg">
<path d="M19.9995 38C29.9406 38 37.9995 29.9411 37.9995 20C37.9995 10.0589 29.9406 2 19.9995 2C10.0584 2 1.99951 10.0589 1.99951 20C1.99951 29.9411 10.0584 38 19.9995 38Z" fill="#E6F7F2" stroke="#00AB7A" stroke-width="2" stroke-linecap="round" stroke-linejoin="round"/>
<circle cx="14.274" cy="16.243" r="2.46106" fill="#00AB7A"/>
<circle cx="25.1027" cy="16.243" r="2.46106" fill="#00AB7A"/>
<path d="M11.9995 24.0002C13.346 26.3548 16.4213 28.0002 19.9995 28.0002C23.5778 28.0002 26.653 26.3548 27.9995 24.0002" stroke="#00AB7A" stroke-width="2" stroke-miterlimit="10" stroke-linecap="round" stroke-linejoin="round"/>
<path d="M14 27C15.0099 29.3545 17.3163 31 20 31C22.6837 31 24.9901 29.3545 26 27" stroke="#00AB7A" stroke-width="2" stroke-miterlimit="10" stroke-linecap="round" stroke-linejoin="round"/>
</svg>
